<?xml version="1.0" encoding="utf-8"?>
<!-- Generator: Adobe Illustrator 19.0.0, SVG Export Plug-In . SVG Version: 6.00 Build 0)  -->
<svg version="1.1" id="Layer_1" xmlns="http://www.w3.org/2000/svg" xmlns:xlink="http://www.w3.org/1999/xlink" x="0px" y="0px"
	 width="323.5px" height="89.4px" viewBox="0 0 323.5 89.4" style="enable-background:new 0 0 323.5 89.4;" xml:space="preserve">
<g id="XMLID_3_">
	<path id="XMLID_39_" style="fill:#333333;" d="M0,67.5h2V55.5l35.9-20.8v54.6h2V0L0,23.1V67.5z M37.9,3.5v29L2,53.2v-29L37.9,3.5z"
		/>
	<path id="XMLID_42_" style="fill:#333333;" d="M43,0v89.4h2v-8.1l35.9-20.8v6.9h2V23.1L43,0z M45,79V3.5l35.9,20.8v34L45,79z"/>
</g>
<g id="XMLID_61_">
	<path id="XMLID_62_" style="fill:#333333;" d="M127.4,23.8h2.4L146.3,63h-3l-5.5-12.9h-18.7L113.8,63h-3L127.4,23.8z M137.1,47.8
		l-8.5-20.5l-8.7,20.5H137.1z"/>
	<path id="XMLID_65_" style="fill:#333333;" d="M174.9,63h-2.8V47c0-3.7-0.5-6.4-1.6-8.1c-1-1.7-2.7-2.5-5-2.5
		c-1.2,0-2.4,0.2-3.6,0.7c-1.2,0.4-2.3,1.1-3.3,1.9c-1,0.8-1.9,1.8-2.7,2.8s-1.3,2.3-1.7,3.5V63h-2.8V34.3h2.6v6.8
		c0.6-1.1,1.3-2.1,2.2-3c0.9-0.9,1.8-1.7,2.9-2.3c1.1-0.6,2.2-1.1,3.4-1.5c1.2-0.3,2.5-0.5,3.7-0.5c3.1,0,5.3,1.1,6.6,3.3
		c1.3,2.2,1.9,5.3,1.9,9.4V63z"/>
	<path id="XMLID_67_" style="fill:#333333;" d="M195,63.5c-2,0-3.8-0.4-5.5-1.2c-1.7-0.8-3.2-1.9-4.4-3.3c-1.2-1.4-2.2-3-2.9-4.7
		c-0.7-1.8-1-3.6-1-5.5c0-2,0.3-3.9,1-5.7c0.7-1.8,1.6-3.4,2.8-4.7c1.2-1.4,2.6-2.4,4.2-3.3c1.6-0.8,3.4-1.2,5.3-1.2
		c1.2,0,2.4,0.2,3.5,0.6c1.1,0.4,2.1,0.9,3.1,1.5c1,0.6,1.8,1.3,2.6,2.1c0.8,0.8,1.4,1.7,2,2.6V22.7h2.8v36.4c0,0.9,0.4,1.4,1.2,1.4
		V63c-0.2,0-0.4,0.1-0.6,0.1c-0.1,0-0.3,0-0.4,0c-0.7,0-1.4-0.3-1.9-0.9c-0.5-0.6-0.8-1.2-0.8-1.8v-3.2c-1.2,1.9-2.7,3.4-4.7,4.6
		C199.2,62.9,197.1,63.5,195,63.5z M195.5,61c1,0,2.1-0.2,3.2-0.6s2.2-1,3.2-1.7c1-0.7,1.8-1.5,2.5-2.5c0.7-0.9,1.1-1.9,1.2-3v-9.4
		c-0.4-1-1-2-1.7-2.9c-0.8-0.9-1.6-1.7-2.6-2.4c-1-0.7-2-1.2-3.1-1.6c-1.1-0.4-2.2-0.6-3.2-0.6c-1.7,0-3.2,0.4-4.5,1.1
		S188,39,187,40.2c-1,1.2-1.7,2.5-2.2,4c-0.5,1.5-0.8,3-0.8,4.6c0,1.7,0.3,3.2,0.9,4.7c0.6,1.5,1.4,2.8,2.5,3.9c1,1.1,2.3,2,3.6,2.7
		C192.4,60.7,193.9,61,195.5,61z"/>
	<path id="XMLID_70_" style="fill:#333333;" d="M226,63.5c-6.1,0-9.1-4.2-9.1-12.7V34.3h2.8v16.1c0,7.1,2.4,10.6,7.2,10.6
		c1.2,0,2.4-0.2,3.5-0.6c1.1-0.4,2.2-1,3.2-1.8s1.9-1.7,2.6-2.7c0.8-1.1,1.3-2.2,1.8-3.5V34.3h2.8v24.8c0,0.9,0.4,1.4,1.2,1.4V63
		c-0.2,0-0.3,0.1-0.5,0.1c-0.1,0-0.3,0-0.3,0c-0.7,0-1.4-0.2-2-0.7c-0.6-0.5-0.9-1.1-0.9-1.8v-4.3c-1.2,2.3-3,4.1-5.2,5.4
		C230.9,62.9,228.5,63.5,226,63.5z"/>
	<path id="XMLID_72_" style="fill:#333333;" d="M291.6,63h-2.8V47c0-3.6-0.6-6.3-1.7-8c-1.1-1.7-2.8-2.6-5.2-2.6
		c-1.2,0-2.3,0.2-3.4,0.7c-1.1,0.4-2,1.1-2.9,1.8s-1.6,1.7-2.3,2.8c-0.6,1.1-1.1,2.3-1.5,3.6V63h-2.8V47c0-3.7-0.6-6.4-1.7-8.1
		c-1.1-1.7-2.8-2.6-5.1-2.6c-1.2,0-2.3,0.2-3.3,0.6c-1,0.4-2,1-2.9,1.8c-0.9,0.8-1.7,1.7-2.3,2.8c-0.7,1.1-1.2,2.3-1.6,3.6V63h-2.8
		V34.3h2.6v6.8c1.2-2.3,2.7-4.1,4.6-5.4c1.9-1.3,4-1.9,6.3-1.9c2.4,0,4.4,0.7,5.9,2.1c1.5,1.4,2.4,3.3,2.7,5.6
		c2.7-5.2,6.5-7.8,11.2-7.8c3.1,0,5.4,1.1,6.7,3.3c1.3,2.2,2,5.3,2,9.3V63z"/>
	<path id="XMLID_74_" style="fill:#333333;" d="M301.1,72.7c0.2,0,0.5,0.1,0.8,0.1s0.7,0,1-0.1c0.3,0,0.6-0.1,0.9-0.3
		c0.2-0.1,0.4-0.3,0.6-0.5s0.4-0.6,0.8-1.2c0.3-0.6,0.8-1.5,1.3-2.8c0.5-1.2,1.2-2.9,2.1-5l-12.8-28.7h2.9l11.4,26l10.6-26h2.7
		L307.8,72c-0.4,1-1.1,1.8-2,2.4c-0.9,0.6-2.1,0.9-3.7,0.9c-0.1,0-0.3,0-0.5,0c-0.2,0-0.3,0-0.5-0.1V72.7z"/>
</g>
</svg>
