<?xml version="1.0" encoding="iso-8859-1"?>
<!-- Generator: Adobe Illustrator 19.0.0, SVG Export Plug-In . SVG Version: 6.00 Build 0)  -->
<svg version="1.1" id="Layer_1" xmlns="http://www.w3.org/2000/svg" xmlns:xlink="http://www.w3.org/1999/xlink" x="0px" y="0px"
	 viewBox="0 0 1920 1080" style="enable-background:new 0 0 1920 1080;" xml:space="preserve">
<polygon id="XMLID_2_" style="fill:#3D3D3D;stroke:#3D3D3D;stroke-miterlimit:10;" points="0,0 433.617,298.603 757.601,0 "/>
<polygon id="XMLID_3_" style="fill:#454545;stroke:#454545;stroke-miterlimit:10;" points="1920,0 1434.067,442.595 
	1222.577,178.609 "/>
<polygon id="XMLID_4_" style="fill:#343434;stroke:#343434;stroke-miterlimit:10;" points="433.617,298.603 1222.577,178.609 
	757.601,0 "/>
<polygon id="XMLID_5_" style="fill:#262626;stroke:#262626;stroke-miterlimit:10;" points="1434.067,442.595 1467.065,694.583 
	1222.577,178.609 "/>
<polygon id="XMLID_6_" style="fill:#303030;stroke:#303030;stroke-miterlimit:10;" points="433.617,298.603 1024.587,619.586 
	1222.577,178.609 "/>
<polygon id="XMLID_7_" style="fill:#333333;stroke:#333333;stroke-miterlimit:10;" points="0,775.579 433.617,298.603 0,0 "/>
<polygon id="XMLID_8_" style="fill:#222222;stroke:#222222;stroke-miterlimit:10;" points="433.617,298.603 327.122,708.082 
	1024.587,619.586 "/>
<polygon id="XMLID_9_" style="fill:#3D3D3D;stroke:#3D3D3D;stroke-miterlimit:10;" points="0,1080 327.122,708.082 0,775.579 "/>
<polygon id="XMLID_10_" style="fill:#303030;stroke:#303030;stroke-miterlimit:10;" points="433.617,298.603 327.122,708.082 
	0,775.579 "/>
<polygon id="XMLID_11_" style="fill:#222222;stroke:#222222;stroke-miterlimit:10;" points="1024.587,619.586 1467.065,694.583 
	1222.577,178.609 "/>
<polygon id="XMLID_12_" style="fill:#262626;stroke:#262626;stroke-miterlimit:10;" points="327.122,708.082 846.096,1080 
	1467.065,694.583 "/>
<polygon id="XMLID_13_" style="fill:#171617;stroke:#212121;stroke-miterlimit:10;" points="1024.587,619.586 327.122,708.082 
	1467.065,694.583 "/>
<polygon id="XMLID_14_" style="fill:#333333;stroke:#333333;stroke-miterlimit:10;" points="0,1080 846.096,1080 327.122,708.082 
	"/>
<polygon id="XMLID_15_" style="fill:#222222;stroke:#222222;stroke-miterlimit:10;" points="1467.065,694.583 1920,1080 
	846.096,1080 "/>
<polygon id="XMLID_16_" style="fill:#212121;stroke:#212121;stroke-miterlimit:10;" points="1434.067,442.595 1920,503.342 
	1467.065,694.583 "/>
<polygon id="XMLID_17_" style="fill:#303030;stroke:#303030;stroke-miterlimit:10;" points="1920,0 1920,503.342 1434.067,442.595 
	"/>
<polygon id="XMLID_18_" style="fill:#333333;stroke:#333333;stroke-miterlimit:10;" points="1467.065,694.583 1920,1080 
	1920,503.342 "/>
<polygon id="XMLID_19_" style="fill:#3D3D3D;stroke:#3D3D3D;stroke-miterlimit:10;" points="1222.577,178.609 1920,0 757.601,0 "/>
<g id="XMLID_1_">
</g>
<g id="XMLID_20_">
</g>
<g id="XMLID_21_">
</g>
<g id="XMLID_22_">
</g>
<g id="XMLID_23_">
</g>
<g id="XMLID_24_">
</g>
</svg>
