<?xml version="1.0" encoding="utf-8"?>
<!-- Generator: Adobe Illustrator 19.0.0, SVG Export Plug-In . SVG Version: 6.00 Build 0)  -->
<svg version="1.1" id="Layer_3" xmlns="http://www.w3.org/2000/svg" xmlns:xlink="http://www.w3.org/1999/xlink" x="0px" y="0px"
	viewBox="100 -3 811.4 799" style="enable-background:new 100 -3 811.4 799;" xml:space="preserve">
<style type="text/css">
	.st0{fill:url(#XMLID_2_);}
	.st1{fill:url(#XMLID_3_);}
	.st2{fill:url(#XMLID_4_);}
	.st3{fill:url(#XMLID_6_);}
	.st4{fill:url(#XMLID_7_);}
	.st5{fill:url(#XMLID_8_);}
	.st6{fill:url(#XMLID_9_);}
	.st7{fill:url(#XMLID_10_);}
	.st8{fill:url(#XMLID_11_);}
	.st9{fill:url(#XMLID_12_);}
	.st10{fill:url(#XMLID_13_);}
	.st11{fill:url(#XMLID_14_);}
	.st12{fill:url(#XMLID_15_);}
	.st13{fill:url(#XMLID_16_);}
	.st14{fill:url(#XMLID_17_);}
	.st15{fill:url(#XMLID_18_);}
	.st16{fill:url(#XMLID_19_);}
	.st17{fill:url(#XMLID_20_);}
	.st18{fill:url(#XMLID_21_);}
	.st19{fill:url(#XMLID_22_);}
	.st20{fill:url(#XMLID_23_);}
	.st21{fill:url(#XMLID_24_);}
	.st22{fill:url(#XMLID_27_);}
	.st23{fill:url(#XMLID_29_);}
	.st24{fill:url(#XMLID_30_);}
	.st25{fill:url(#XMLID_32_);}
	.st26{fill:#444444;}
	.st27{fill:#888888;}
	.st28{fill:url(#XMLID_34_);}
</style>
<linearGradient id="XMLID_2_" gradientUnits="userSpaceOnUse" x1="196.8009" y1="212.0016" x2="475.0818" y2="738.569" gradientTransform="matrix(0.9574 0.2887 -0.1348 1.0065 28.648 -146.8524)">
	<stop  offset="0" style="stop-color:#F3C715"/>
	<stop  offset="0.1129" style="stop-color:#D98427"/>
	<stop  offset="0.2366" style="stop-color:#D8522A"/>
	<stop  offset="0.3656" style="stop-color:#EC1E24"/>
	<stop  offset="0.4946" style="stop-color:#E82185"/>
	<stop  offset="0.6183" style="stop-color:#A24598"/>
	<stop  offset="0.7634" style="stop-color:#5B3794"/>
	<stop  offset="0.8925" style="stop-color:#4A51A1"/>
	<stop  offset="1" style="stop-color:#378CCB"/>
</linearGradient>
<path id="XMLID_835_" class="st0" d="M244.9,297.6l-0.3,2.9C244.8,299.2,244.9,298.3,244.9,297.6z"/>
<linearGradient id="XMLID_3_" gradientUnits="userSpaceOnUse" x1="208.4669" y1="205.8364" x2="486.7477" y2="732.4037" gradientTransform="matrix(0.9574 0.2887 -0.1348 1.0065 28.648 -146.8524)">
	<stop  offset="0" style="stop-color:#F3C715"/>
	<stop  offset="0.1129" style="stop-color:#D98427"/>
	<stop  offset="0.2366" style="stop-color:#D8522A"/>
	<stop  offset="0.3656" style="stop-color:#EC1E24"/>
	<stop  offset="0.4946" style="stop-color:#E82185"/>
	<stop  offset="0.6183" style="stop-color:#A24598"/>
	<stop  offset="0.7634" style="stop-color:#5B3794"/>
	<stop  offset="0.8925" style="stop-color:#4A51A1"/>
	<stop  offset="1" style="stop-color:#378CCB"/>
</linearGradient>
<path id="XMLID_834_" class="st1" d="M251.2,278l-0.8-0.8C250.7,278.3,250.9,278.8,251.2,278z"/>
<linearGradient id="XMLID_4_" gradientUnits="userSpaceOnUse" x1="472.7014" y1="66.1934" x2="750.9822" y2="592.7608" gradientTransform="matrix(0.9574 0.2887 -0.1348 1.0065 28.648 -146.8524)">
	<stop  offset="0" style="stop-color:#F3C715"/>
	<stop  offset="0.1129" style="stop-color:#D98427"/>
	<stop  offset="0.2366" style="stop-color:#D8522A"/>
	<stop  offset="0.3656" style="stop-color:#EC1E24"/>
	<stop  offset="0.4946" style="stop-color:#E82185"/>
	<stop  offset="0.6183" style="stop-color:#A24598"/>
	<stop  offset="0.7634" style="stop-color:#5B3794"/>
	<stop  offset="0.8925" style="stop-color:#4A51A1"/>
	<stop  offset="1" style="stop-color:#378CCB"/>
</linearGradient>
<path id="XMLID_833_" class="st2" d="M529.6,226.1c-3.4-3-7-7-7.2-4.8l0.6,2.4C525.9,224.2,528,225.1,529.6,226.1z"/>
<linearGradient id="XMLID_6_" gradientUnits="userSpaceOnUse" x1="305.2234" y1="154.7024" x2="583.5042" y2="681.2698" gradientTransform="matrix(0.9574 0.2887 -0.1348 1.0065 28.648 -146.8524)">
	<stop  offset="0" style="stop-color:#F3C715"/>
	<stop  offset="0.1129" style="stop-color:#D98427"/>
	<stop  offset="0.2366" style="stop-color:#D8522A"/>
	<stop  offset="0.3656" style="stop-color:#EC1E24"/>
	<stop  offset="0.4946" style="stop-color:#E82185"/>
	<stop  offset="0.6183" style="stop-color:#A24598"/>
	<stop  offset="0.7634" style="stop-color:#5B3794"/>
	<stop  offset="0.8925" style="stop-color:#4A51A1"/>
	<stop  offset="1" style="stop-color:#378CCB"/>
</linearGradient>
<path id="XMLID_831_" class="st3" d="M327.9,177.4c-1.3,0.1-2.7,0.1-4.3,0.2c0.3,0.3,0.6,0.7,1,1
	C325.8,178.1,326.9,177.7,327.9,177.4z"/>
<linearGradient id="XMLID_7_" gradientUnits="userSpaceOnUse" x1="294.3253" y1="160.4618" x2="572.6062" y2="687.0292" gradientTransform="matrix(0.9574 0.2887 -0.1348 1.0065 28.648 -146.8524)">
	<stop  offset="0" style="stop-color:#F3C715"/>
	<stop  offset="0.1129" style="stop-color:#D98427"/>
	<stop  offset="0.2366" style="stop-color:#D8522A"/>
	<stop  offset="0.3656" style="stop-color:#EC1E24"/>
	<stop  offset="0.4946" style="stop-color:#E82185"/>
	<stop  offset="0.6183" style="stop-color:#A24598"/>
	<stop  offset="0.7634" style="stop-color:#5B3794"/>
	<stop  offset="0.8925" style="stop-color:#4A51A1"/>
	<stop  offset="1" style="stop-color:#378CCB"/>
</linearGradient>
<path id="XMLID_830_" class="st4" d="M313.4,182.4c1,0.8,2.6,1.8,4.8,2.9L313.4,182.4z"/>
<linearGradient id="XMLID_8_" gradientUnits="userSpaceOnUse" x1="138.2721" y1="242.933" x2="416.5529" y2="769.5004" gradientTransform="matrix(0.9574 0.2887 -0.1348 1.0065 28.648 -146.8524)">
	<stop  offset="0" style="stop-color:#F3C715"/>
	<stop  offset="0.1129" style="stop-color:#D98427"/>
	<stop  offset="0.2366" style="stop-color:#D8522A"/>
	<stop  offset="0.3656" style="stop-color:#EC1E24"/>
	<stop  offset="0.4946" style="stop-color:#E82185"/>
	<stop  offset="0.6183" style="stop-color:#A24598"/>
	<stop  offset="0.7634" style="stop-color:#5B3794"/>
	<stop  offset="0.8925" style="stop-color:#4A51A1"/>
	<stop  offset="1" style="stop-color:#378CCB"/>
</linearGradient>
<path id="XMLID_829_" class="st5" d="M213.4,405.6l1.1,3.8C216.1,404.4,214.3,406.3,213.4,405.6z"/>
<linearGradient id="XMLID_9_" gradientUnits="userSpaceOnUse" x1="183.7029" y1="218.9237" x2="461.9837" y2="745.491" gradientTransform="matrix(0.9574 0.2887 -0.1348 1.0065 28.648 -146.8524)">
	<stop  offset="0" style="stop-color:#F3C715"/>
	<stop  offset="0.1129" style="stop-color:#D98427"/>
	<stop  offset="0.2366" style="stop-color:#D8522A"/>
	<stop  offset="0.3656" style="stop-color:#EC1E24"/>
	<stop  offset="0.4946" style="stop-color:#E82185"/>
	<stop  offset="0.6183" style="stop-color:#A24598"/>
	<stop  offset="0.7634" style="stop-color:#5B3794"/>
	<stop  offset="0.8925" style="stop-color:#4A51A1"/>
	<stop  offset="1" style="stop-color:#378CCB"/>
</linearGradient>
<path id="XMLID_828_" class="st6" d="M225.3,283.2c-0.1,1.8,0.1,2.6,0.5,2.7C226,284.1,225.9,283,225.3,283.2z"/>
<linearGradient id="XMLID_10_" gradientUnits="userSpaceOnUse" x1="245.6472" y1="186.1873" x2="523.928" y2="712.7546" gradientTransform="matrix(0.9574 0.2887 -0.1348 1.0065 28.648 -146.8524)">
	<stop  offset="0" style="stop-color:#F3C715"/>
	<stop  offset="0.1129" style="stop-color:#D98427"/>
	<stop  offset="0.2366" style="stop-color:#D8522A"/>
	<stop  offset="0.3656" style="stop-color:#EC1E24"/>
	<stop  offset="0.4946" style="stop-color:#E82185"/>
	<stop  offset="0.6183" style="stop-color:#A24598"/>
	<stop  offset="0.7634" style="stop-color:#5B3794"/>
	<stop  offset="0.8925" style="stop-color:#4A51A1"/>
	<stop  offset="1" style="stop-color:#378CCB"/>
</linearGradient>
<path id="XMLID_827_" class="st7" d="M398.2,610.5c0.3,0.2,0.6,0.3,0.8,0.5C399.2,610.8,398.8,610.7,398.2,610.5z"/>
<linearGradient id="XMLID_11_" gradientUnits="userSpaceOnUse" x1="72.6901" y1="277.5918" x2="350.9709" y2="804.1592" gradientTransform="matrix(0.9574 0.2887 -0.1348 1.0065 28.648 -146.8524)">
	<stop  offset="0" style="stop-color:#F3C715"/>
	<stop  offset="0.1129" style="stop-color:#D98427"/>
	<stop  offset="0.2366" style="stop-color:#D8522A"/>
	<stop  offset="0.3656" style="stop-color:#EC1E24"/>
	<stop  offset="0.4946" style="stop-color:#E82185"/>
	<stop  offset="0.6183" style="stop-color:#A24598"/>
	<stop  offset="0.7634" style="stop-color:#5B3794"/>
	<stop  offset="0.8925" style="stop-color:#4A51A1"/>
	<stop  offset="1" style="stop-color:#378CCB"/>
</linearGradient>
<path id="XMLID_826_" class="st8" d="M187.8,553.2c0.1,0.1,0.3,0.2,0.5,0.4C191.1,553.5,189.9,553.2,187.8,553.2z"/>
<linearGradient id="XMLID_12_" gradientUnits="userSpaceOnUse" x1="408.9996" y1="99.8586" x2="687.2805" y2="626.426" gradientTransform="matrix(0.9574 0.2887 -0.1348 1.0065 28.648 -146.8524)">
	<stop  offset="0" style="stop-color:#F3C715"/>
	<stop  offset="0.1129" style="stop-color:#D98427"/>
	<stop  offset="0.2366" style="stop-color:#D8522A"/>
	<stop  offset="0.3656" style="stop-color:#EC1E24"/>
	<stop  offset="0.4946" style="stop-color:#E82185"/>
	<stop  offset="0.6183" style="stop-color:#A24598"/>
	<stop  offset="0.7634" style="stop-color:#5B3794"/>
	<stop  offset="0.8925" style="stop-color:#4A51A1"/>
	<stop  offset="1" style="stop-color:#378CCB"/>
</linearGradient>
<path id="XMLID_825_" class="st9" d="M456.6,227.7c0.1,0,0.2,0,0.3,0c-0.1-0.1-0.3-0.1-0.4-0.2L456.6,227.7z"/>
<linearGradient id="XMLID_13_" gradientUnits="userSpaceOnUse" x1="405.1671" y1="101.884" x2="683.448" y2="628.4514" gradientTransform="matrix(0.9574 0.2887 -0.1348 1.0065 28.648 -146.8524)">
	<stop  offset="0" style="stop-color:#F3C715"/>
	<stop  offset="0.1129" style="stop-color:#D98427"/>
	<stop  offset="0.2366" style="stop-color:#D8522A"/>
	<stop  offset="0.3656" style="stop-color:#EC1E24"/>
	<stop  offset="0.4946" style="stop-color:#E82185"/>
	<stop  offset="0.6183" style="stop-color:#A24598"/>
	<stop  offset="0.7634" style="stop-color:#5B3794"/>
	<stop  offset="0.8925" style="stop-color:#4A51A1"/>
	<stop  offset="1" style="stop-color:#378CCB"/>
</linearGradient>
<path id="XMLID_824_" class="st10" d="M446.9,226.4c4.7-1.4,6.8-0.4,9.6,1l-1.1-6.9L446.9,226.4z"/>
<linearGradient id="XMLID_14_" gradientUnits="userSpaceOnUse" x1="296.6526" y1="159.2319" x2="574.9335" y2="685.7993" gradientTransform="matrix(0.9574 0.2887 -0.1348 1.0065 28.648 -146.8524)">
	<stop  offset="0" style="stop-color:#F3C715"/>
	<stop  offset="0.1129" style="stop-color:#D98427"/>
	<stop  offset="0.2366" style="stop-color:#D8522A"/>
	<stop  offset="0.3656" style="stop-color:#EC1E24"/>
	<stop  offset="0.4946" style="stop-color:#E82185"/>
	<stop  offset="0.6183" style="stop-color:#A24598"/>
	<stop  offset="0.7634" style="stop-color:#5B3794"/>
	<stop  offset="0.8925" style="stop-color:#4A51A1"/>
	<stop  offset="1" style="stop-color:#378CCB"/>
</linearGradient>
<path id="XMLID_823_" class="st11" d="M318.9,184.4c-0.4-0.5-0.4-1-0.4-1.5C317.6,183.1,317.5,183.6,318.9,184.4z"/>
<linearGradient id="XMLID_15_" gradientUnits="userSpaceOnUse" x1="137.5653" y1="243.3065" x2="415.8462" y2="769.8738" gradientTransform="matrix(0.9574 0.2887 -0.1348 1.0065 28.648 -146.8524)">
	<stop  offset="0" style="stop-color:#F3C715"/>
	<stop  offset="0.1129" style="stop-color:#D98427"/>
	<stop  offset="0.2366" style="stop-color:#D8522A"/>
	<stop  offset="0.3656" style="stop-color:#EC1E24"/>
	<stop  offset="0.4946" style="stop-color:#E82185"/>
	<stop  offset="0.6183" style="stop-color:#A24598"/>
	<stop  offset="0.7634" style="stop-color:#5B3794"/>
	<stop  offset="0.8925" style="stop-color:#4A51A1"/>
	<stop  offset="1" style="stop-color:#378CCB"/>
</linearGradient>
<path id="XMLID_822_" class="st12" d="M213.2,404.9c0,0.1-0.1,0.2-0.1,0.3c0.1,0.2,0.2,0.3,0.3,0.4L213.2,404.9z"/>
<linearGradient id="XMLID_16_" gradientUnits="userSpaceOnUse" x1="538.6323" y1="31.3502" x2="816.9131" y2="557.9176" gradientTransform="matrix(0.9574 0.2887 -0.1348 1.0065 28.648 -146.8524)">
	<stop  offset="0" style="stop-color:#F3C715"/>
	<stop  offset="0.1129" style="stop-color:#D98427"/>
	<stop  offset="0.2366" style="stop-color:#D8522A"/>
	<stop  offset="0.3656" style="stop-color:#EC1E24"/>
	<stop  offset="0.4946" style="stop-color:#E82185"/>
	<stop  offset="0.6183" style="stop-color:#A24598"/>
	<stop  offset="0.7634" style="stop-color:#5B3794"/>
	<stop  offset="0.8925" style="stop-color:#4A51A1"/>
	<stop  offset="1" style="stop-color:#378CCB"/>
</linearGradient>
<path id="XMLID_821_" class="st13" d="M616.8,275.7c-1.7-0.9-2.5-1.6-3-2.2C613.5,274,614.1,274.8,616.8,275.7z"/>
<linearGradient id="XMLID_17_" gradientUnits="userSpaceOnUse" x1="537.9194" y1="31.7269" x2="816.2003" y2="558.2943" gradientTransform="matrix(0.9574 0.2887 -0.1348 1.0065 28.648 -146.8524)">
	<stop  offset="0" style="stop-color:#F3C715"/>
	<stop  offset="0.1129" style="stop-color:#D98427"/>
	<stop  offset="0.2366" style="stop-color:#D8522A"/>
	<stop  offset="0.3656" style="stop-color:#EC1E24"/>
	<stop  offset="0.4946" style="stop-color:#E82185"/>
	<stop  offset="0.6183" style="stop-color:#A24598"/>
	<stop  offset="0.7634" style="stop-color:#5B3794"/>
	<stop  offset="0.8925" style="stop-color:#4A51A1"/>
	<stop  offset="1" style="stop-color:#378CCB"/>
</linearGradient>
<polygon id="XMLID_820_" class="st14" points="608.9,264.4 610.7,264.9 611.9,260 "/>
<linearGradient id="XMLID_18_" gradientUnits="userSpaceOnUse" x1="460.5023" y1="72.6404" x2="738.7832" y2="599.2078" gradientTransform="matrix(0.9574 0.2887 -0.1348 1.0065 28.648 -146.8524)">
	<stop  offset="0" style="stop-color:#F3C715"/>
	<stop  offset="0.1129" style="stop-color:#D98427"/>
	<stop  offset="0.2366" style="stop-color:#D8522A"/>
	<stop  offset="0.3656" style="stop-color:#EC1E24"/>
	<stop  offset="0.4946" style="stop-color:#E82185"/>
	<stop  offset="0.6183" style="stop-color:#A24598"/>
	<stop  offset="0.7634" style="stop-color:#5B3794"/>
	<stop  offset="0.8925" style="stop-color:#4A51A1"/>
	<stop  offset="1" style="stop-color:#378CCB"/>
</linearGradient>
<path id="XMLID_819_" class="st15" d="M522,246.9c-5.2-0.2-7.5-1.7-6.3,2.2c7.6,3.6,2.8-2.4,9.6,1.2
	C527.5,249.7,519.8,247.3,522,246.9z"/>
<linearGradient id="XMLID_19_" gradientUnits="userSpaceOnUse" x1="463.655" y1="70.9743" x2="741.9359" y2="597.5417" gradientTransform="matrix(0.9574 0.2887 -0.1348 1.0065 28.648 -146.8524)">
	<stop  offset="0" style="stop-color:#F3C715"/>
	<stop  offset="0.1129" style="stop-color:#D98427"/>
	<stop  offset="0.2366" style="stop-color:#D8522A"/>
	<stop  offset="0.3656" style="stop-color:#EC1E24"/>
	<stop  offset="0.4946" style="stop-color:#E82185"/>
	<stop  offset="0.6183" style="stop-color:#A24598"/>
	<stop  offset="0.7634" style="stop-color:#5B3794"/>
	<stop  offset="0.8925" style="stop-color:#4A51A1"/>
	<stop  offset="1" style="stop-color:#378CCB"/>
</linearGradient>
<path id="XMLID_818_" class="st16" d="M522,246.9c0.8,0,1.7,0.1,2.7,0C523.2,246.8,522.5,246.8,522,246.9z"/>
<linearGradient id="XMLID_20_" gradientUnits="userSpaceOnUse" x1="236.0932" y1="191.2364" x2="514.3741" y2="717.8037" gradientTransform="matrix(0.9574 0.2887 -0.1348 1.0065 28.648 -146.8524)">
	<stop  offset="0" style="stop-color:#F3C715"/>
	<stop  offset="0.1129" style="stop-color:#D98427"/>
	<stop  offset="0.2366" style="stop-color:#D8522A"/>
	<stop  offset="0.3656" style="stop-color:#EC1E24"/>
	<stop  offset="0.4946" style="stop-color:#E82185"/>
	<stop  offset="0.6183" style="stop-color:#A24598"/>
	<stop  offset="0.7634" style="stop-color:#5B3794"/>
	<stop  offset="0.8925" style="stop-color:#4A51A1"/>
	<stop  offset="1" style="stop-color:#378CCB"/>
</linearGradient>
<path id="XMLID_817_" class="st17" d="M267.1,239.5l3-3.5l-0.6-0.6C268.5,236,268,237.2,267.1,239.5z"/>
<linearGradient id="XMLID_21_" gradientUnits="userSpaceOnUse" x1="195.0828" y1="212.9096" x2="473.3637" y2="739.477" gradientTransform="matrix(0.9574 0.2887 -0.1348 1.0065 28.648 -146.8524)">
	<stop  offset="0" style="stop-color:#F3C715"/>
	<stop  offset="0.1129" style="stop-color:#D98427"/>
	<stop  offset="0.2366" style="stop-color:#D8522A"/>
	<stop  offset="0.3656" style="stop-color:#EC1E24"/>
	<stop  offset="0.4946" style="stop-color:#E82185"/>
	<stop  offset="0.6183" style="stop-color:#A24598"/>
	<stop  offset="0.7634" style="stop-color:#5B3794"/>
	<stop  offset="0.8925" style="stop-color:#4A51A1"/>
	<stop  offset="1" style="stop-color:#378CCB"/>
</linearGradient>
<polygon id="XMLID_816_" class="st18" points="245.9,305 246.4,303.8 242.9,305.2 "/>
<linearGradient id="XMLID_22_" gradientUnits="userSpaceOnUse" x1="166.5465" y1="227.9904" x2="444.8274" y2="754.5579" gradientTransform="matrix(0.9574 0.2887 -0.1348 1.0065 28.648 -146.8524)">
	<stop  offset="0" style="stop-color:#F3C715"/>
	<stop  offset="0.1129" style="stop-color:#D98427"/>
	<stop  offset="0.2366" style="stop-color:#D8522A"/>
	<stop  offset="0.3656" style="stop-color:#EC1E24"/>
	<stop  offset="0.4946" style="stop-color:#E82185"/>
	<stop  offset="0.6183" style="stop-color:#A24598"/>
	<stop  offset="0.7634" style="stop-color:#5B3794"/>
	<stop  offset="0.8925" style="stop-color:#4A51A1"/>
	<stop  offset="1" style="stop-color:#378CCB"/>
</linearGradient>
<path id="XMLID_815_" class="st19" d="M231.2,364.5c0.7-1.8,1-4,1.5-6C231.1,362.6,227.9,364.2,231.2,364.5z"/>
<linearGradient id="XMLID_23_" gradientUnits="userSpaceOnUse" x1="169.1094" y1="226.636" x2="447.3903" y2="753.2034" gradientTransform="matrix(0.9574 0.2887 -0.1348 1.0065 28.648 -146.8524)">
	<stop  offset="0" style="stop-color:#F3C715"/>
	<stop  offset="0.1129" style="stop-color:#D98427"/>
	<stop  offset="0.2366" style="stop-color:#D8522A"/>
	<stop  offset="0.3656" style="stop-color:#EC1E24"/>
	<stop  offset="0.4946" style="stop-color:#E82185"/>
	<stop  offset="0.6183" style="stop-color:#A24598"/>
	<stop  offset="0.7634" style="stop-color:#5B3794"/>
	<stop  offset="0.8925" style="stop-color:#4A51A1"/>
	<stop  offset="1" style="stop-color:#378CCB"/>
</linearGradient>
<path id="XMLID_814_" class="st20" d="M233.1,356.8c-0.2,0.5-0.4,1.1-0.5,1.7C232.8,358,233,357.4,233.1,356.8z"/>
<linearGradient id="XMLID_24_" gradientUnits="userSpaceOnUse" x1="166.9983" y1="227.7517" x2="445.2791" y2="754.3191" gradientTransform="matrix(0.9574 0.2887 -0.1348 1.0065 28.648 -146.8524)">
	<stop  offset="0" style="stop-color:#F3C715"/>
	<stop  offset="0.1129" style="stop-color:#D98427"/>
	<stop  offset="0.2366" style="stop-color:#D8522A"/>
	<stop  offset="0.3656" style="stop-color:#EC1E24"/>
	<stop  offset="0.4946" style="stop-color:#E82185"/>
	<stop  offset="0.6183" style="stop-color:#A24598"/>
	<stop  offset="0.7634" style="stop-color:#5B3794"/>
	<stop  offset="0.8925" style="stop-color:#4A51A1"/>
	<stop  offset="1" style="stop-color:#378CCB"/>
</linearGradient>
<path id="XMLID_257_" class="st21" d="M311,608.5c-0.1-0.2-0.2-0.3-0.3-0.4C310.7,608.2,310.8,608.3,311,608.5z"/>
<linearGradient id="XMLID_27_" gradientUnits="userSpaceOnUse" x1="201.6387" y1="209.4449" x2="479.9196" y2="736.0123" gradientTransform="matrix(0.9574 0.2887 -0.1348 1.0065 28.648 -146.8524)">
	<stop  offset="0" style="stop-color:#F3C715"/>
	<stop  offset="0.1129" style="stop-color:#D98427"/>
	<stop  offset="0.2366" style="stop-color:#D8522A"/>
	<stop  offset="0.3656" style="stop-color:#EC1E24"/>
	<stop  offset="0.4946" style="stop-color:#E82185"/>
	<stop  offset="0.6183" style="stop-color:#A24598"/>
	<stop  offset="0.7634" style="stop-color:#5B3794"/>
	<stop  offset="0.8925" style="stop-color:#4A51A1"/>
	<stop  offset="1" style="stop-color:#378CCB"/>
</linearGradient>
<path id="XMLID_256_" class="st22" d="M247.1,288.8l-0.3,1C247,289.4,247.1,289.1,247.1,288.8z"/>
<linearGradient id="XMLID_29_" gradientUnits="userSpaceOnUse" x1="67.4203" y1="280.3768" x2="345.7011" y2="806.9442" gradientTransform="matrix(0.9574 0.2887 -0.1348 1.0065 28.648 -146.8524)">
	<stop  offset="0" style="stop-color:#F3C715"/>
	<stop  offset="0.1129" style="stop-color:#D98427"/>
	<stop  offset="0.2366" style="stop-color:#D8522A"/>
	<stop  offset="0.3656" style="stop-color:#EC1E24"/>
	<stop  offset="0.4946" style="stop-color:#E82185"/>
	<stop  offset="0.6183" style="stop-color:#A24598"/>
	<stop  offset="0.7634" style="stop-color:#5B3794"/>
	<stop  offset="0.8925" style="stop-color:#4A51A1"/>
	<stop  offset="1" style="stop-color:#378CCB"/>
</linearGradient>
<path id="XMLID_255_" class="st23" d="M175.1,527.7c-0.1,0.3-0.2,0.6-0.2,0.9C174.9,528.2,175,527.9,175.1,527.7z"/>
<linearGradient id="XMLID_30_" gradientUnits="userSpaceOnUse" x1="231.1109" y1="193.8694" x2="509.3918" y2="720.4368" gradientTransform="matrix(0.9574 0.2887 -0.1348 1.0065 28.648 -146.8524)">
	<stop  offset="0" style="stop-color:#F3C715"/>
	<stop  offset="0.1129" style="stop-color:#D98427"/>
	<stop  offset="0.2366" style="stop-color:#D8522A"/>
	<stop  offset="0.3656" style="stop-color:#EC1E24"/>
	<stop  offset="0.4946" style="stop-color:#E82185"/>
	<stop  offset="0.6183" style="stop-color:#A24598"/>
	<stop  offset="0.7634" style="stop-color:#5B3794"/>
	<stop  offset="0.8925" style="stop-color:#4A51A1"/>
	<stop  offset="1" style="stop-color:#378CCB"/>
</linearGradient>
<path id="XMLID_254_" class="st24" d="M381.1,605.5l-0.5-0.2C380.7,605.3,380.9,605.4,381.1,605.5z"/>
<linearGradient id="XMLID_32_" gradientUnits="userSpaceOnUse" x1="347.1947" y1="154.444" x2="605.7795" y2="643.7421">
	<stop  offset="0" style="stop-color:#F3C715"/>
	<stop  offset="0.1129" style="stop-color:#D98427"/>
	<stop  offset="0.2366" style="stop-color:#D8522A"/>
	<stop  offset="0.3656" style="stop-color:#EC1E24"/>
	<stop  offset="0.4946" style="stop-color:#E82185"/>
	<stop  offset="0.6183" style="stop-color:#A24598"/>
	<stop  offset="0.7634" style="stop-color:#5B3794"/>
	<stop  offset="0.8925" style="stop-color:#4A51A1"/>
	<stop  offset="1" style="stop-color:#378CCB"/>
</linearGradient>
<path id="XMLID_452_" class="st25" d="M561.8,571l2.1-17.8l-2.2,1l-2.2,3.4C563,557.9,559,570.8,561.8,571z"/>
<g id="XMLID_5_">
	<path id="XMLID_25_" class="st26" d="M406.4,473.9c-1.3,1.8-2.6,3.2-4,4.4c-1.4,1.2-3.2,3-5.4,5.4c-3.8,2.8-10.2,6.7-19.2,11.9
		c-1,0.5-2.2,1.1-3.6,1.9c-3.1,1.9-6.7,3.5-10.5,4.7c-4.6,1.6-7.7,2.8-9.2,3.4c0,0.1,0.1,0.3,0.2,0.4c0.2,0,0.6-0.1,0.9-0.2
		c-2.9,1.5-4.6,2.3-5.3,2.3c-0.1,0-0.2-0.1-0.2-0.2c0-0.1-0.1-0.2-0.4-0.2c0.3,0,0,0.3-0.8,0.8l-4.5,1.1c-0.3,0-0.7,0.2-1.4,0.5
		c-0.7,0.3-1.2,0.5-1.4,0.5c-0.3,0-0.4-0.1-0.5-0.3c-0.1-0.2-0.2-0.3-0.5-0.3c-0.1,0-2,0.6-5.7,1.7c0.6-0.4,1.6-0.8,2.8-1.3
		c0-0.3-0.2-0.6-0.6-0.9c-8.5,1.8-12.9,2.6-13.2,2.6c-0.6,0-1.1-0.3-1.3-0.8c0.4-0.1,0.9-0.3,1.7-0.6c-0.3-0.3-0.7-0.4-1.3-0.4
		c-0.1,0-0.8,0.1-2,0.4c-1.2,0.3-2.1,0.4-2.7,0.4c-12.2,0.4-17.6,0.6-16.2,0.6c0.3,0-0.3-0.3-1.7-0.8c-0.8-0.1-1.8-0.4-3-0.9
		c-0.5-0.8-1.4-1.7-2.8-2.8c0-2.3,0.4-3.9,1.1-4.9c-2-1.1-3-2.3-3-3.4c0-0.1,0.2-0.5,0.6-1c0.4-0.6,0.6-1,0.6-1.2
		c0-0.4-0.7-0.9-2.1-1.7c0.4-0.1,0.9,0,1.5,0.4c0.3-0.1,0.4-0.3,0.6-0.6c0.1-0.3,0.3-0.4,0.6-0.6c0-0.1-0.3-0.4-0.9-0.9
		c0.3-0.4,0.6-0.6,0.9-0.6c-0.4,0,0.6,0.4,2.8,1.1c0.1,0,0.3-0.2,0.5-0.5c0.2-0.3,0.3-0.5,0.5-0.7c0.5,0,0.9,0.3,1.1,0.9
		c1.9-0.6,2.8-0.9,2.6-0.9c0.3,0,1.1,0.5,2.4,1.6c1.4,1.1,2.2,1.6,2.4,1.6c0.4,0,0.8-0.1,1.1-0.4c-0.8-1.1-1.8-2.7-3.2-4.7
		c0.4,0.1,1.1,0.5,2.2,1.2c1.1,0.7,1.7,1,2,1c0.1,0,0.6,0,1.5,0c0.9,0,1.5,0,1.9,0c1,0.1,1.3,0.2,0.9,0.2c1,0,1.5-0.9,1.5-2.8
		c0-0.8-1.5-1.6-4.5-2.6c1.1-0.1,2.6-0.4,4.5-0.9c0.6-0.4,1-1.2,1.2-2.4c0.2-1.3,0.5-3.1,0.8-5.7l0.9-7.2h0.4v0.2l0.6-0.4
		c-0.8-1.3-1.1-1.8-1.1-1.5c0-0.4,0.2-0.9,0.7-1.7c0.4-0.8,0.7-1.2,0.7-1.3l1.7-17.1c0.1,0,0-0.2-0.4-0.6l-0.9,3l2.4-21.3
		c0.4,0,0.6-0.1,0.8-0.4c0.1-1.9,0.4-4.7,0.8-8.5c0.3-3,0.8-7.7,1.7-14.1c-0.4-0.3-0.7-0.4-0.9-0.4c-0.5,0-1.1,0.4-1.9,1.3
		c-0.4,5.7-0.9,13.7-1.7,24.1c-0.1,1.6-1.4,10.2-3.8,25.8c-0.1-0.1-0.3-0.5-0.6-1.1c-0.3,0.4-0.5,1.1-0.8,2.3l-0.6,0.2V459
		c-0.1-1,0.9-8,3.2-20.9c1-6,1.8-14.7,2.4-26l-0.2-0.9c0.5-2.5,0.8-4,0.8-4.5c0-0.4-0.2-0.9-0.6-1.5c-1,1.1-1.8,1.7-2.3,1.7
		c-0.3,0-0.4-0.1-0.6-0.3c-0.1-0.2-0.3-0.3-0.4-0.3c-2.3,0-3.3,0.1-3,0.2c0.6,0,1.4-0.1,2.3-0.4c-0.1-0.6-0.5-0.9-1.1-0.9
		c0-0.5,0.3-0.9,0.8-1.3c-0.1,0.4-0.1,0.8,0.2,1.3c0.1-0.1,0.2-0.4,0.2-0.8c0.6,0,1.4-0.6,2.4-1.7c-0.4-0.5-0.9-0.8-1.7-0.8
		c0.1,0-0.2,0.3-0.9,0.8c-0.1,0.1-0.8,0.3-1.9,0.6c-0.6,0.8-1.5,1.9-2.6,3.4c-0.5,0.1-1.1,0.4-1.9,0.8c-0.9-0.1-1.4-1.6-1.7-4.5
		c1.3-0.4,3.2-0.9,5.8-1.7c0.6-0.3,0.9-0.7,0.9-1.3c0-1.3-0.4-1.9-1.1-1.9c-0.3,0-0.4,0.1-0.6,0.4c-0.4-0.3-0.6-0.6-0.6-0.9
		c0-0.3,0.2-0.6,0.5-1.1c0.3-0.5,0.6-0.7,0.8-0.7c0.2,0.1,1-0.5,2.4-1.6c1-0.3,1.8-0.6,2.3-1.1c2.9-2.8,6.7-5.7,11.5-8.7
		c2.5-1,6-2.4,10.5-4.3c6.7-2.8,13.8-4.1,21.5-4.1c3.3,0,6.5,0.5,9.6,1.5c6.5,2,11.3,4.4,14.3,7.2c-1.3-0.8-1.8-1.1-1.7-1.1
		c-0.4,0-0.6,0.3-0.6,0.9c-8.9-5-16.4-7.3-22.6-6.8c-0.1,0-0.3-0.1-0.5-0.3c-0.2-0.2-0.5-0.3-0.8-0.3c0.1,0-0.3,0.1-1.1,0.2
		c-0.9,0.1-1.8,0.2-2.6,0.2c-0.4,0-0.8,0.1-1.4,0.3c-0.6,0.2-1,0.3-1.2,0.3c-7.3,1-13,2.8-17.1,5.5c0,0.3,0.1,0.4,0.2,0.4
		c0.3,0,1.6-0.5,4-1.4c2.4-0.9,3.6-1.4,3.8-1.4h0.4c-0.1,0.1-0.1,0.2,0.2,0.2c-0.6,0,1.1-0.5,5.3-1.5c2.1-0.5,5-0.8,8.5-0.8
		c4.5,0,9.2,0.8,14.1,2.4c4.1,1.5,8.3,3.6,12.4,6.2c5,3.4,8.1,6.7,9.2,9.8c0.6,0.4,1.3,0.9,1.9,1.7c0.5,1.3,1.2,3.2,2.1,5.8
		c0,0.8,0.1,1.9,0.3,3.5c0.2,1.6,0.3,2,0.3,1.4c0,0.1-0.1,0.6-0.4,1.3c0.3,4.8-4.9,11.2-15.4,19.2c1.1,0.5,2.9,1.3,5.3,2.3
		c0.3,0.1,0.9,0.8,2.1,1.9c0.3,0.1,0.8,0.2,1.7,0.2c0,0.5-0.1,0.8-0.2,0.9c0.6,0.5,1.5,1.3,2.6,2.3c1.3,0.5,2.8,1.6,4.7,3.2
		c1.5,2.4,2.6,4.3,3.4,5.7c1.5,2.5,2.4,4.6,2.6,6.2c0.5,2.6,0.8,4.3,0.8,5.1c0,0.6-0.1,1.4-0.4,2.2c-0.3,0.8-0.6,1.9-0.9,3.3
		c-0.1,0.9-0.3,2.2-0.6,4c-0.6,1.3-1.6,3.2-2.8,5.8c-0.3,0-0.8,0.6-1.7,1.9c-0.5-0.1-1.4,0.6-2.8,2.1c-0.9,1-1.8,2-2.8,3
		c-1.5,1.4-3,2.3-4.5,2.6c-0.1,0.3-0.5,0.6-1.1,1.1c-0.6,0.5-2.8,1.8-6.4,4c-2.1,1.3-5.2,3.1-9.2,5.5c-1.6,0.8-3.8,1.7-6.4,2.8
		c-0.1,0-0.6,0.4-1.3,1.1v1.1c2-0.8,4.5-1.9,7.3-3.6c4.1-2.4,6.5-3.6,7-3.6c0.3,0,0.4,0.1,0.4,0.3c0,0.2,0.1,0.3,0.2,0.3
		c0.4,0,2.8-1.4,7.3-4.3c-0.3,0-0.1,0.3,0.6,0.9c2.1-1.8,3.9-3,5.2-3.8S398.7,480.3,406.4,473.9z M300.9,506.8
		c-0.4-0.1-0.9-0.3-1.5-0.6v0.4l0.2,0.6L300.9,506.8z M308.1,462.4c-0.5,0.5-0.9,0.8-1.3,0.8c-1.3,0-2.5-1.3-3.8-3.8
		c-1-2-1.5-3.4-1.5-4.1c0-1.3,0.7-2.2,2.1-2.8l2.3,0.4c-0.6,0-1.4,0.2-2.2,0.7c-0.8,0.4-1.2,1.1-1.2,2c0,1.6,0.9,3.5,2.8,5.5
		C305.8,461.4,306.7,461.9,308.1,462.4z M309.4,413.8c0,1.8-1.3,2.6-3.8,2.6c-1.3,0-2.1-0.1-2.6-0.4c-0.8-1.4-1.1-1.9-1.1-1.7
		c0-0.8,0.4-1.6,1.1-2.6c0.8-1,1.8-1.5,3.2-1.5C308.3,410.2,309.4,411.4,309.4,413.8z M336,513c0,1.1-1.6,2.3-4.8,3.5
		c-3.2,1.2-5.2,1.8-5.9,1.8h-1.1c-1.3,0-1.9-0.6-1.9-1.7c0-0.8,0.6-1.6,1.9-2.6c0-0.1-0.3-0.2-0.8-0.2c-3.4,0-6.5,0.3-9.2,0.9
		c-0.6,0.4-1.5,0.9-2.7,1.5c-1.2,0.6-2.4,0.9-3.5,0.9c-1.5,0-2.4,0-2.6,0c-1.9-0.4-2.4-0.6-1.7-0.6c-0.1-0.5-0.3-1.5-0.6-3
		c1.5,0,5.2,0,11.1,0c0.3,0,0.5-0.1,0.8-0.3c0.3-0.2,0.5-0.3,0.8-0.3c0.1,0,0.3,0.1,0.5,0.3c0.2,0.2,0.4,0.3,0.7,0.3
		c0.1,0,0.6-0.1,1.3-0.2c0.8-0.1,1.4-0.2,2.1-0.2l6.2-0.2c-0.6,0.6-1.6,1.6-2.8,3c0,0.1,0.2,0.3,0.5,0.6c0.3,0.3,0.7,0.4,1.2,0.4
		h1.5l0.6-0.6c1.5-0.4,3.1-0.8,4.8-1.4s2.9-1.4,3.5-2.5C335.8,512.5,336,512.7,336,513z M307.7,399.5h-1.5c-0.1-0.4-0.4-0.8-0.8-1.3
		l0.8-0.8C307.3,398,307.8,398.7,307.7,399.5z M314.3,400l-0.9,0.6l-0.4-0.4l1.1-0.6L314.3,400z M319.4,411.3c-1.1,1-2,1.5-2.6,1.5
		c-0.3,0-0.4-0.1-0.4-0.2c0-0.1-0.1-0.2-0.2-0.2c-0.3,0-0.5,0.1-0.8,0.4c-0.3,0.3-0.5,0.4-0.8,0.4h-1.3v-0.9
		c0.3-0.6,0.9-1.8,1.9-3.4c0.1,0,0.4,0,0.9,0C317.9,408.9,319,409.7,319.4,411.3z M316.6,459l-0.8,4.7h-0.4l0.8-4.7H316.6z
		 M316.9,455.6h-0.6l-0.2,1.3h0.4L316.9,455.6z M317.1,454.5l-0.4-0.2l-0.4,0.8l0.4,0.2L317.1,454.5z M319.8,452.4l-0.6,3h-0.6
		l0.6-3H319.8z M320.9,447.9v-0.8h-0.6v0.8H320.9z M321.5,444.5v-1.1h-0.6v1.1H321.5z M322,438.8v-1.3h-0.6v1.3H322z M322.2,437.3
		v-1.9h-0.4v1.9H322.2z M347.6,505.1c-0.1-0.1-0.3-0.3-0.7-0.7c-0.3-0.3-0.5-0.6-0.5-0.8l-20.9,6.4v0.4c3.1-0.1,4.8-0.2,5-0.2
		c0.2,0,1.9-0.4,5-1.3c0.9-0.3,1.6-0.6,2.1-0.9l0.8,0.6l-0.6,0.8c1.9-0.9,5.1-1.9,9.6-3.2C347.1,506.1,347.1,505.8,347.6,505.1z
		 M338,494.6l-0.2-0.4l-0.6,0.4v0.4L338,494.6z M338.6,521.7c-0.5,0-0.9,0.1-1.1,0.4c0-0.8,0.3-1.1,0.8-1.1
		C338.5,521.3,338.6,521.6,338.6,521.7z M393.2,455.8c-0.1,0-0.3,0.1-0.4,0.2c-0.1,0.1-0.3,0.2-0.6,0.2c-0.3,0-0.5-0.2-0.7-0.5
		c-0.2-0.3-0.4-0.5-0.7-0.5c-0.3,0-0.3,0.1-0.2,0.2h-0.4c-0.6,0-1-0.8-1.1-2.4c-2.3-3.1-6.4-5.1-12.4-5.8c0.3,0.4,0.6,0.9,0.9,1.5
		c0.1,0,0.3-0.1,0.6-0.2c0,0.1,0.1,0.2,0.4,0.3c0.3,0.1,0.4,0.2,0.4,0.5c0,1.1-0.9,1.7-2.6,1.7c-0.1,0-0.4-0.1-0.8-0.3
		c-0.4-0.2-0.8-0.3-1-0.3c-4.3-0.5-8.1-0.8-11.5-0.8c-0.3,0-2.5,0.5-6.7,1.4c-4.2,0.9-6.4,1.4-6.6,1.4c-0.2,0-1.1,0.1-2.7,0.3
		c-1.6,0.2-2.6,0.3-2.8,0.3c-0.5,0-0.9-0.3-1.3-0.8c0.4-0.4,0.7-0.7,0.9-0.9c2-0.3,3.4-0.4,4.2-0.4c0.8,0,1.4-0.3,1.8-0.9h-2.3
		c-0.3,0-0.8,0.1-1.7,0.4c-0.9,0.3-1.4,0.4-1.5,0.4c-1.6,0-2.8-0.1-3.6-0.2c-1.4,10.3-2.3,18.9-2.6,25.8c0-0.4,0.1,0.1,0.2,1.3
		c-0.5,3.4-0.7,6.2-0.6,8.3v2.1c2.8-1.1,4.2-1.7,4.3-1.7c0.3,0,0.3,0.1,0.3,0.2c-0.1,0.1,0,0.2,0.3,0.2c0.3,0,0.7,0.1,1.2,0.3
		c0.6,0.2,1,0.3,1.2,0.3c0.1,0,1.1-0.4,2.8-1.3c0.6-1.4,1.3-2.1,2.1-2.1c0.3,0,0.5,0.1,0.8,0.3c0.3,0.2,0.6,0.3,0.8,0.3
		c-0.5,0,2.9-1.4,10.4-4.1c3.1-1.4,7.9-3.5,14.3-6.2c0.1-0.1,0.3-0.4,0.4-0.9l-20.9,8.5h-1.7c-0.6,0-0.9-0.3-0.9-0.9
		c7-2.8,17.4-7,31.1-12.8c3.9-1.8,5.7-3.3,5.5-4.7c-0.3,0-0.5-0.1-0.8-0.4c0.8-0.9,1.8-2.1,3.2-3.6
		C392.5,458.3,392.8,457.2,393.2,455.8z M340.3,494v-0.4h-0.8v0.4H340.3z M341.2,493.5l-0.2-0.4l-0.8,0.4v0.4L341.2,493.5z
		 M349,490.8c0-0.1-0.1-0.3-0.2-0.6c-0.6,0.4-2.8,1.2-6.4,2.4C343.6,492.5,345.8,491.8,349,490.8z M384.4,406.8
		c0-0.9-0.7-2.3-2.1-4.1c0-0.1-0.9-0.8-2.8-2.1c0,0.3-0.3,0.6-0.8,1.1c-0.4-0.8-1.9-1.8-4.7-3.3c-2.8-1.4-4.5-2.2-5.1-2.2h-1.3
		c0,0.1,0.3,0.4,0.8,0.9c-0.3,0-0.6-0.1-1.1-0.3c-0.5-0.2-0.8-0.3-0.9-0.3c-0.3,0-0.4,0.1-0.6,0.2h-0.4c-0.3,0-0.5-0.1-0.7-0.4
		c-0.2-0.3-0.4-0.4-0.7-0.4c-2.9,0-7.3,0.6-13.2,1.7c-0.9,0.3-3.1,1.1-6.6,2.6v0.8c0,0.3,0.2,1.6,0.6,4c0.4,2.4,0.6,3.7,0.6,4
		l-1.9,17.5h3.2c0.3,0,1.6-0.3,4-0.9c2.4-0.6,3.7-0.9,4-0.9c0.2,0,0.3,0.1,0.3,0.3c-0.1,0.2,0,0.3,0.3,0.3c1.1,0,1.6-0.1,1.5-0.2
		c-2,1.3-4.3,2.2-7,2.8c-2.1,0.5-4.3,1.1-6.6,1.7c0,0.1,0.1,0.4,0.4,0.8c0.1,0,0.4-0.1,0.8-0.2c0.4-0.1,0.7-0.2,0.8-0.2
		c0.3,0,0.6,0.1,1,0.3c0.4,0.2,0.7,0.3,0.8,0.3c-0.5,0,1-0.3,4.5-0.9c4.1-0.9,9.5-2.8,16-5.7c0.9-0.4,3.2-1.8,7-4.1
		c3.4-2.4,6-4.7,7.7-7c0.6-0.8,1-1.6,1.1-2.4c0.1-0.5,0.2-1.2,0.2-2.1c0.1-0.3,0.3-0.5,0.5-0.8C384.3,407.2,384.4,407,384.4,406.8z
		 M348.2,407.2l-0.2,0.2l-0.4-0.4l0.2-0.2L348.2,407.2z M353.1,426l-0.2-0.4l-0.8,0.4v0.4L353.1,426z M356.9,487.6
		c-0.6,0-1.6,0.1-2.8,0.4c0,0.3-0.3,0.6-0.9,1.1C354.2,489,355.5,488.5,356.9,487.6z M361,485.7c-0.4,0.3-0.9,0.6-1.5,0.9h0.9
		c0.3,0,0.5-0.1,0.8-0.4C361.3,485.9,361.3,485.7,361,485.7z M364,484.2v-0.6h-0.9v0.6H364z M368.7,482.7c-1.1,0.3-2.5,0.6-4.1,1.1
		c0-0.1,0.3,0.1,0.9,0.8C366.9,484,368,483.4,368.7,482.7z M369.7,490.3h-0.9c-0.4,0.1-1.6,0.8-3.8,2.1h1.5c0.3,0,0.5-0.2,0.8-0.5
		c0.3-0.3,0.5-0.5,0.7-0.5c0.2,0,0.3,0.1,0.3,0.2c-0.1,0.1,0,0.2,0.3,0.2C369.3,491.8,369.7,491.3,369.7,490.3z M370,398l-0.2,0.4
		l-1.3-0.6l0.2-0.4L370,398z M376.5,428.5c-0.5-0.3-1.5-0.4-3-0.4l2.1,1.1C375.6,429.2,375.9,429,376.5,428.5z M379.1,426.8
		c-0.6-0.3-1.3-0.4-2.1-0.4c0.6,0-0.1,0.3-2.3,0.8c0.9,0.6,1.6,0.9,2.3,0.9C376.6,428.1,377.3,427.7,379.1,426.8z M375.7,447.1v-0.6
		h-0.8v0.6H375.7z M377,487.8v-0.4h-0.8v0.4H377z M378.7,472.6H378c-0.3,0-0.4,0.1-0.5,0.3c-0.1,0.2-0.2,0.3-0.3,0.3
		C377.8,473.1,378.3,472.9,378.7,472.6z M379.3,486.9v-1.1c-0.6,0.3-1.3,0.5-2.1,0.8C378.1,486.5,378.8,486.6,379.3,486.9z
		 M385.9,420.8l-1.5-0.4c-0.8,0.8-1.9,1.8-3.6,3c-0.6,0.5-1.6,1.1-2.8,1.7c-0.1,0.5-0.2,0.8-0.2,0.9c0.6,0.3,1.1,0.4,1.3,0.4
		c0.4,0,1.5-0.8,3.4-2.4C384.4,422.3,385.5,421.3,385.9,420.8z M380.8,429.4l-0.2-0.4l-0.6,0.4v0.4L380.8,429.4z M382.9,427.7
		l-0.4-0.4l-0.9,0.9l0.4,0.4L382.9,427.7z M383.8,483.1h-0.9c-0.3,0.1-0.6,0.4-1.1,0.9C382.6,484,383.3,483.7,383.8,483.1z
		 M383,401.4l-0.9-0.6l-0.2,0.4l0.9,0.6L383,401.4z M395.9,413.2c0-0.4-0.3-1.3-0.8-2.6c-0.4,1.5-1.6,4-3.6,7.3
		c0.2,0.3,0.4,0.5,0.4,0.8l-0.6-0.2l-0.6,0.6c-0.3,1-1.3,2.4-3.2,4.1c-1.4,1.3-2.8,2.6-4.3,4c1.1-0.5,2.4-1.3,4-2.3
		c1.8-1.8,3.5-3.5,5.3-5.3C394.7,417.1,395.9,415,395.9,413.2z M393.2,460.5c0-0.3-0.1-0.6-0.4-0.9c-0.1,0.1-0.6,0.6-1.4,1.5
		c-0.8,0.9-1.2,1.4-1.2,1.7v1.5C391.3,464.3,392.3,463,393.2,460.5z M392.5,401c-1.6-0.8-2.2-1.1-1.7-1.1v1.1
		c0.8,0.9,1.2,1.3,1.3,1.3L392.5,401z M391.9,409.1h-0.4l-0.4,0.9l0.4,0.2L391.9,409.1z"/>
	<path id="XMLID_222_" class="st26" d="M414.5,394c-0.6,0.4-1.7,0.9-3.2,1.7c-1,0.6-1.8,1.3-2.4,1.9c-0.6,0.6-1.2,0.9-1.8,0.9
		c-0.6,0-1.1-0.1-1.5-0.4v-0.9c0.5-0.5,1.3-1.3,2.4-2.3c0.8-0.5,1.4-0.8,2.1-0.8c0.3,0,0.4,0.1,0.5,0.2c0.1,0.1,0.2,0.2,0.5,0.2
		c0.6,0,1.6-0.4,3-1.3C414.4,393.3,414.5,393.5,414.5,394z M413,389.1c0,0.3-0.2,0.7-0.5,1.2c-0.3,0.6-0.5,1-0.5,1.2h-1.1
		c-0.3,0-0.4-0.1-0.6-0.4c-0.1-0.2-0.3-0.4-0.6-0.4h-0.4c-0.1,0.1-0.3,0.2-0.6,0.2c-0.8,0-1.4-0.6-1.9-1.7c0-2.3,0.9-3.4,2.6-3.4
		c0.6,0,1.3,0.4,2.2,1.1C412.6,387.8,413,388.5,413,389.1z M535.2,488.4c-0.1,0.3-0.4,0.6-0.8,0.9c-0.4,0.4-0.9,0.9-1.7,1.7
		c0.5,0.6,1.1,0.9,1.9,0.8c-0.1,0.5-0.4,0.8-0.9,0.8c-0.5,0.1-0.9,0.2-1.3,0.3c-0.5,0.9-1.2,1.4-2.1,1.7c-1.4,0.5-2.2,0.9-2.4,1.1
		c0.6,0.6,1.1,0.9,1.5,0.9c0.3,0,0.5-0.1,0.7-0.2c0.2-0.1,0.3-0.2,0.5-0.2c0.3,0.4,0.4,0.6,0.4,0.8c-1,0.1-2.3,0.7-4,1.7
		c-2.5-0.4-5.5,0.4-8.9,2.4v1.1c0.4,0.4,0.6,0.6,0.8,0.6c0.1,0,0.4-0.2,0.8-0.6c0.1,0.1,0.4,0.4,0.9,0.9c0.1-0.1,0.3-0.4,0.4-0.9
		c1.9-0.4,2.4-0.6,1.7-0.6h2.1c0.1,0.4,0.2,0.9,0.2,1.7c0,1.9-1,2.8-3,2.8c-0.3,0-0.8-0.2-1.6-0.6c-0.8-0.4-1.4-0.6-1.6-0.6
		c-0.8,0-2.8,0.6-6.2,1.9c0,0.3,0,0.7,0,1.3c-1.9,1-3.1,1.5-3.6,1.5c-0.1,0-0.6,0-1.3,0c-0.6-0.1-1.1-0.2-1.5-0.2
		c-0.8,0-1.9,0.1-3.5,0.2c-1.6,0.1-2.4,0.2-2.5,0.2h-3.4c0.4,0.3,0.8,0.4,1.3,0.4c-0.3,0-0.6,0-1,0c-0.4,0-0.8,0-1,0
		c-0.5,0-0.9,0.1-1.1,0.4c1.3,0.6,5.3,0.9,12.1,0.9c3.3,0,5.4-0.4,6.4-1.1l1.7,0.4c-2.4,0.8-4.5,1.3-6.2,1.5
		c-2.5,0-6.3,0.1-11.3,0.4c0,0.3-0.2,0.4-0.6,0.4c-0.3,0-0.4-0.1-0.4-0.3c0-0.2-0.1-0.3-0.4-0.3c-0.3,0-0.3,0.1-0.3,0.3
		c0.1,0.2,0,0.3-0.3,0.3c-0.3,0-0.4-0.2-0.6-0.6c-2-0.4-4.6-1.2-7.9-2.4c-2.5-1.8-4.2-2.6-5.1-2.6c-0.3,0-0.3,0.1-0.3,0.2
		c0.1,0.1,0,0.2-0.3,0.2c-0.1,0-0.2-0.1-0.2-0.2c0-0.1-0.1-0.2-0.4-0.2c-0.6,0-3.5-1.8-8.7-5.3c-7-4.9-12.4-11.2-16.2-19
		c-0.6-0.8-1.4-1.9-2.4-3.4c-0.9-1.5-3.9-7-8.8-16.4c-0.4,0.4-0.6,0.6-0.8,0.6c-0.3,0-0.4-0.1-0.4-0.2c0-0.1-0.1-0.2-0.4-0.2
		c-1.6,0-2.5,1.1-2.6,3.4c-0.1,1.6-0.2,3.3-0.2,4.9c-0.1,0-0.4,0.1-0.8,0.4c0,0.3,0.2,0.6,0.6,0.9c-0.3,0.3-0.7,0.7-1.3,1.3
		c0,0.8-0.1,2-0.3,3.8c-0.2,1.8-0.3,3.1-0.3,4c-0.4-0.1-0.8-0.1-1.3,0.2c0,0.4,0.4,0.8,1.3,1.1v1.5c-0.3,0.4-0.7,0.4-1.3,0.2
		l-0.2,0.2v0.8c0.4,0.3,0.8,0.4,1.3,0.4c0.3,0.9,0.1,2-0.6,3.4c0.5,0.1,0.8,0.6,0.9,1.3c0,1.1,0.1,1.9,0.4,2.4
		c-0.3,0.3-0.7,0.6-1.3,1.1c0,1.1,0.3,1.8,0.8,2.1c-0.1-0.1-0.3,0.1-0.6,0.8c0,0.1,0.1,0.3,0.2,0.6c-0.4,0.5-0.6,1.2-0.6,2.1
		c-0.5,16.3-0.8,23.7-0.8,22.2c-0.1-2-0.4-4.9-0.8-8.7c0.4-1.1,0.6-2.4,0.6-3.8v-1.1c-0.1-0.1-0.3-0.2-0.6-0.2
		c-0.1,0.1,0,0.4,0.4,0.8c-0.3,0.1-0.8,0.2-1.5,0.2c0,1.4-0.1,3.6-0.2,6.6c-0.1,0.9-0.4,1.8-0.8,2.6c-0.4,0.9-0.4,1.7-0.2,2.4
		c-0.3,1.3-0.7,3.2-1.3,5.8c0-1.5-0.3-2.6-0.8-3.2l0.2-0.6c-0.4-0.5-0.6-1-0.6-1.5l-1.3-28.8c-0.4-0.4-0.6-0.6-0.8-0.6l-0.8,32.6
		h-0.9c0.1-0.1,0.2-0.4,0.2-0.8c0,0.8-0.4-0.1-1.3-2.4c0-1-0.1-1.9-0.2-2.8c-0.3-1.6-1-2.6-2.3-2.8v-1.9c-0.3-0.4-0.4-0.6-0.6-0.6
		c-0.3,0.8-0.3,1.5-0.2,2.3c-1,1.5-0.9,3.1,0.2,4.7v4.7c-0.3-1-0.8-2.1-1.7-3.2c-0.8,0.3-1.1,0.8-1.1,1.7c0.1,1.6,0.2,2.6,0.2,3
		c-0.1,0-0.3,0.1-0.7,0.2c-0.3,0.1-0.5,0.2-0.7,0.2c0-0.5-0.3-1.3-0.8-2.4l-1.5-20.7c-0.3-0.4-0.4-0.6-0.6-0.6
		c-0.3,1.3-0.4,2.3-0.4,3v8.9c0,2.8-0.1,4.4-0.2,4.9c0-0.5-0.3-1.2-0.8-2.1c0.1-1.3,0.1-2.4-0.2-3.4c0-0.4-0.2-0.8-0.6-1.1
		c0-2.8-0.2-7.7-0.6-14.9c-0.4-7.2-0.6-10.7-0.6-10.5l0.9-18.3h0.6l1.3-18.8c0-0.1,0.1-0.8,0.4-2.1c0.3-1.3,0.4-2.1,0.6-2.4
		c0.1-2.8,0.5-6.8,1.1-12.2c0.3-0.4,0.5-0.9,0.8-1.5c-0.1-0.3-0.2-0.6-0.2-1.1c0.1-0.1,0.3-0.3,0.4-0.6c0.4-2.5,1-5.9,1.8-10.3
		c0.8-4.3,1.8-8.3,2.9-12c-2.4-0.1-4.3,0.1-5.7,0.8c-0.9,0.6-2.5,1.8-4.9,3.6c-0.3,0-0.7,0.1-1.3,0.4c-0.1,0-0.3,0.3-0.4,0.8
		c-0.6,0.8-1.3,1.1-2.1,1.1c0.4,0-0.3-0.4-1.9-1.1v-2.1c0-1.1,1.6-2.3,4.7-3.6c0.1,0,0.3,0.1,0.4,0.2c0.1,0,0.3,0,0.6,0
		c0.1,0,0.4-0.2,0.8-0.5c0.4-0.3,0.7-0.5,0.9-0.5c0.3,0,0.3,0,0.2,0c0,0.1,0.1,0.2,0.4,0.2c0.5,0,1.2-0.3,2.1-0.9
		c-0.6-0.4-1.8-0.8-3.6-1.3c-0.3-0.3-0.6-0.6-0.9-1.1c1.1-0.3,2.8-0.8,4.9-1.5c-0.3-0.4-2.1-1.1-5.7-2.3c2,0.3,5-0.8,9-3
		c0.4-0.3,0.4-0.4,0-0.4c-0.5,0-1.9,0.4-4.1,1.3h-0.9c-0.1-0.5-0.2-0.8-0.2-0.9c1.3-0.9,3.8-2.1,7.5-3.6c3.3-1.1,5.6-2.5,7-4.1
		c-0.9-0.3-2,0-3.4,0.8c-2,1.1-3.1,1.7-3.4,1.7h-1.1v-0.8c0.1,0,0.6-0.3,1.3-0.8c0-0.1,0.1-0.4,0.2-0.8c3.3-1.9,5.8-3.2,7.7-4
		c0.9-0.1,1.8-0.8,2.8-1.9c1.1-0.3,2.4-0.6,3.8-1c1.4-0.4,2.4-1.5,3-3.3c0,0.1-0.1,0.4-0.2,0.9c0,0.5,0,0.9,0,1.3
		c0.9-0.3,3.3-0.8,7.3-1.7c0.6,0,1.5-0.2,2.5-0.5c1.1-0.3,3.4-0.5,7.1-0.5c0.8,0,1.8,0.1,3.1,0.4c1.3,0.3,4.7,1.1,10.3,2.5
		c2.9,0.8,4.2,1.1,4,1.1h0.2c0-0.1,0.1-0.2,0.2-0.2c0.5,0,2.1,0.9,4.9,2.6c8.5,5.1,13.9,12.4,16,21.7c0.9,3.4,1.3,5.9,1.3,7.5v7.7
		c-0.3,0.6-0.7,1.5-1.3,2.6c-1.8,2.8-2.6,4.8-2.6,6c0.5-0.3,1-0.8,1.4-1.7c0.4-0.9,1-1.3,1.6-1.3h1.1v0.9c0,0.3-0.9,1.7-2.6,4.3
		c-0.8,1.4-1.9,3.3-3.6,5.7c-7.5,8.3-13.5,13.6-17.9,16c0.6-0.8,3.6-3.8,8.9-9c-0.1,0-0.3,0-0.6,0c-0.1,0-0.5,0.1-1.1,0.2
		c-2.3,2.6-3.8,4-4.7,4c-0.3,0-0.4-0.1-0.4-0.2c0-0.1-0.1-0.2-0.4-0.2c-0.4,0-1.3,0.7-2.6,2.1c-1.4,1.4-2.1,2.2-2.1,2.4
		c0-0.3,0.2,0.2,0.6,1.3c2.3,5.9,4.6,10.4,7.2,13.6c3.1,3.8,6.3,6.6,9.4,8.5c0.4,0.3,3.7,1.7,10,4.3c-0.4,0.3-0.7,0.5-0.9,0.8
		c-0.1-0.1-0.3-0.2-0.4-0.2c-0.1,0.1-0.2,0.3-0.3,0.4c-0.1,0.1-0.2,0.3-0.3,0.4c0.4,0.4,1.1,0.9,2.1,1.7c2.4,0.9,4.2,1.3,5.5,1.3
		c0.3,0,1,0.1,2.3,0.3c1.3,0.2,2,0.3,2.3,0.3c0.8,0,1.6-0.3,2.4-0.9c-0.6-0.3-1.3-0.4-2.1-0.4c-0.3,0-0.6,0-1.1,0
		c-0.5,0.1-0.9,0.2-1.1,0.2c-0.1,0-0.6-0.3-1.5-0.8c1.3,0,1.9,0.1,1.9,0.2c-2-0.6-2.9-0.9-2.6-0.9c-0.4,0-0.6,0.3-0.6,0.8l-1.1-0.8
		c-0.4,0-0.9-0.1-1.7-0.2c-0.3-0.1-0.6-0.3-0.9-0.6v-0.9c0-0.1,0.2-0.2,0.6-0.2c0.3,0,0.4,0.1,0.5,0.2c0.1,0.1,0.2,0.2,0.5,0.2
		c0.1,0,0.2-0.1,0.1-0.2c-0.1-0.1,0-0.2,0.3-0.2l0.9,0.8c1.1,0.1,1.8,0.2,2,0.2c0.2,0,2.3,0.1,6.3,0.3c4,0.2,6.2,0.3,6.4,0.3
		c-0.4,0,1.9-0.3,7-0.9c0.4-0.1,0.6-0.3,0.6-0.6h1.1l0.8,0.6c-1.9,0.9-3.1,1.6-3.8,2.3c0.3,0.3,0.4,0.4,0.6,0.4
		c1.3,0,3.1-0.4,5.5-1.1c0,0.4,0.1,0.8,0.2,1.3l0.6-0.6c0.1,0,0.3,0.2,0.4,0.5c0.1,0.3,0.3,0.5,0.6,0.5c0.3,0,0.4-0.1,0.5-0.2
		c0.1-0.1,0.2-0.2,0.3-0.2c0.1,0,0.8,0.1,2.1,0.4C534,487.4,534.5,487.7,535.2,488.4z M411.9,393.3L410,394v-0.4l1.7-0.8
		L411.9,393.3z M420.3,393.8c-0.1,0.1-0.2,0.4-0.2,0.9c-1.8,0-2.5-0.1-2.3-0.2C418.5,394.5,419.3,394.2,420.3,393.8z M428.8,377.3
		c0,0.5-0.3,1.1-0.9,1.7c-0.3,0-0.6-0.2-1.1-0.6c-0.5-0.4-1-0.6-1.5-0.6c0-1,0.4-1.5,1.3-1.5c-0.1,0,0.5,0,1.9,0
		C428.7,376.4,428.8,376.8,428.8,377.3z M436.5,508.5c-0.1-0.5-0.4-0.8-0.8-0.8c0.1-0.1,0.4-0.3,0.8-0.4V508.5z M436.7,506.5v-2.8
		h-0.6v2.8H436.7z M442.6,453.2v-0.9h-0.4v0.9H442.6z M475.9,420.6l-0.9-4.5c0,0.1-0.1,0.3-0.2,0.6c-0.1,0.3-0.3,0.4-0.4,0.6
		c0-1-0.2-2.4-0.6-4c-0.4-1.7-1.5-3.4-3.4-5.2c-0.8-0.8-1.9-1.4-3.6-2.1c-1-0.4-2.8-0.7-5.3-0.9c-0.5-0.1-2.8-0.2-7-0.2
		c-0.3,0-0.6,0.4-0.9,1.1c-0.5,0-1.2,0.1-2.1,0.4c0,2.4,0.1,3.2,0.2,2.4l-1.3,4.1c-0.1,0.5-0.8,3.1-2.1,7.9
		c-0.8,2.9-1.4,5.8-1.9,8.9c-0.4,0.8-0.7,1.9-0.9,3.4c-0.3,1.5-0.5,3.5-0.8,6c0,0.3-0.1,0.5-0.4,0.8c-0.3,0.3-0.4,0.5-0.4,0.8v1.1
		l1.7,0.8c0,0.8,0.1,1.4,0.4,1.9c0.8-0.6,1.2-0.9,1.3-0.9l0.6,0.4l0.8-0.6c0-0.8-0.1-1.8-0.2-3l-0.4-0.8c0.5-0.5,0.8-0.8,0.9-0.8
		c0.4,0,0.6,0.4,0.6,1.3c0,0.3-0.1,0.6-0.3,1.1c-0.2,0.5-0.3,0.9-0.3,1.1c0.6-1.8,1.5-2.5,2.6-2.3c1.3,1.6,2.1,2.4,2.6,2.4
		c0.6,0,1.1-0.1,1.3-0.4c0-0.8-0.5-1.6-1.6-2.5c-1.1-0.9-1.6-1.8-1.6-2.5c0-0.4,0-0.6,0-0.8c0.9-0.6,1.5-0.9,1.9-0.9
		c0.3,0,1.3,0.9,3.2,2.8c0.1-0.1-0.3-0.2-1.3-0.2v1.3c0.4,0.4,1,0.9,1.9,1.5c0.3-0.6,0.9-0.9,2.1-0.9c0.1-0.4,0.4-0.8,0.8-1.3
		c0.1,0,0.4-0.1,0.8-0.2c1.3-1,2.1-1.7,2.6-2.1c1.5-1,4-3.2,7.3-6.6c-0.1-0.1-0.2-0.3-0.2-0.4C474.4,426.9,475.9,424,475.9,420.6z
		 M452.5,438.8c-0.5,0.1-1.1,0.4-1.9,0.9c-0.4-0.4-0.6-0.8-0.6-1.3C451,438.3,451.8,438.5,452.5,438.8z M455.9,406.4v0.4l-1.3-0.8
		l0.2-0.4L455.9,406.4z M457.2,407h-0.9v-0.4h0.9V407z M472.3,451.5c-0.4-0.4-0.8-0.6-1.1-0.6c-0.6,0.5-0.9,1-0.9,1.5
		c0,0.5,0.1,0.9,0.4,1.1C471.4,452.8,471.9,452.1,472.3,451.5z M477.6,449.4l-0.4-0.2l-0.4,0.8h0.4L477.6,449.4z M501.1,511.2h-1.5
		c-0.1-0.1-0.2-0.3-0.1-0.4c0.1-0.1,0-0.2-0.3-0.2c-0.8,0-1.1,0.1-0.9,0.2C498.9,510.4,499.9,510.5,501.1,511.2z M513.7,501.7
		l-0.4,0.2c-0.3,0-0.4,0-0.6,0c0,0.5,0.3,0.8,0.8,0.8C513.7,502.6,513.7,502.3,513.7,501.7z M514.7,508.3h-1.5v-0.6h1.5V508.3z
		 M536,482c-0.8,0.6-1.5,1.1-2.3,1.5l-2.3-0.4c0.1-0.3,0.6-0.9,1.5-1.9c0.5-0.5,1-0.8,1.5-0.8h1.1l0.4,0.4V482z M533.7,497.6
		c-0.4,0.4-0.8,0.6-1.1,0.6c-0.5-0.4-0.8-0.7-0.8-0.9c0-0.6,0.3-0.9,0.8-0.9C533.1,496.5,533.5,497,533.7,497.6z"/>
	<path id="XMLID_266_" class="st26" d="M629.8,479.7c-3,0.9-7.3,2.1-12.8,3.6c-0.4,0.3-1.1,0.6-2.1,0.9c-1.9,0.8-3.2,1.1-4,1.1
		c-0.8,0-1.4,0.1-1.6,0.4c0.6,0.4,2.4,0.1,5.3-0.8h1.5c-0.6,0.1-3.3,0.8-7.9,2.1c0,0.4,0.2,0.6,0.6,0.6c0.1,0,0.6-0.1,1.4-0.4
		c0.8-0.3,1.3-0.4,1.6-0.4c0.1,0,0.3,0.1,0.4,0.2c0.1,0,0.3,0,0.6,0c0.3,0,1.9-0.3,5.1-0.8c3.1-0.6,4.8-0.8,5.1-0.8
		c0.1,0,0.6,0.1,1.3,0.3s1.2,0.3,1.3,0.3c0.3,0,0.6-0.2,1.1-0.6c0.5-0.4,0.8-0.6,0.9-0.6c-0.3,0-0.1,0.3,0.6,0.8
		c0.1,0.1,0.3,0.1,0.6,0c-3.3,0.9-8.4,2.2-15.3,4c-0.3,0.1-0.6,0.3-0.9,0.6c-1.3,0.1-2.1,0.3-2.6,0.6c-1.1,0.4-1.8,1-2.1,1.9
		c-2,0.4-5.1,0.9-9.2,1.7c0.4,8.9,0.8,15.2,1.1,18.8c0.1,0.8,0.3,3.1,0.6,7c-0.1,0.5-0.3,1.2-0.4,2.1c0.1,0.1,0.3,0.4,0.5,0.9
		c0.2,0.5,0.5,1.6,0.8,3.4c-0.6,0.3-1.4,0.8-2.4,1.5c0.1,0.5-0.1,1.2-0.6,2.2c-0.5,0.9-1.1,1.4-1.7,1.4c-0.3,0-1.1-0.6-2.6-1.9
		c0.1,1.4,0.8,3.6,2.1,6.6v0.9c-1.9,0.5-2.7,0.8-2.4,0.8c-0.9,0-1.3-0.4-1.3-1.3c0-0.5,0.1-1.1,0.2-1.9c0-0.9,0-1.5,0-1.9
		c0-0.1-0.1-0.2-0.4-0.2c-0.3,0-0.6,0.1-0.9,0.4c-0.4,0.3-0.6,0.4-0.7,0.4c-0.1,0-0.3,0.1-0.8,0.2c0-0.4-0.1-0.9-0.2-1.7
		c-0.1-0.3-0.6-0.9-1.5-2.1c-0.1-0.3-0.3-0.6-0.4-1.1c0.4,0,0.8-0.1,1.3-0.4c-0.1-0.4-0.3-0.7-0.4-0.9c-0.4,0.4-0.6,0.8-0.6,1.1
		c-0.5-0.5-0.8-0.8-0.9-0.8c-0.3,0-0.5,0-0.8,0c-0.1,0.1-0.3,0.2-0.6,0.2c-0.1,0-0.8-0.3-1.9-0.8c0.1-0.5,0.4-0.9,0.8-1.1
		c-0.1-0.1-0.3-0.4-0.6-0.8c-0.3-0.4-0.4-0.6-0.6-0.8c-0.3,0.3-0.4,0.9-0.4,1.9c-0.9,0-1.3-0.4-1.3-1.1c-0.1-2.3-0.5-6.8-1.1-13.7
		c-0.5-5.7-0.8-10.2-0.8-13.6c-0.3-0.3-0.6-0.4-1.1-0.4c-1.6,0-7.5,1.8-17.5,5.3c-0.8-0.9-1.1-1.3-0.9-1.3c-2,0-3.5,0.5-4.3,1.4
		c-0.9,0.9-1.6,2.9-2.1,5.9c-0.6,1.6-1.4,4-2.3,7c0,0.6-0.1,1.4-0.2,2.4c-1,4.8-2.8,8.3-5.3,10.5h-0.8l-0.8-0.6
		c1.4-1.3,2.1-2.8,2.1-4.5c0-0.6-0.2-1.1-0.6-1.5c-0.6,1.6-1.6,4.3-3,8.1c-0.1,0.6-0.6,1.4-1.3,2.3c-0.3-0.1-0.5-0.3-0.8-0.6
		c0-3.4,0.1-4.6,0.4-3.8c-0.4-0.4-0.8-1-1.3-1.9c0.1,0.4,0.2-0.4,0.2-2.4l-0.4-0.6c-0.6,1-1.6,2.4-2.8,4.3c-0.9,0-1.3-0.4-1.3-1.3
		c0-0.1,0.2-0.5,0.5-1.2c0.3-0.7,0.5-1.1,0.5-1.2c1-1,1.5-2,1.5-3c0-0.6-0.5-0.9-1.5-0.9c0.1,0-0.4,0.4-1.5,1.1
		c-0.4,0.1-0.8,0.4-1.3,0.8c-0.6,1.6-1.7,4.1-3.2,7.3l-0.6,0.2l-0.4-0.9c0-0.6,0.8-2.8,2.3-6.4c-0.1-0.1-0.2-0.4-0.2-0.8
		c0.1-1-0.1-2.4-0.6-4.1c0.3,0,0.4,0.1,0.6,0.4l0.9-0.9l-0.4-0.4c-0.4,0.1-0.6,0.4-0.8,0.8c-0.3-0.4-0.5-0.6-0.8-0.6v-1.3
		c0,1.1,1.1-2.3,3.4-10.4c0-0.1-0.1-0.2-0.4-0.2c-0.1,0.4-0.4,0.9-0.8,1.7c-0.8,2.3-1.6,5.1-2.6,8.5c-0.3,0.1-0.6,0.4-1.1,0.8
		l6.4-21.1c0.8-1.8,1.9-4.5,3.4-8.1c-0.1,0.5,0,1.2,0.4,2.1c-0.6,0.6-0.9,0.9-0.8,0.8c0-0.3-0.1-0.4-0.4-0.4
		c-0.1,0.4-0.3,0.8-0.4,1.2c-0.1,0.4-0.4,1.3-0.8,2.5c0.1,0,0.3,0,0.4,0c0.8,0,1.3-0.9,1.7-2.6c0.3-0.8,0.7-1.8,1.3-3.2v-0.6
		c-0.1,0-0.3,0.1-0.6,0.2c-0.3,0.1-0.4,0.2-0.6,0.2c0.3-0.1,0.5-0.4,0.8-0.8c0-0.3,0-0.5,0-0.8l0.4-0.4l0.4,0.6
		c0.1-0.4,0.4-0.9,0.8-1.5c-0.1-0.2-0.4-0.4-0.8-0.6c0.3-0.1,0.5-0.1,0.8,0.2c0.3-1.1,0.4-1.8,0.4-1.9c-0.3,0.1-0.4,0.3-0.6,0.6
		c0-0.1,0-0.4,0-0.8c0.1-0.4,0.2-0.6,0.2-0.8c0.3,0,0.5,0.1,0.8,0.4c0.8-1.5,0.8-2.3,0-2.3c0.5-1.9,1.5-4.1,3-6.8
		c0.6-0.6,1.7-3.3,3.2-8.1c0.4-1.5,1.9-5.5,4.7-11.9c0.4-0.1,0.7-0.4,0.9-0.8c0.2-2,0.4-2.8,0.4-2.3c0.3-0.4,0.6-1,1.1-1.9
		c-0.5-1.1-0.2-1.8,0.9-2.1l-0.4-0.8c0.6-1.3,1.5-2.8,2.6-4.5c0-0.3-0.1-0.4-0.4-0.4c0-0.1,0.4-0.8,1.3-1.9c0-0.4,0.1-0.9,0.2-1.7
		c4.9-9.9,7.3-14.9,7.3-15.1v-0.9l-7.3,15.3c0.1-1,0.1-1.6,0-1.9l-8.7,19.8c1.8-4.9,4.8-12.4,9.2-22.4c2.4-4.8,8.6-16.2,18.6-34.3
		c0.6-1.8,1.6-4.3,3-7.5c2.9-5.9,5.3-10.2,7.3-13c0.3,0.1,0.5,0.2,0.8,0.2v0.9c-1.5,1.6-3.2,4.4-5.1,8.3v0.4
		c0.9-0.6,1.3-0.9,1.1-0.9c0.3,0,0.3,0.1,0.3,0.2c-0.1,0.1,0,0.2,0.3,0.2l1.3-2.4c2.1-0.4,2.8-0.6,2.1-0.6c0.3,0,0.4,0.1,0.4,0.2
		c-0.1,0-0.1,0,0.2,0c0.5,0,0.9-0.4,1.1-1.1c0,0.1,0.2,0.2,0.6,0.2c0.3,0,0.4-0.1,0.6-0.3c0.1-0.2,0.3-0.3,0.4-0.3
		c0.1,0,0.5-0.1,1-0.2c0.6-0.1,0.9-0.2,1-0.2c0.6,0,1.1,0.4,1.3,1.1c0.6-0.5,1.1-1.1,1.3-1.9c0.9-3.9,2.2-5.8,4-5.8
		c1.3,0,1.9,0.6,1.9,1.9c0,0.5-1.1,1.9-3.2,4.1c-0.3,0.4-0.8,1.2-1.7,2.4c0.1,0.1,0.4,0.1,0.9,0c0.3,0.8,0.3,1.6,0.2,2.4
		c0.3-0.1,0.4,0,0.4,0.4c0,0.3-0.3,0.6-0.8,1.1c-0.5,0.5-0.8,0.8-0.8,0.9c0,0.4,0.1,0.6,0.2,0.6c0.8-0.5,1.5-1.4,2.3-2.6
		c0.8-0.4,1.5-0.9,2.3-1.5c0.3,0.3,0.4,0.5,0.4,0.8c0-0.4-0.9,0.9-2.8,4c0.6,0.3,1.5,0.3,2.6,0c0.3,0.3,0.4,0.7,0.4,1.3
		c0.5,0.5,1.1,0.8,1.7,0.8v0.8c0-0.3-0.9,1.3-2.8,4.5c0.5,1.6,0.4,3.1-0.4,4.5c0.1,0,0.3,0,0.6,0c0.6,0,0.9-0.4,0.9-1.2
		s0.2-1.2,0.6-1.2c0.3,0,0.4,0.1,0.4,0.3c0,0.2,0.1,0.3,0.4,0.3c-0.3,0-0.1-0.1,0.6-0.2c0.9,1.5,1.2,2.8,0.9,3.8
		c-0.4,0.3-0.6,0.5-0.6,0.8c0,0.1,0.2,0.4,0.5,0.8c0.3,0.4,0.5,0.7,0.5,0.8c-0.1-0.5-0.2,0.3-0.2,2.4c0,1.3,0.4,1.9,1.3,1.9
		c0.5,0,0.8,0.1,0.9,0.2c-0.6,1-0.9,1.8-0.9,2.4c-0.1,3.4-0.5,6.3-1.1,8.9c-0.1,0.3-0.4,1.8-0.9,4.7c-0.4,0.4-0.6,0.9-0.8,1.5
		c-0.1,0.6-0.3,1.7-0.7,3.1c-0.3,1.4-0.5,2.6-0.5,3.5c0.4-0.9,1-2.1,1.9-3.6c-1,4.4-1.9,8.7-2.6,13c-0.4,1-0.8,2.6-1.3,4.9
		c0.1,0.6,0.1,1.6,0,3c-0.5,2.4-1.1,6-1.9,10.9l-0.2-0.4c0,0.5,0,1.3,0,2.3c0-0.3-0.1-0.4-0.2-0.6v4.7c-0.3,0-0.4-0.1-0.6-0.2
		c-0.3,0.6-0.1,1.1,0.4,1.5c0,0.5-0.4,1.1-1.1,1.7c0,2.6,0.1,4.6,0.4,5.8l3.8-0.2c-1.1,0-2.5,0.4-4.1,1.1c0.1,0.3,0.5,0.4,1.1,0.4
		l20.9-3.2l0.6,0.6c0.1-0.1,0.3-0.2,0.6-0.2c-1,0.4-1.1,1-0.4,1.9c-0.5,0-1.4,0.2-2.7,0.7c-1.3,0.4-2.1,0.7-2.4,0.7
		c-0.1,0-0.3-0.1-0.5-0.2s-0.4-0.2-0.7-0.2c0.6,0-1.9,0.6-7.5,1.7c-0.1,0.3-0.1,0.4,0.2,0.4c0.3,0,1-0.1,2.2-0.4
		c1.2-0.3,1.9-0.4,2.2-0.4c0.1,0,0.6,0.1,1.3,0.2c0.8,0.1,1.3,0.2,1.7,0.2c-1.5,0-3.5,0.4-6,1.3c0.1,0,0.3,0,0.5,0.1
		c0.2,0.1,0.3,0.2,0.5,0.3l17.3-3.6c0.3,0,0.6,0.1,0.9,0.2c-0.6,0.3-1.6,0.8-2.8,1.5c0,0.4,0.3,0.6,0.8,0.6c0.1,0,0.3-0.1,0.6-0.2
		c0.1,0,0.3,0,0.6,0C627.9,479,628.5,479.2,629.8,479.7z M540.9,485.7v-0.6h-0.4v0.6H540.9z M542.6,479.3l-0.2,0.6l-0.4-0.2l0.2-0.6
		L542.6,479.3z M546.7,471l-0.4-0.2l-0.4,0.8h0.4L546.7,471z M561.6,430.6h-0.4l-1.1,2.1l0.4,0.2L561.6,430.6z M587.2,421.9
		c-1.1,1.9-2.4,5-4,9.2c-0.1-0.3-0.3-0.4-0.6-0.6l-10.4,22.6l-0.4-0.2l-9,23c2.8-0.6,5.4-0.9,7.9-0.9c0.1,0,0.3-0.1,0.7-0.3
		c0.3-0.2,0.6-0.3,0.8-0.3c0.9,0,1.4,0.1,1.7,0.2c0,0.6-0.4,0.9-1.1,0.9h-0.4c0.1-0.1,0.1-0.2-0.2-0.2c-0.5,0-2.2,0.6-5.2,1.7
		c-3,1.1-4.7,1.9-5.4,2.3c-0.1,0.6-0.4,1.6-0.8,3c1.8-0.3,4-0.6,6.6-1c2.6-0.4,6.5-1.2,11.7-2.2c0.3-3.5,0.6-8.6,0.9-15.3
		c0.9-1.4,1.1-3.1,0.6-5.3c0.1-0.4,0.3-0.8,0.6-1.3l3.4-23.9c0.3-1.1,0.8-3.2,1.7-6.2C586.7,425.9,586.9,424.2,587.2,421.9z
		 M562.3,429.6v-0.8H562v0.8H562.3z M568.7,417.2h-0.4l-0.9,2.3l0.4,0.2L568.7,417.2z M570.1,414.9h-0.4l-1.1,1.9h0.4L570.1,414.9z
		 M570.6,388v0.4l-1.1-0.6v-0.4L570.6,388z M570.8,413.2h-0.4l-0.4,0.8l0.4,0.2L570.8,413.2z M571,413v-0.6h-0.4v0.6H571z
		 M571.6,411.7l-0.4-0.2l-0.4,0.8l0.4,0.2L571.6,411.7z M576.6,475.4c-0.5,0-0.9,0-1.1,0c-0.3-0.3-0.3-0.6,0-0.9
		c0.5,0.1,0.9,0.3,1.1,0.4V475.4z M580.4,447.5H580v-0.8h0.4V447.5z M582.7,390.4h-0.4l-0.2,0.9l0.4,0.2L582.7,390.4z M583.8,388.6
		h-0.4l-0.6,1.3l0.4,0.2L583.8,388.6z M583.2,433.8h-0.4v-1.3h0.4V433.8z M585.1,454.9c-0.5-0.5-0.8-0.4-0.8,0.2c0,1.3,0,2.1,0,2.4
		c-0.1,0.3-0.3,0.5-0.5,0.8c-0.2,0.3-0.3,0.5-0.3,0.6c0,0.1-0.1,1.8-0.2,5.1c-0.1,3.3-0.2,5.8-0.2,7.4L585.1,454.9z M594.4,500.1
		c-0.1-0.3-0.2-0.4-0.3-0.6c-0.1-0.1-0.1-0.3-0.1-0.4l-0.4,1.1C593.8,500.2,594.1,500.2,594.4,500.1z M594.7,476.1v-0.8h-0.6v0.8
		H594.7z M595.7,501v-6.2h-0.4v6.2H595.7z M596.4,517.2v-2.8H596v2.8H596.4z M597.4,524H597l-0.2,0.9h0.4L597.4,524z M603.2,439.6
		c-0.3,1.3-0.9,2.7-2.1,4.3c0.3,0.3,0.4,0.5,0.6,0.8c-1.1,5.3-2.1,10.2-3,14.9c-1.1,1-1.7,3.1-1.7,6.2c0-0.1,0.1-0.3,0.4-0.6
		c0.3,0.6,0.4,1.4,0.4,2.4c0,0.6-0.1,1.7-0.3,3.1c-0.2,1.4-0.3,2.5-0.3,3.1c0,0.8,0.1,1.4,0.4,2.1
		C598.9,462.4,600.8,450.3,603.2,439.6z M597.7,516.4c0.1-3.9,0.1-6.3-0.2-7.2h-0.4c-0.1,4-0.1,6.3,0,7L597.7,516.4z M597.9,464.5
		h-0.4v-0.8h0.4V464.5z M600.4,464.8v-1.1H600v1.1H600.4z M603.4,439.2v-0.9H603v0.9H603.4z M604.1,435.8v-0.8h-0.4v0.8H604.1z
		 M607.5,491.4l-0.9-0.4v0.4l0.8,0.4L607.5,491.4z M608.3,480.3c-0.1-0.3-0.4-0.4-0.9-0.4l-0.6,0.8L608.3,480.3z M613.2,386.3
		c0,1.8-0.9,2.6-2.6,2.6c-0.9,0-1.3-0.5-1.3-1.5c0-0.4,0.3-0.9,0.8-1.6c0.6-0.7,1-1,1.4-1C612.6,384.8,613.2,385.3,613.2,386.3z
		 M613,450.7c-0.5,0.1-0.8,0.4-0.9,0.8c-0.5,0-0.9-0.3-1.1-0.9c-0.3,0-0.5,0.1-0.8,0.4c-0.3,0.3-0.4,0.4-0.6,0.6
		c-0.3-0.3-0.4-0.5-0.4-0.8c0-0.8,1.1-1.6,3.2-2.4c0.1,0.1,0.3,0.2,0.6,0.2V450.7z M628.4,484.4l-0.8,0.2v-0.2l0.6-0.4L628.4,484.4z
		 M629.4,484.2h-0.9v-0.4h0.9V484.2z M634.8,460.5c-0.9-1.9-1.3-3.1-1.3-3.6c0-1.3,0.4-1.9,1.3-2.1V460.5z M634.8,422.6
		c-0.8-1.6-1.1-2.2-1.1-1.7c0,0.8,0.4,0,1.1-2.3V422.6z"/>
	<path id="XMLID_340_" class="st26" d="M754.6,407.6c-0.8,1.1-1.9,2.8-3.4,5.1c0,0.3,0.3,0.4,0.9,0.4c-0.8,1.1-1.8,2.7-3,4.7
		c-0.1,0-0.4,0.1-0.8,0.4c-0.8,1.3-1.9,3.3-3.4,6c0.1,0.1,0.3,0.2,0.6,0.2c-0.4,0-0.6,0.2-0.6,0.6c0-0.3-0.1-0.5-0.2-0.8
		c-0.4,0.9-0.3,1.5,0.2,1.9l-9.2,16.8c-0.1,0.1,0,0.2,0.4,0.2c0.1,0,1.2-1.5,3.2-4.5c1.5-2.4,2.9-4.8,4.1-7.3
		c0.5-0.5,1.2-1.3,2.1-2.3c-0.3,0.9-0.8,2.1-1.7,3.6v1.1c0.3,0.3,0.6,0.4,0.9,0.4c-0.6,0,0.2-0.3,2.4-0.9c-2,1.5-3.6,4.3-4.7,8.3
		c-0.5,1-1.3,2.6-2.4,4.7c-0.3,0.1-0.6,0.3-0.9,0.6c0,0.3,0.2,0.4,0.6,0.4l-11.5,22.6h0.6c-0.9-0.1-1.5,0.3-2,1.1
		c-0.4,0.9-0.5,1.5-0.3,1.9c0.3,0.3,0.4,0.4,0.6,0.4c0-0.3,0.1-0.5,0.4-0.7c0.3-0.2,0.4-0.3,0.4-0.5c-4.8,11.7-11.5,28.8-20.2,51.4
		c-0.4,0.3-0.9,0.7-1.5,1.3c-0.1,0.4-0.3,0.9-0.6,1.5c-0.1,0.1-0.1,0.3,0,0.4c0.4,0.3,0.6,0.8,0.6,1.5s-0.2,1.3-0.6,1.5
		c-0.1,0.4,0,0.7,0.4,0.9c-0.4,0.5-0.8,1.8-1.1,3.8c-0.3,0.3-0.5,0.4-0.8,0.4c-0.1,0-1.3-0.8-3.6-2.4c-1,1-1.7,2.1-2.1,3.4
		c-0.5,0.5-0.9,0.8-1.1,0.8c-1.4,0-2.4,0.2-3.2,0.6c-0.1-0.1-0.3-0.3-0.4-0.5c-0.1-0.2-0.2-0.3-0.2-0.5c-0.9,0.5-1.3,1.1-1.3,1.7
		c0,0.3,0.2,1.1,0.6,2.4c0.1,0.4,0.5,0.9,1.1,1.6c0.6,0.7,0.9,1.2,0.9,1.4c0,0.3-0.2,0.6-0.7,1c-0.4,0.4-0.7,0.8-0.8,1
		c-0.1,0.3-0.3,0.7-0.5,1.2c-0.2,0.6-0.6,0.8-1.2,0.8c-0.9,0-1.6-0.5-2.3-1.5c-0.4-0.6-0.4-1.6-0.2-2.9c0.3-1.3,0.1-2.2-0.6-2.5
		c-0.1-0.3-0.1-0.5,0.1-0.8c0.2-0.3,0.3-0.5,0.3-0.8c-0.1-0.1-0.3-0.2-0.4-0.3c-0.1-0.1-0.3-0.1-0.4-0.1c-0.4,0.5-1,1.3-1.9,2.4
		c-0.8,0.6-1.6,0.9-2.6,0.9c-1.3,0-2.6-0.9-4.1-2.8c-0.1-0.4-0.4-1.1-0.8-2.1c-0.1-0.4-0.4-0.6-0.8-0.6c-0.3,0.1-0.4,0.6-0.4,1.3
		c0.6-0.1-0.3-0.2-2.6-0.2c0-0.1,0.1-0.4,0.4-0.8v-0.8c-0.5-0.4-0.8-1-0.8-1.9v-0.8c-0.4-0.1-0.9-0.4-1.7-0.8
		c0.8-0.1,1.1-0.4,1.1-0.9c0-0.6-0.3-1.4-0.9-2.3c-0.3-0.3-0.8-0.6-1.5-1.1c-0.1-0.6-0.4-1.5-0.9-2.6c-0.3-0.3-0.5-0.6-0.9-1.1
		c-0.3-0.5-0.7-1.4-1.2-2.6c-0.3-0.6-0.4-1.6-0.4-2.8c0-1.3-0.3-3.1-0.9-5.7c-0.1-0.4-0.3-1.1-0.5-2.2c-0.2-1.1-0.5-2.1-0.8-3.1
		c-0.4-1.3-0.4-2.1,0-2.4c-0.6-0.9-0.9-1.9-0.8-3c-0.1,0-0.3,0-0.6,0c-0.1,0.1-0.3,0.2-0.4,0.2c0.1,0,0.3-0.1,0.6-0.4
		c-1.1-1.9-1.9-3.5-2.3-4.9c-1.5-5.4-3-12.5-4.5-21.3c-0.8-4-1.6-9.3-2.6-15.8c-0.4-1.9-0.8-4.8-1.1-8.7c-0.1-0.1-0.4-0.4-0.9-0.8
		c-0.8-2.8-1.7-6.7-2.8-11.9c-1.6-15.6-2.4-24.5-2.4-26.7c0,0.3,0.2-1.6,0.6-5.6c0.5,0,0.9-0.2,1.3-0.6c1.1,1.5,1.4,4,0.9,7.3
		c0-0.3,0.1,0.1,0.4,1.1c-0.1,1.5-0.1,2.7,0.2,3.6c0.4-0.5,0.7-1.1,0.9-1.9c0.1-1.5,0.4-3.6,0.9-6.4c0.1-0.4,0.4-1.1,0.9-2.1
		c0.5-1,0.8-1.6,0.8-1.9c0-3.5-1-5.3-3-5.3c-1,0-1.9,0.3-2.6,0.8c0.6-1.1,1.5-1.7,2.6-1.7c2.8,0,4.1,1.9,4.1,5.7v0.8
		c-0.1,0.3,0,0.4,0.4,0.4c0.3,0,0.5-0.2,0.8-0.5c0.3-0.3,0.6-0.5,0.9-0.5c0.3,0,0.4,0.1,0.6,0.4c0.1,0.1,0.2-0.1,0.2-0.6
		c0-0.8-0.1-1.3-0.4-1.5c-0.3-0.8-0.7-1.8-1.3-3c-0.6-0.4-1.4-0.9-2.3-1.7c0-0.3,0-0.6,0-1.1c0-0.6,0.1-1.1,0.3-1.3
		c0.2-0.3,0.3-0.6,0.3-1.1c1-1.3,2-1.9,3-1.9c1.8,0,2.9,0.8,3.4,2.4c0-0.3-0.1,0.1-0.2,1.1v4.7l0.6,0.4c0.9-0.4,1.3-1.2,1.1-2.4
		c-0.1-1.2-0.1-2.1,0.2-2.7c0.3,0,0.6-0.3,1-0.8c0.4-0.5,1-1.8,1.6-3.8c0.5-0.5,1-1,1.6-1.6c0.6-0.6,1.2-0.8,1.8-0.8
		c0.3,0,0.5,0.1,0.7,0.2s0.3,0.2,0.5,0.2c0.4,1.5,0.3,3-0.2,4.3c0.8,1.1,2,2.6,3.8,4.5c0.6,0.1,1.6,0.4,2.8,0.9
		c1.3,0.5,1.8,1.2,1.7,2.1c0.1,0.1,0.3,0.2,0.6,0.2c1.1,0,1.7-0.5,1.7-1.5c0-0.4-0.2-0.9-0.5-1.7c-0.3-0.8-0.5-1.2-0.5-1.3v-2.1h1.3
		c0.1,0,0.6,0.1,1.3,0.4c0.6,1,1.4,2.7,2.3,5.1c0.3,3.6,0.3,6.5,0.2,8.7c0.1,0.4,0.3,0.7,0.4,0.9c-0.3,1.4-0.3,2.8,0,4.3
		c0.3,2.3,0.7,6.7,1.3,13.4c0,0.1,0.1,0.3,0.4,0.4c0.3,2.4,0.8,5.9,1.7,10.5c0.1,1.9,0.6,4.4,1.3,7.5c0.5,3.5,0.8,5.8,0.8,6.8
		c0,0.1-0.1,0.5-0.4,1.1c-0.1,0.5-0.1,0.9,0,1.3c0.1,1.1,0.4,2.6,0.8,4.3c0,0.1-0.1,0.3-0.2,0.6c0.1,0.5,0.3,1.2,0.6,2.1
		c0.4,0.5,0.3,0.9-0.4,1.1c0.1,0.3,0.4,0.5,0.8,0.8c0,1.6,0.1,3.3,0.2,5.1c0.1,1.8,0.6,3.1,1.3,4c0,0.3-0.4,0.6-1.1,0.9
		c0,0.5,0.1,1,0.2,1.5c0,0.5,0,0.9,0,1.1c0.5,0.4,0.8,0.4,0.9,0.2c0.6-1.5,1.6-3.6,3-6.4c0,0.1,0-0.3,0-1.3c0,0.3,0.6-0.6,1.7-2.4
		c1.3-2.6,3-6.3,5.3-11.1c0.3,0,0.6-0.1,1.1-0.2c0-0.1-0.1-0.4-0.2-0.9c0.6-1.4,1.6-3.5,3-6.2l1.7-0.8c0-0.3-0.3-0.4-0.9-0.4
		c0-0.1,0.1-0.3,0.3-0.7c0.2-0.3,0.3-0.6,0.3-0.8c0.1,0,0.3,0.1,0.7,0.2c0.3,0.1,0.5,0.2,0.7,0.2l0.4-0.6c0-0.5-0.3-0.8-0.8-0.8
		c0.4-0.6,1-1.6,1.9-3c0.1-0.6,0.6-1.4,1.5-2.4c0.4-0.4,0.9-1.1,1.7-2.1c0.3-0.8,0.7-1.7,1.2-2.9c0.6-1.2,1.5-3,2.9-5.4
		c0.8-0.6,1.9-1.8,3.4-3.4c0.6-1.1,1.5-2.8,2.6-4.9c2-3.3,5-7.8,8.9-13.6c0,0.8-0.1,1.3-0.4,1.7c-1.6,2.9-4.9,8.3-9.8,16.2v0.4
		c0.6-0.4,1.1-0.9,1.5-1.5c0.4-0.6,0.9-1.4,1.5-2.4c0.6-1,1.8-2.6,3.4-4.9c0.1-0.6,0.5-1.5,1.1-2.6c0.6-1.1,1.6-2.9,3-5.5
		c-0.4,0-0.1,0.3,0.9,0.9c-0.9,1.4-2.3,3.6-4.1,6.6c-0.4,0.8-0.6,1.5-0.8,2.3c-0.1,0.1-0.4,0.4-0.8,0.8c-0.6,1-1.5,2.8-2.6,5.3
		c1.6-1.5,2.5-2.8,2.6-4c0.6-0.4,1.6-1.2,3-2.4c-1.3,3.3-1.9,5.2-1.9,5.7c0,0.6-0.2,1.3-0.6,2.2c-0.5,0.4-1.1,0.9-1.9,1.7
		c-2.4,4.5-6.1,11.2-11.1,20.2c0.1,0.1,0.4,0.2,0.8,0.2c3.4-5.4,6.8-10.6,10.2-15.6c0.9-1.1,2.3-2.9,4.1-5.3c-0.3,0-0.8-0.1-1.5-0.2
		c1.1-2.4,2.8-5.7,5.1-9.8c1.4-1.9,2.8-4.2,4.3-7c2-2.4,5-5.9,8.9-10.5c0,0.1,0,0.4,0,0.8c-2.6,3.5-5.9,8.3-9.8,14.3
		c-0.8,0.5-1.7,1.9-2.8,4.1c-1.5,3-2.4,4.7-2.6,5.1c-0.1,0.1-0.1,0.3,0,0.4c0.8-1,2-2.6,3.8-4.7l-0.2-0.2c0.9-1.3,1.9-3.1,3-5.5
		c0.3-0.1,0.6-0.4,0.9-0.8c0.9-1.4,2.1-3.1,3.8-5.3c-1.3,0.8-1.4,1.8-0.4,3L733.9,430c0.6-0.5,1.6-1.4,2.8-2.6
		c-2,2.4-2.9,3.6-2.6,3.6c0.2,0,0.2-0.2-0.2-0.8c-0.6,0.4-1,1.1-1.1,2.1c-0.1,1-0.3,1.8-0.6,2.3c0.1,0,0.3,0,0.6,0
		c0.1,0,0.5-0.3,1.1-0.9c0-0.4,0.1-0.8,0.2-1.1c0.6-0.8,1.6-1.7,3-2.8c0.1-0.1,0.4-0.2,0.9-0.2c0,0.5,0.4-0.4,1.1-2.8l1.3,0.2
		c0.1-0.1,0.3-0.2,0.4-0.3c0.1-0.1,0.3-0.1,0.4-0.1c-0.4-0.8-0.8-1.1-1.1-1.1c-0.4,0-0.6,0.1-0.7,0.2c-0.1,0.1-0.2,0.2-0.3,0.2
		c0.3-0.4,0.6-1.1,1.1-2.3c0.5-1.1,0.9-2,1.3-2.6c0.3,0.3,0.5,0.4,0.8,0.4c-0.3,0.8-0.6,1.7-1.1,2.8c-0.1,0.1,0,0.2,0.4,0.2
		c1.1,0,1.6-0.8,1.5-2.3c0,0.4,0.1,0.7,0.2,0.9L754.6,407.6z M651.8,418.5h-0.6l-0.2,1.7h0.4L651.8,418.5z M651.8,425.7v-2.3h-0.6
		v2.3H651.8z M673.8,405.5l-0.2-0.4l-0.6,0.4v0.4L673.8,405.5z M677.2,402.3c-1-0.8-1.6-1.1-1.7-1.1c-0.3,0-0.3,0.1-0.3,0.2
		c0.1,0.1,0,0.2-0.3,0.2c-0.3,0-0.3-0.1-0.3-0.3c0.1-0.2,0-0.3-0.3-0.3c-0.3,0-0.5,0-0.8,0c-0.1,0.1-0.3,0.2-0.4,0.2v1.1
		c0.3,0,0.5-0.1,0.8-0.2c0.4,0,0.7,0,0.9,0C677.3,402.1,678.1,402.2,677.2,402.3z M676.1,404.2v-0.6h-2.8v0.6H676.1z M683.2,389.5
		c0-0.3-0.2,0.1-0.7,0.9c-0.4,0.9-1.3,1.9-2.5,3.2c0.1,0-0.1,0-0.6,0c-1.4,0-2.1-0.6-2.1-1.7c0-0.6,0.4-1.4,1.2-2.4
		c0.8-0.9,1.6-1.4,2.4-1.4C680.1,388.2,680.9,388.6,683.2,389.5z M687.8,455.4h-0.4l-0.4,0.9l0.4,0.2L687.8,455.4z M689.5,458.1
		l-0.4-0.2l-0.4,0.8l0.4,0.2L689.5,458.1z M689.8,461.6v-1.7h-0.6v1.7H689.8z M693.8,478.8c-0.1,0-0.3,0-0.4,0
		c-0.1,0.1-0.3,0.2-0.6,0.2c-0.1,0-0.3-0.2-0.6-0.6v-0.8c0-0.3-0.2-1.9-0.6-5c-0.4-3.1-0.6-5.4-0.8-6.9c-1,0.6-1.5,1.4-1.5,2.3
		c0,0.3,0.2,2.3,0.8,6c0.6,4.4,1.1,7.5,1.3,9.2C691.8,482.7,692.5,481.2,693.8,478.8z M716.2,452.2h-0.4l-0.6,2.3h0.4L716.2,452.2z
		 M718.5,449.4h-1.1c-0.3,0.8-0.6,1.7-0.9,2.8C716.8,451.5,717.5,450.5,718.5,449.4z M720.7,486.3H720v-0.6h0.8V486.3z M722,425.1
		l-0.4,1.1l-0.4-0.2l0.4-0.9H722z M724.1,422.1l-1.3,1.7l-0.4-0.4l1.3-1.5L724.1,422.1z M723.7,479.3l-0.4-0.2l-0.6,0.8l0.2,0.2
		L723.7,479.3z M726.6,474.1c-1,0.5-1.5,0.8-1.5,0.9c0.3,0.3,0.5,0.4,0.8,0.4c0.1,0,0.3-0.2,0.4-0.6
		C726.3,474.4,726.4,474.2,726.6,474.1z M730.7,423.4h-0.4l-0.4,0.8l0.4,0.2L730.7,423.4z M732.6,432.6h-0.4l-0.6,1.3h0.4
		L732.6,432.6z M733,417.4l-0.4,1.1l-0.4-0.2l0.4-0.9H733z M734.1,431.3l-0.4-0.2l-0.4,0.8l0.4,0.2L734.1,431.3z M736.9,438.3
		l-0.4-1.1c-0.4,0.1-0.9,1.1-1.7,2.8C735.2,439.5,735.9,438.9,736.9,438.3z M747.8,414.5c-0.9,1.5-2.4,3.8-4.5,6.8l-1.3-1.7
		c0.4-0.3,0.8-0.4,1.1-0.4c0.3,0,0.3,0.1,0.2,0.4c0,0.3,0,0.4,0,0.6c0.3-0.1,0.6-0.4,1.1-0.8c0.4-0.6,0.6-1.1,0.6-1.3
		c0-0.1-0.4-0.6-1.1-1.3c-0.8,0-0.1,0,2.1,0c0.1-0.6,0.4-1.5,0.8-2.6C747.2,414.2,747.6,414.3,747.8,414.5z M746.1,407.4l-0.6,1.1
		l-0.4-0.4l0.6-0.9L746.1,407.4z M747.8,425.3l-0.6,1.3l-0.4-0.2l0.6-1.3L747.8,425.3z M749,412.5c0-0.3-0.3,0.3-0.9,1.7
		c0-0.4-0.2-0.7-0.6-0.9C748,412.7,748.5,412.5,749,412.5z M748.2,428.5h-0.4l-0.4-0.8h0.4L748.2,428.5z M751.2,419.6
		c-0.3,0.6-0.6,1.6-0.9,2.8c-0.1,0-0.4,0.1-0.8,0.2c-0.4,1.4-0.5,2.2-0.4,2.4c0-0.3-0.3-0.4-0.8-0.4
		C748.9,423.5,749.8,421.8,751.2,419.6z M751.8,408.1c-0.4,0.4-0.8,1-1.4,2c-0.6,0.9-1,1.6-1.4,2c0.4-1,1.1-2.4,2.1-4.3
		C751.4,408,751.7,408.1,751.8,408.1z"/>
	<path id="XMLID_371_" class="st26" d="M760.1,435.8c0,1.1-0.8,2.1-2.4,2.8c0,0.1,0.1,0.3,0.2,0.5c0.1,0.2,0.2,0.5,0.2,0.8
		c0,0.4-0.3,0.9-1,1.5c-0.7,0.6-1.2,0.9-1.6,0.9c-0.3,0-0.4-0.1-0.5-0.3c-0.1-0.2-0.2-0.3-0.5-0.3c-0.3,0-0.4,0.1-0.4,0.2
		c0,0.1-0.1,0.2-0.4,0.2c-1.3,0-1.9-1.2-1.9-3.6c0-1.5,0.9-2.3,2.6-2.3c0.3,0,0.6,0.4,0.9,1.1c0.6-0.8,1.5-1.8,2.6-3h1.9l0.2,0.6
		C760.1,435.3,760.1,435.6,760.1,435.8z M861,492.9c-3.3,1.4-9.1,3.6-17.5,6.8c-0.5,0.6-1.2,1.3-2.1,1.9c0.1,0.1,0.8,0.2,1.9,0.2
		c-0.3,0,1.7-0.7,5.8-2.1c-1.6,1.1-4.4,2.4-8.4,3.9c-4,1.4-6.8,2.9-8.4,4.4c2.5-0.8,6.5-2,11.9-3.8l1.5,0.6
		c-2.6,1.4-7.7,3.9-15.1,7.5c-0.9,0.9-2.3,2.1-4.3,3.6c-1.5,0.9-3.8,2.2-7,4c-0.1-0.1,0.6-0.2,2.3-0.2c0.1,0,2.2-1.1,6.2-3.2
		c0.5,0,1.3-0.1,2.3-0.4c-0.9,1.4-2.8,2.7-5.8,4c-3.4,1.4-5.6,2.7-6.6,4v-0.2c0.1-0.3,0.2-0.5,0.2-0.8c-2.8,1.8-4.6,2.6-5.7,2.6
		c-1,0-1.3,0.2-0.9,0.6c-0.3-0.3-0.6-0.4-0.9-0.4c-0.3,0-0.4,0.4-0.4,1.3l-1.9-0.4l-0.9,0.9c-0.9,0.1-4.2,0.8-10,1.9
		c-0.1-0.3-0.3-0.3-0.6-0.2c-0.1,0.4-0.7,0.8-1.7,1.3l0.9-0.9l-0.6-0.6h-3.6c-0.1,0.1-0.2,0.3-0.3,0.7s-0.2,0.5-0.3,0.5
		c0.4,0.4,0.9,0.8,1.5,1.3c-0.4-0.1-1.4-0.2-3.2-0.2c-0.3,0-0.9,0.2-2,0.7c-1.1,0.4-1.7,0.7-2,0.7c-0.3,0-0.4-0.1-0.6-0.4
		c-0.1-0.3-0.3-0.4-0.6-0.4c-0.3,0-0.4,0.1-0.6,0.4c-0.1,0.3-0.3,0.4-0.6,0.4c-0.3,0-1.3-0.3-3-0.8c-1.8-0.6-2.8-0.8-3-0.8
		c-0.3,0-0.4,0.1-0.4,0.2s-0.1,0.2-0.4,0.2c-0.4,0-1-0.3-1.9-0.9c-2.5-1.9-4.2-3.5-5.1-4.7c-3.5-5.7-5.6-10.6-6.2-14.9
		c-0.4-2.5-0.6-3.4-0.6-2.6v-4.1c0.3,0.8,0.4,1.7,0.6,2.8c0.3,0.1,0.5,0.3,0.8,0.6c1.1,5.8,3.3,10.9,6.6,15.3h1.1
		c0.1-0.1,0.3-0.4,0.6-0.8c0-0.4-0.1-0.6-0.4-0.6c-0.9,0-1.9-1.7-3.2-5.1c-0.3-0.6-0.7-1.3-1.3-2.1c-0.4-0.4-0.4-0.8,0-1.3
		c-0.4-1.6-1.4-3.8-3.2-6.4c0-0.6,0-1.6,0-2.8c-0.5-0.3-1.1-0.4-1.9-0.4l0.6-0.8c0-0.3-0.1-0.4-0.4-0.4c-0.1-1.4-0.4-3.9-0.9-7.5
		c-0.4-3.1-0.6-4.8-0.6-5.1c0-1.5,0.2-2.6,0.6-3.4c0,0.4,0.1,0.7,0.2,0.9c0.1-0.8,0.3-1.9,0.6-3.4c0.6,0.3,0.9,0.8,0.9,1.7
		c0,6,0,9,0,8.9c0.1,0.1,0.3,0.4,0.6,0.8c0.1-0.1,0.4-0.4,0.8-0.8v-13.6c-0.3-0.1-0.7-0.2-1.3-0.2c0.4-0.5,0.8-1.3,1.3-2.3
		c-0.1-0.1-0.2-0.3-0.3-0.5c-0.1-0.2-0.2-0.3-0.3-0.3c-0.3,0.3-0.8,0.4-1.5,0.6c-0.1,0.4-0.4,0.9-0.8,1.5c0.1-2.3,0-3.8-0.4-4.7
		c-0.1,0-0.5-0.2-1-0.7c-0.6-0.4-0.8-0.8-0.8-1.2c0-1,0.1-1.8,0.4-2.3l2.1-2.3c0-1,0.1-2.6,0.4-4.8c0.2-2.2,0.4-5.4,0.4-9.7
		c0.1-0.1,0.3-0.3,0.4-0.6c0.4-1.1,0.4-1.9,0-2.3c0.3-0.5,0.8-1.5,1.5-3c0-0.8-0.2-1.3-0.6-1.7c0.4-2.4,1.2-5.9,2.4-10.5
		c0.5-0.1,1.2-0.4,2.1-0.9c-1.5,3.5-2.5,7.9-3,13.2c0.8,1.6,0.8,3.3,0,5.1c-0.4,0.3-0.8,0.8-1.3,1.5c0,0.1-0.3,2.8-0.9,7.9
		c-0.4,4.3-0.6,6.1-0.6,5.5c0,0.3,0,0.8,0,1.5c0.1,0.9,0.3,1.5,0.5,2c0.2,0.4,0.5,0.7,1,0.7c0.4-1.4,0.9-3.6,1.5-6.8
		c-0.8-0.1-1.6-0.4-2.4-0.9h1.3c0.6-1.1,1.1-3.5,1.5-7c0.4-3.5,0.8-5.8,1.3-7c-0.4-0.5-0.5-1.1-0.4-1.9c0.4-0.1,0.6-0.3,0.6-0.6
		c0-0.1-0.1-0.3-0.2-0.6c0.5-3.5,1.6-8.3,3.2-14.3c-0.4,0.1-1.1,0.2-2.1,0.2c0,0.4-0.2,0.6-0.6,0.6c0.3-0.3,0.4-0.6,0.4-1.1h0.2
		c0.1,0.1,0.3,0.2,0.6,0.2c0.3,0,0.9-0.3,1.9-0.8c0-0.4,0.1-1,0.4-1.9l-0.6-0.4c-0.3,0.8-0.5,1.1-0.8,1.1c0.1,0,0-0.2-0.4-0.6
		c-0.9,0.8-1.5,1.3-1.9,1.5c-0.1-0.1-0.3-0.3-0.6-0.7c-0.3-0.3-0.4-0.5-0.6-0.7c0.4-0.5,1.1-1.3,2.3-2.3c-2.4-0.3-4.7-0.4-7-0.4
		c-1,0-2.1-0.4-3.2-1.3c-1.1-0.9-1.7-1.8-1.7-2.8c0-1,0.4-1.5,1.3-1.5c0.5,0,1,0.6,1.6,1.9c0.6,1.3,1.4,1.9,2.5,1.9h2.1
		c0.4,0,0.8-0.4,1.1-1.3c0.1,0,0.3,0.1,0.6,0.2c0.3,0.1,0.6,0.2,0.9,0.2c1.4,0,2.3-0.9,2.8-2.6c-0.4-0.4-0.3-1,0.4-1.9
		c-0.4-0.3-0.7-0.4-0.9-0.4c-1,0-2.5,0.4-4.5,1.1c-0.4-0.4-0.3-0.8,0.2-1.3c-0.1-0.1-0.2-0.3-0.3-0.5c-0.1-0.2-0.2-0.3-0.3-0.3
		c-1.1,0.8-1.5,1.1-1.1,1.1c-0.3,0-0.4-0.1-0.4-0.2c0.1,0,0,0-0.4,0c-0.1,0-0.5,0.3-1.1,0.8c-0.6,0.5-1.1,0.8-1.3,0.8
		c-0.4,0-0.8-0.2-1.1-0.6l-0.8,0.6c0.5-0.9,1.3-2.2,2.3-4c-0.3-0.8-0.4-1.1-0.4-0.9c0.4-0.5,0.6-0.8,0.8-0.8l1.5,0.4
		c0.3-0.3,0.3-0.7,0-1.3c-0.3,0.3-0.6,0.4-1.1,0.4c0.1-0.5,0.2-1.3,0.2-2.4c-0.4,0.4-1.1,1-2.1,1.9c-0.4,0-0.8-0.3-1.1-0.9
		c-0.4,0.4-0.9,0.6-1.5,0.6c-1.8,0-2.8-0.6-3.2-1.7c0.1-0.5,0.4-1.3,0.9-2.4c0.8-0.5,1.5-0.8,2.3-0.8c0.1,0,0.7,0.1,1.8,0.2
		s1.9,0.2,2.4,0.2c-0.1,0.8,0,1.4,0.4,2.1c0.8-0.1,1.1-0.3,1.1-0.6c0-0.1-0.1-0.3-0.2-0.7c-0.1-0.3-0.2-0.5-0.2-0.7
		c0-0.4,0.3-0.8,0.8-1.1c-1.1-0.8-1.8-1.4-2.1-2.1v-1.1c0.4-0.1,1.1-0.3,2.1-0.4c0.3,1,0.6,1.5,1.1,1.5c0.5,0,1.1-0.3,1.9-0.8
		c-0.1-0.4,0.1-0.8,0.6-1.3c0.3,0,0.8,0,1.6,0c0.8,0,1.3,0,1.6,0c-0.5,0,0.9-0.7,4.3-2.1c0.3-0.4,0.4-1,0.4-1.9c0.3,0,0.6-0.1,1-0.4
		c0.4-0.3,0.8-0.4,1-0.4c0.3,0,0.4,0.1,0.4,0.4c0,0.3,0.1,0.4,0.2,0.4c0.4-0.3,0.7-1.3,0.9-3.2c1.3-0.6,1.4-1.4,0.6-2.3v-1.1
		c0.4,0.4,1,1,1.9,1.9c-0.1-0.5-0.1-1.3,0.2-2.3c-0.1-0.1-0.3-0.1-0.4,0c-0.4-0.4-0.5-0.6-0.4-0.8c0.1,0,0.4-0.1,0.8-0.4
		c0-0.3,0.1-0.6,0.2-1.1c0.9-0.9,1.1-1.4,0.8-1.7c0.5,0.1,1.2,0.4,2.1,0.9c0.3-0.1,0.5-0.4,0.8-0.8c0.3-0.4,0.5-0.7,0.7-0.7
		c0.5,1.1,1.4,2.9,2.6,5.3h0.8c-0.1-0.8-0.3-1.7-0.4-2.8v-1.5c0.5,0.4,0.8,0.6,0.9,0.6c0.3,0,0.3-0.1,0.3-0.2
		c-0.1-0.1,0-0.2,0.3-0.2c0.6,0,1.3,0.6,1.9,1.7c0.3,0.3,0.6,0.3,0.9,0.2c-0.4-0.5-0.9-1.6-1.7-3.2c-0.6-0.4-1.2-0.8-1.7-1.1
		c-1.1-0.6-1.7-1.1-1.7-1.5c0-0.4,0.2-0.7,0.6-0.9h0.9c2.5,0,4.3,1.7,5.3,5.1c-0.1,0.6-0.2,1.8-0.2,3.4c0.5,0.5,0.8,0.8,0.9,0.8
		c0.3,0,0.9,0,1.9,0c1-0.1,1.7-0.2,2.1-0.2c-0.4-0.1-1,0.2-1.9,0.9c0.6,0.4,1.4,0.6,2.4,0.6c1.8,0,7.9-0.9,18.5-2.6
		c0.1-0.1,0.4-0.4,0.8-0.8v0.4c0,0.1,0.4,0.2,1.1,0.2c0.1,0,0.9-0.1,2.3-0.4c1.4-0.3,2.4-0.4,3-0.4c0.8-0.5,1.2-0.8,1.3-0.8
		c0.3,0,0.4,0.1,0.6,0.2c0.3,0,0.5,0,0.8,0c0.3,0,2.7-0.1,7.3-0.3c4.6-0.2,7-0.3,7.3-0.3c1,0,2.8,0.4,5.3,1.3l0.4,0.8
		c-0.1,0.1-1.5,0.2-4.1,0.2c-0.4,0-0.8,0.1-1.1,0.4c0,0.3,0.1,0.4,0.4,0.5c0.3,0.1,0.3,0.2,0.2,0.5c0,0.4-0.1,0.6-0.2,0.8
		c-1.6,0-3.5,0.3-5.7,0.8l1.1,1.1c1.1,0,5.1-0.3,12.1-0.8c-1.8,0.3-4.5,0.8-8.1,1.5c0.9,0.5,2.6,0.6,5.3,0.4
		c2.6-0.2,4.4-0.1,5.3,0.6c-1.4,0.1-3.5,0.3-6.2,0.6c0.8,0.4,1.6,0.5,2.4,0.4c-0.5,0-1.1,0.1-1.9,0.4c-0.8,0.3-1.2,0.4-1.3,0.4
		c-0.1,0-2,0.1-5.7,0.4c-0.4-0.1-0.6,0.1-0.6,0.6c2,0.4,4,0.4,6,0.2c-0.4,0.4-1.3,0.6-2.6,0.8c0,0.8-0.7,1.2-2.1,1.3
		c-1.8,0.1-2.8,0.3-3,0.6c0.3,0.3,0.8,0.4,1.7,0.4v1.1c-0.8,0.4-1.1,0.7-1.1,0.9c0.2,0.3,0.6,0.4,0.9,0.4c0.3,0,0.6-0.1,0.9-0.4
		c-0.6,0.5-2,0.9-4,1.2c-2.1,0.3-3.4,0.7-3.9,1.2c0.1,0,0-0.2-0.4-0.6c-0.4,0.4-0.5,0.8-0.4,1.1c-1.1-0.1-2.8,0.2-4.9,0.9
		c0.4-0.4,0.3-0.6-0.4-0.6c-0.3,0-0.6,0.2-1.1,0.6c-1.8,0-4,0.4-6.6,1.3c-0.6,0-1.7,0.2-3.1,0.5c-1.4,0.3-2.2,0.5-2.4,0.5
		s-1,0.1-2.6,0.2c-1.5,0.1-2.7,0.1-3.6,0l-0.6,0.6c1,1,2.3,1.5,4,1.5c0.5,0,0.9-0.3,1.1-0.8c0-0.3-0.1-0.4-0.4-0.4
		c2.3-0.4,4.5-0.6,6.8-0.6c0.1,0,1.1-0.3,2.9-0.9c1.8-0.6,2.9-0.9,3.1-0.9c0.3,0,0.5,0.1,0.7,0.4c0.2,0.3,0.4,0.4,0.7,0.4
		c0.1,0,0.2-0.3,0.2-0.9c0.9,0.4,1.6,0.6,2.3,0.6c0.4,0,0.7-0.2,1-0.5c0.3-0.3,0.6-0.5,0.8-0.5c0.3,0,0.5,0.1,0.8,0.3
		c0.3,0.2,0.6,0.3,0.8,0.3c0.1,0,0.4-0.1,0.9-0.2c0.4-0.3,2.8-0.2,7.2,0.2c-8.9,1.9-12.9,2.8-11.9,2.8c-1.4,0-2.4,0.1-3.2,0.4
		c-1.1,0.5-1.9,0.8-2.3,0.8c0.1,0.3,0.4,0.4,0.8,0.4c-0.3,0-0.6,0.1-1.1,0.2c-0.5,0.1-0.9,0.2-1.1,0.2c-0.4,0-0.5-0.1-0.5-0.3
		c0.1-0.2,0-0.3-0.3-0.3c-0.1,0-1,0.3-2.5,0.8c-1.6,0.5-2.6,0.8-3,0.9c-0.4,0.1-0.8,0.4-1.2,0.8c-3.3,0.6-8,1.8-14.3,3.4
		c-1.1,0.1-2.9,0.5-5.3,1.1c-0.3,0.1-0.5,0.3-0.8,0.6c-0.3,0.6-0.6,1.6-0.9,2.8c0,0.5,0,1.3,0,2.3c-0.6,2.6-0.8,4.1-0.6,4.3
		c-0.1-0.4-0.3,0.1-0.6,1.5c0.1,0.3,0.2,0.6,0.2,0.9c0,0.5-0.3,1.3-0.8,2.3c-0.5,1-0.8,1.8-0.8,2.3c0,0.6,0,1.4,0,2.4
		c-0.5,1.9-1.2,5.3-2.1,10.4c1.1,0.5,1.8,0.8,2.1,0.8c0.3,0,0.4-0.1,0.5-0.3c0.1-0.2,0.2-0.3,0.5-0.3c0.3,0,1.7-0.3,4.4-0.9
		c2.7-0.6,4.2-0.9,4.4-0.9c0.3,0,0.5,0.1,0.7,0.3c0.2,0.2,0.4,0.3,0.7,0.3c0.3,0,0.9-0.1,2.1-0.2c1.1,0,1.9,0,2.3,0
		c4.5,0,7.6,1.3,9.2,4c-0.5-0.6-1.1-1.1-1.9-1.3c-1.5-0.6-2.1-0.9-1.7-0.9c-0.3,0-0.4,0.1-0.4,0.2c0,0.1-0.1,0.2-0.4,0.2
		c-0.3,0-0.7-0.2-1.3-0.5c-0.6-0.3-1.1-0.5-1.3-0.5c-0.3,0-0.4,0.1-0.5,0.3c-0.1,0.2-0.2,0.3-0.5,0.3c0.1,0,0-0.1-0.5-0.3
		c-0.4-0.2-1.4-0.3-2.7-0.3c-1.3,0-2.4,0.3-3.6,0.9l-0.8-0.6c-0.3,0.3-1,0.6-2.3,1.1c0.2,0.1,0.9,0.4,2.1,0.9
		c1.6,0.1,4.1,0.4,7.3,0.8c0.3,0.1,0.8,0.3,1.7,0.7c0.9,0.3,1.6,0.5,2.1,0.5l0.8,0.8c0.3,0,0.8-0.1,1.5-0.4c0.8-0.3,1.3-0.4,1.5-0.4
		c0.8,0,0.9-0.1,0.6-0.4c0.3,0.1,0.6,0.3,0.9,0.6c0.9,0,3,0.5,6.4,1.5c-0.1,0.1-0.4,0.6-0.9,1.3c-0.5,0.8-0.6,1.3-0.2,1.5
		c-0.6,0.5-1.2,0.8-1.7,0.8c-0.3,0-0.9-0.1-2-0.3c-1.1-0.2-1.7-0.3-2-0.3c0.4,0-0.2,0.1-1.7,0.4c-0.4,0.3-0.6,0.7-0.8,1.3
		c-0.3,0.1-0.6,0.3-1.1,0.6c0.8,0.1,1.9,0.6,3.4,1.5c0.1-0.3,0.2-0.4,0.2-0.6h1.7l-0.6,0.6c0.4,0.4,0.7,0.6,0.9,0.6
		c0,1.9-0.1,2.6-0.4,2.1c-0.9,0.4-2.1,0.5-3.6,0.4c0-0.1-0.1-0.1-0.4,0.2c1.5,0.8,2.8,1.1,4,1.1c0.4,0,0.7-0.1,0.8-0.2
		c0.2-0.1,0.3-0.2,0.5-0.2c0,0.5-0.4,0.9-1.3,1.3c0.5,0.3,1.1,0.6,1.9,1.1c-0.4,0-0.9-0.2-1.7-0.6c0,0.1-0.1,0.2-0.3,0.3
		c-0.2,0.1-0.3,0.2-0.5,0.3c0,0.3,0.3,0.4,0.9,0.4c-0.5,0.5-0.8,1-0.8,1.5c-0.8-0.9-1.4-1.3-2.1-1.3c-0.3,0-1.1,0.1-2.5,0.4
		c-1.4,0.3-2.3,0.4-2.5,0.4c-0.3,0-0.4-0.1-0.5-0.4c-0.1-0.3-0.2-0.4-0.5-0.4c0.1,0-0.1,0.1-0.8,0.4c-0.5,0.3-1.1,0.3-1.7,0
		l-2.1,0.2c1,0.3,3.2,0.6,6.6,1.1c0,0.1,0,0.3,0,0.6c0.1,0.3,0.2,0.4,0.2,0.6c-0.8,0-2-0.1-3.8-0.2c-1.8,0-2.8,0-3,0
		c-1,0.4-1.3,0.6-0.9,0.8c-0.1,0-0.4-0.1-0.9-0.2c-0.4,0-0.7,0-0.9,0c-0.3,0-0.4,0.1-0.5,0.3c-0.1,0.2-0.2,0.3-0.5,0.3
		c-0.4,0-0.5-0.1-0.4-0.2c0.1-0.3,0.1-0.4,0-0.4c-0.1,0-0.4,0.2-0.8,0.6c0.5,0.9,0.9,1.3,1.1,1.3c0.3,0,0.6-0.1,0.9-0.3
		c0.4-0.2,0.7-0.3,0.9-0.3h7.3c0.1,0,0.4-0.1,0.8-0.4c0.4-0.3,0.8-0.4,1.1-0.4c-0.5,0,0.3,0.2,2.4,0.6c0,0.1,0.1,0.4,0.4,0.8h0.9
		l0.8-0.9v0.6c0.1,0.5,0.2,1.1,0.2,1.9c-7-0.6-10.9-0.9-11.7-0.9c-0.3,0-0.5,0.1-0.8,0.2s-0.6,0.2-0.8,0.2c-2,0-4.1,0.3-6.4,0.9
		c-0.3,0.4-0.2,1.2,0.2,2.4c-0.3-0.4-0.9-0.6-2.1-0.6c-1.4,0-3.1,0.4-5.1,1.1c-0.1-0.3-0.1-0.7,0-1.3c0-0.8,0-1.2-0.1-1.4
		c-0.1-0.2-0.2-0.3-0.5-0.3c-0.1,0.3-0.5,0.9-1.1,2.1c-1,2-1.4,5.4-1.3,10.2c-0.3,0-0.6-0.4-0.9-1.1c-0.4-0.8-0.5-1.9-0.4-3.6
		c-0.1-0.1-0.2-0.3-0.2-0.4c0-1,0.1-2.5,0.4-4.5c-0.1-0.1-0.4-0.2-0.8-0.2c-0.5,2.3-0.8,3.5-0.8,3.6l0.4,0.9c-0.1,2.1-0.1,4.6,0,7.3
		c0.3,3.1,0.4,5,0.6,5.7c0.6,2.8,1.7,4.8,3.2,6.2c0.3,0.4,0.3,0.8,0,1.1c0.1,0.1,0.3,0.3,0.6,0.6c0,0.4,0,0.8,0,1.3
		c0.4,0.9,1.1,1.9,2.3,3.2c0.6,0.5,1.8,0.9,3.4,1.1c0.6,0.4,1.1,0.6,1.3,0.6c0.5,0,5.7-2.7,15.4-8.1c-0.9,1-2.6,2.4-5.3,4.1
		c-3.3,2.1-5,3.3-5.1,3.6l0.2,0.9c0.8-0.4,1.9-0.9,3.6-1.5c0.4-0.5,1-1.2,1.9-2.1c0.6-0.4,6.2-3.2,16.6-8.5c-2.4,1.8-6,4.1-10.9,7
		c-0.1,0.1-0.4,0.4-0.8,0.9c0,0.1,0.3,0.2,0.9,0.2c0.3,0,0.6-0.3,1.1-0.8c0.5-0.6,0.8-0.8,0.9-0.8c6.3-3.1,10.9-5.4,13.9-6.8
		c5.3-2.4,10.2-4.3,14.7-5.7c2.8-0.9,5.5-1.8,8.1-2.6c3.8-1.3,6.9-1.9,9.4-1.9h0.9C860.3,492.6,860.5,492.9,861,492.9z M754.6,409.7
		l-0.4,0.4l-0.4-0.4l0.4-0.4L754.6,409.7z M756.5,409.5c-0.4,0-0.8,0.2-1.1,0.6v-1.3C755.8,408.7,756.1,409,756.5,409.5z
		 M757.4,408.1l-0.9,0.4v-0.4l0.8-0.4L757.4,408.1z M759.9,466.5c0,0.3-0.2,0.6-0.6,1c-0.4,0.4-0.6,0.8-0.6,1h-1.1
		c-0.8,0-1.1-0.5-1.1-1.5c0-1.3,0.5-1.9,1.5-1.9c0.3,0,0.3,0.1,0.3,0.3c-0.1,0.2,0,0.3,0.3,0.3c0.4,0,0.6-0.1,0.6-0.4
		C759.6,465.9,759.9,466.3,759.9,466.5z M760.3,406.1c-0.5,0-0.8,0.4-0.8,1.1l-0.8-0.8c-0.3,0.3-0.5,0.4-0.8,0.4
		c0-0.8,0.1-1.1,0.2-1.1C758.8,405.9,759.5,406.1,760.3,406.1z M759.9,417.6h-0.4l-0.4-0.6l0.4-0.2L759.9,417.6z M762,405.3
		c-0.3-0.3-0.6-0.3-1.1,0V404c0.3,0,0.5,0.1,0.8,0.4c0.1,0,0.3-0.1,0.4-0.4V405.3z M767.8,421.7c-0.5,1.3-0.8,1.9-0.8,2.1
		c-0.8,0.3-2.3,0.4-4.7,0.4C763.6,423.7,765.4,422.8,767.8,421.7z M764.4,475.9l-2.1,1.9v-3.2c0.1-0.9,0.8-1.2,1.9-0.9
		c-0.3,0.3-0.7,0.6-1.3,0.9c0.1,0.1,0.6,0.2,1.5,0.2V475.9z M765.4,404.2c-0.3,0.1-0.4,0.5-0.4,1.1c-0.1-0.3-0.4-0.6-0.8-1.1H765.4z
		 M766.3,505.7c-0.3-0.6-0.6-1.4-1.1-2.3c0.5,0.1,0.9,0.8,1.1,1.9V505.7z M774.4,383.1c-0.3,1.3-1.1,2.8-2.6,4.5h-1.7
		c0-0.4-0.2-0.8-0.6-1.1c0.5,0,0.7-0.3,0.6-0.9c0.8-1.4,1.9-2.4,3.4-3.2c0,0.1,0.1,0.3,0.4,0.4C774.1,382.8,774.3,383,774.4,383.1z
		 M771.9,414c-0.8-0.4-1.3-0.6-1.5-0.6l0.6,0.8c-0.8,0.4-1.1,0.7-1.1,0.9h1.1C771.6,414.5,771.9,414.1,771.9,414z M771.6,499.1
		c-0.1,0-0.4,0-0.8,0c-0.4,0.1-0.6,0.2-0.8,0.2c0,0.6,0.2,0.9,0.6,0.9C771,500,771.3,499.6,771.6,499.1z M771.8,498.4
		c-0.5-2.5-0.8-6.6-0.8-12.2c0-1.4,0-2,0-1.9c0.3-0.3,0.5-0.5,0.8-0.8V498.4z M789.7,529.6v-1.1l-0.8-0.8H788
		c-0.3,0-0.5,0.1-0.8,0.4c-0.3,0.3-0.5,0.4-0.7,0.4c-0.3,0-1.1-0.1-2.4-0.3c-1.4-0.2-2.5-0.3-3.4-0.3c0,0.1-0.1,0.3-0.2,0.6
		c-0.5-0.4-1.3-0.8-2.3-1.3c-1.8-1-3.8-2.4-6-4.3l-0.8,0.8c1,1.1,2.5,2.4,4.5,3.8c4.8,1.5,6.9,2.3,6.4,2.3c0.3,0,0.6-0.1,0.9-0.2
		c0.4,0,0.7,0,0.9,0c0.3,0,0.6,0.1,1.1,0.2c0.5,0.1,0.9,0.2,1.1,0.2c-0.4,0-0.8-0.2-1.1-0.6c0.6-0.4,1.2-0.6,1.7-0.6
		c0.5,0,0.6,0.1,0.4,0.2l-0.6,0.8H789.7z M772.3,398.4h-0.4l-0.4-1.3h0.4L772.3,398.4z M773.3,402.3l-0.4,0.2l-0.4-0.4l0.4-0.4
		L773.3,402.3z M775.2,531.1l-0.2,0.6l-0.9-0.4l0.2-0.6L775.2,531.1z M778.4,389.1c-1.3,3.8-1.9,5.5-1.9,5.1c0,0.6,0.1,1.1,0.4,1.3
		c-0.5,0.1-1.2,0.4-2.1,0.8c0-0.1,0.2-0.4,0.6-0.8c-0.1-0.1-0.3-0.2-0.6-0.2c0.3-1.8,0.8-3.7,1.5-5.8c0.1,0,0.5,0.3,1.1,0.9
		c0-0.1,0.1-0.3,0.4-0.7C778,389.5,778.2,389.2,778.4,389.1z M775.9,400.2h-1.1v-0.6h1.1V400.2z M777.2,404c0-0.6-0.5-1.4-1.5-2.3
		l0.6,0.6c-0.3,0.3-0.5,0.4-0.8,0.4c0.3,0,0.6,0.2,1.1,0.6c-0.4,0.4-0.6,0.8-0.6,1.1C776.6,404.1,777,404,777.2,404z M777.6,528.5
		l-1.1-0.8l-0.2,0.4l0.9,0.8L777.6,528.5z M778.7,499.7c-0.6,0.8-1,1.1-1.1,1.1c0.1-0.1,0.2-0.4,0.2-0.8c0-0.4,0.1-0.7,0.2-0.7
		C778.4,499.6,778.6,499.7,778.7,499.7z M778.7,533.8l-0.2,0.4l-0.8-0.4l0.2-0.6L778.7,533.8z M780.2,529.6l-1.1-0.4
		c0.1-0.1,0.4-0.3,0.8-0.6C780.1,529.1,780.2,529.4,780.2,529.6z M786.6,500.2c-0.3-1.5-0.7-3.7-1.3-6.6v2.6
		C785.3,496.9,785.8,498.2,786.6,500.2z M786.5,535.6h-0.8v-0.6h0.8V535.6z M788.3,501.9c-0.4-0.5-1.1-1-2.1-1.5
		c0,0.5-0.1,1.1-0.4,1.9c0.4,0.1,0.9,0.4,1.7,0.8c0.1-0.1,0.3-0.3,0.4-0.6C788.1,502.3,788.2,502.1,788.3,501.9z M790.6,506.8v-0.6
		h-3v0.6H790.6z M788.9,529.2h-1.1v-0.6h1.1V529.2z M796.1,478.6c-0.1,0-0.5-0.1-1.1-0.2c-0.5,0-1.4,0.2-2.6,0.5
		c-1.3,0.3-2,0.5-2.3,0.5c-0.3,0-0.5,0.1-0.8,0.3c-0.3,0.2-0.5,0.3-0.7,0.3c0.3,0,0.5,0.1,0.8,0.2c0.3,0.1,0.6,0.2,0.8,0.2
		c-0.3,0,0.3-0.3,1.7-0.9c0.3,0.3,0.3,0.4,0.2,0.6l-0.8,0.8h0.9c0-0.9,0.6-1.4,1.7-1.7C794.7,478.8,795.4,478.7,796.1,478.6z
		 M794.7,480.1l-1.1-0.8l-0.4,0.4l1.1,0.8L794.7,480.1z M794.7,525.7h-0.6l-0.4,0.8l0.6,0.2L794.7,525.7z M803.6,378.8
		c0,1.4-0.7,2.1-2.1,2.1c-0.5,0-1.8,0.2-3.8,0.6c0-0.1-0.1-0.4-0.4-0.8c0.8-0.6,2.3-1.4,4.7-2.3L803.6,378.8z M801.7,395.1h-1.1
		v-0.6h1.1V395.1z M802.3,451.6h-0.8v-0.6h0.8V451.6z M814.7,415.3v-0.6l-2.1,0.4v0.6L814.7,415.3z M818.5,474.6v-0.6h-0.9v0.6
		H818.5z M821.1,454.5l-0.4,0.8l-0.6-0.2l0.4-0.8L821.1,454.5z M821.5,416.8v-0.4h-0.8v0.4H821.5z M822.8,397.6v-0.4h-1.9v0.4H822.8
		z M824.3,416.8h-0.8v-0.4h0.8V416.8z M825.4,414.4h-0.9c0.3,0,0.4,0.3,0.4,0.9C824.9,414.7,825.1,414.4,825.4,414.4z M829.2,414.2
		v-0.6h-0.8v0.6H829.2z M839.6,400.2v-0.6h-0.9v0.6H839.6z M841.4,412.5h-1.5v-0.4h1.5V412.5z M853.7,397.4l-2.8,0.2V397l2.8-0.2
		V397.4z"/>
</g>
<g>
	<path class="st27" d="M319.2,316.3c0.4-1,0.7-1.9,1.1-2.6c0.6-1.1,1.3-2.3,2.3-2.9c0.9-0.7,2-1.1,3-1.3c4.4-1.1,8.8-1,13,0.4
		c3,1,5.7,2.5,7.5,5.5c1.9,1.6,2.1,4.3,3.6,6.1c0.2,0.4,0.2,1,0.2,1.4c0,1.5,0.3,6.5,0.2,7.9c0,0.8-0.2,4.4-0.4,5.2
		c0,0.4-0.3,0.8-0.4,1.2c-0.2,0.3-0.3,0.6-0.5,0.9c0,0.2,0,0.6-0.4,0.7c-0.2,0-0.4,0.6-0.4,0.8c-0.2,1.7-0.6,3-2,4.2
		c-0.2,0.2-0.2,0.8-0.4,1.3c-0.2,0.4,0,1.1-0.8,0.8c-0.2,0-0.5,0.3-0.6,0.6c-0.5,1-1.6,1.3-2.3,2.1c-0.7,0.9-1.7,1.3-2.8,1.9
		c-0.6,0.4-1.2,0.9-2,1.3c-1.5,0.8-3,1.4-4.8,1.4c-0.8,0-1.9-0.1-2.7,0c-1,0-2,0.2-3.2,0.2c-0.1,1.1-0.2,2-0.4,2.9
		c0,0.6,0,1.1,0,1.5c-0.2,1-0.7,1.4-1.6,1c-0.6-0.2-1.1-0.7-1.6-1.3c-1.5-1.8-1.9-4.3-2.2-6.6c-0.4-4.2-0.2-8.5,0-12.6
		c0.3-3.6,0.5-13.2,0.9-16.6c0.2-1.7,0.2-3.4,0.6-5.3C321.3,316.3,320.4,316.3,319.2,316.3z M329.3,344.7c1.9,0.3,4.7,0.3,5.9-0.7
		c0.7-0.4,1.1-1.2,1.7-2c0.6-0.4,0.8-1.6,1.6-1.9c0.4-0.3,0.6-0.9,1-1.3c-0.7-0.6,0.8-3.8,1-4.2c0.4-0.7,0.6-2.3,1-3
		c0.3-0.8-0.2-4.1,0-5.2c0.2-0.8,0.3-1.7,0.5-2.7c0.7-2.9-2.3-6.8-4.6-8.5c-2.2-1.7-4.6-2.1-7.4-2c-0.8,0.2-1.7,0.5-2.9,0.6
		c0.3,1.5,0.5,2.8,0.6,3.9c0.2,3.7,1.1,13.4,0.6,17.2c-0.4,3.3-0.2,6.6-1,9.8c0,0.2,0.2,0.3,0.2,0.6
		C328.2,345.2,328.7,344.6,329.3,344.7z"/>
	<path class="st27" d="M371,338.5c-2.5,1-5.2,1.1-8.1,1.3c-0.6,0-1.1,0-1.7,0c-1.3,0.2-1.6,0.4-2,1.6c-1,2.9-2,5.7-3.1,8.6
		c-0.3,0.9-0.7,1.6-1.3,2.3c-0.4,0.7-2.3,1.3-3.4,0.9c-0.3,0-0.6-0.2-0.9-0.3c0.5-1,0.7-2.1,1.1-3.1c1.1-3,1.9-6.1,2.9-9.1
		c0.2-0.2,0.3-0.6,0.5-1c-1.1-0.2-1.9-0.7-2.8-1c0.9-1.1,2-1.7,3.2-2.1c0.6-0.2,0.8-0.6,1.1-1.3c1.4-4.2,3.3-8.2,5.4-12.2
		c1.1-1.7,1.9-4.8,2.8-6.6c0.8-1.6,1.7-3,3.1-4c0-0.2,0.2-0.2,0.2-0.3c1.1-2.1,3.4-1.7,5.3-2.1c1.1-0.3,1.8,0.4,2.3,1.6
		c1,3,1.8,7.6,2.3,10.7c0.2,1.9,0.7,3.6,1,5.3c0.2,2.1,0.2,4.2,0.4,6.1c0.3,2.3,0.3,4.8,0.4,7c0.2,2.6,0.5,5.2,0.3,7.8
		c0,1.7,0.2,3.5-0.6,5.3c-0.4,0.6-0.6,1.2-1,1.8c-0.5,0.7-1.3,0.7-2,0.6c-0.7-0.1-1.4-0.6-2-1.2c-1.7-2.6-1.9-5.3-2-8.2
		c-0.2-2.9-0.2-5.7-0.2-8.6C371.6,338.4,371.3,338.4,371,338.5z M369.9,319.9c-1.9,0.2-3.5,2-4.9,5.2c-1.5,3.3-3,6.4-3.6,9.8
		c0.3,0.2,0.4,0.2,0.6,0.2c2.7-0.4,5.5-0.4,8,0.7c0.6,0.2,1.1,0.8,2,0.2C372.1,329.5,371.2,326.5,369.9,319.9z"/>
	<path class="st27" d="M384,319.8c-0.7-0.6-0.6-1-0.3-1.6c0.9-1.3,1.7-2.8,2.7-4c0.5-0.6,0.9-1.3,0.9-2.2c0.2-0.7,0.2-1,1.1-0.7
		c0.7,0.1,1.6,0,2.3-0.2c2.5-0.9,5-0.7,7.5-0.6c3.6,0.2,7,1.1,10.5,2.1c1.6,0.4,2.7,1.5,3.8,2.6c1,0.8,1.1,2,0.7,3.4
		c-0.5,1.6-0.6,4.4-1.7,5.8c-0.3,0.3-0.6,0.6-0.9,0.9c-2.5,2-5.2,4-7.7,6c0.8,0.9,1.6,1.7,2.4,2.6c1.5,1.7,3,3.3,4.3,5
		c1,1.5,1.9,3.2,2.7,4.9c0.2,0.1,0.3,0.4,0.3,0.6c-0.2,1.7,0.7,2.9,1.6,4.3c0.7,1.1,2,5.7,1.6,6.9c-0.2-0.2-0.6-0.4-0.7-0.6
		c-2.9-2.5-5.7-5-8-8c-2.1-2.5-4.3-5.4-6.4-8.2c-1.1-1.4-2.3-5.4-4.5-5.2c-0.1,0.2-0.2,0.5-0.2,0.6c0,1.5-0.2,2.9-0.2,4.2
		c0,0.4,0,0.9-0.2,1.1c-0.1,1.9-0.4,3.6-0.6,5.5c-0.2,1.8-0.6,3.7-0.8,5.7c-0.2,1-0.3,1.8-0.4,2.9c-0.3,1-1.1,1.7-1.6,2.5
		c-0.1,0.2-0.4,0.3-0.7,0.3c-1.3,0-3-1.3-3.6-2.6c-1-2.9-0.9-5.7-1-8.6c-0.2-3.6,0.4-7.1,0.6-10.7c0.2-4.4,0.1-10.3,0.2-14.9
		c0-0.4,0-0.9,0-1.3C386.3,318.9,385.2,319.4,384,319.8z M403.5,315.8c-0.5-0.2-0.9-0.3-1.3-0.4c-2-0.5-4.2-0.7-6.1-0.3
		c-1.1,0.3-1.1,0.4-1.1,1.5c0.5,1.6,0.9,3.1,0.9,4.8c0,0.2,0.2,4.4,0.2,4.6C398.4,325.4,405.2,323.6,403.5,315.8z"/>
	<path class="st27" d="M427.2,332.2c0.2,0.6,0.3,0.7,0.3,1c4.3-1.1,8.8-1.2,13.4-0.1c0,0.1,0,0.2,0,0.4c-1.5,1.3-2.3,2.9-4.2,3.6
		c-0.4,0.2-0.6,0.4-0.9,0.6c-2.3,0.4-4.6,1-6.7,1.4c-0.2,0-0.4,0-0.8,0.2c-0.9,0.2-1.6,0.6-1.5,1.6c-0.2-0.2-0.6-0.7-0.8-1.3
		c0.1,0.7,0.1,1.3,0.1,1.7c0.3,0.7,0.3,1.6,0.5,2.2c0.2,1.4,0,2.5,0,3.8c0,0,0.1,0.2,0.4,0.2c0.8-0.1,2.1-0.2,3.1-0.4
		c3.4-0.7,6.9-0.7,10.5-0.4c1.6,0.2,3.3-0.2,5-0.2c0.5,0,0.7,0,1.3,0c0.3,0.6,0,0.9-0.6,1.1c-0.6,0.3-1.3,0.6-1.9,0.9
		c-1.7,0.7-3.4,1.4-5.2,2.1c-2.5,1.1-5.2,1.3-7.6,2c-1.6,0.2-3.3,0-4.8,0.7c-0.2,0.2-0.7-0.2-1.1-0.2c-0.2,0-1.6-0.1-1.8-0.1
		c-0.5-0.2-0.9-0.2-1.1-0.3c-1.1-0.7-2.3-1.7-3.4-2.5c-1-0.7-1.2-1.8-0.6-2.5c0.6-1.1,0.2-2.5,0.2-3.8c0-1.2-0.2-2.7-0.2-4
		c0-0.7-0.3-1.1-0.9-1.7c-0.2-0.1-0.4-0.6-0.7-0.8c0.2-0.3,0.2-0.3,0.2-0.4c1.1-0.7,1.1-2,1.1-3.4c-0.2-4.6-0.4-9.3-0.2-13.8
		c0.1-0.5,0-0.7,0-1.1c-1.6-1.4-2.9-2.7-4.3-4c0.9-0.4,1.5-0.7,2.3-1.2c0.7,0.6,1.6,0,2.6-0.5c0.2-0.1,0.2-0.6,0.2-0.8
		c0-0.9,0-1.9,0.2-2.7c0.7-0.2,1.4-0.3,2.1-0.3c0.6,0,1.3,0.3,1.6,0.7c0.7,1,2.5,1.4,3.6,1.1c2-0.4,4-0.6,5.9-0.9
		c3.5-0.4,7.1,0.6,10.3,2.3c1.1,0.6,1,0.9,0.2,1.6c-1.9,1.4-4.2,1.8-6.7,2.3c-2.6,0.4-5.5,0.8-8.2,1.4c-1.3,0.4-1.3,0.4-1.1,1.6
		c0.3,1.1,0.2,1.9,0.4,2.8c0,0.6-0.4,1-0.6,1.2c-0.4,2.6-0.2,5.1-0.4,7.6c0,0.6,0.3,1.5,0.6,2.3C426.9,333,427.1,332.8,427.2,332.2z
		"/>
	<path class="st27" d="M462.6,349c2.6,0.2,5,0.2,7.5,0.4c1.5,0,2.7-0.2,4-0.7c0.4-0.1,0.9-0.1,1.3-0.2c0.2,0.6,0,0.8-0.3,1
		c-1.1,0.7-2.1,1.7-2.9,2.6c-1.3,1.1-2.8,2-4.6,2.3c-2.5,0.2-4.9,0.6-7.4,0c-2.1-0.4-4.3-1.1-6.3-1.7c-2.1-0.7-3.4-2.6-4.7-4.3
		c0.1-0.2,0.1-0.2,0.2-0.2c1.1-0.7,1.3-1.7,1.5-2.9c0.1-1.3,0.6-2.5,1-3.8c0.4-1.1,1-2.3,1.9-3.3c0.6-0.7,0.7-1.7,1.1-2.5
		c1.4-2.5,3.7-6.9,5.2-9.6c1.1-2,2.3-4.2,2.7-6.5c0.2-0.6,0.7-1,0.7-1.6c0.4-1.5,0.6-3,0.8-4.6c0-0.2-0.2-0.3-0.2-0.4
		c-1.5,0.1-2,1.2-2.9,2.3c-0.9,1-1.7,2.1-2.6,3.4c-0.8,1.1-1.6,2.4-2,4c-0.3,1-0.9,1.8-1.5,2.9c-0.8-0.2-1.4-0.4-2.1-0.7
		c-0.7-0.2-1.6-0.5-2.5-0.7c-1-0.3-2-0.7-2.5-1.5c0.7-1,1.2-1.8,1.8-2.9c1.7-2.9,3.8-6,6.6-8c1-0.8,2.3-1.2,3.4-1.7
		c1.1-0.4,2.3-0.6,3.4-0.7c0.8,0,1.7,0.1,2.5,0.2c0.9,0.2,1.9,0.3,2.8,0.6c1.4,0.4,2.3,1.6,2.7,2.9c0.8,2.9,1.3,5.7,0.4,8.6
		c-0.7,2.5-1.4,4.9-2.3,7.2c-0.7,2.1-2.3,5.7-3.3,7.7c-0.3,0.9-0.7,1.6-1.3,2.3c-0.2,0.4-0.6,0.7-0.8,1c-0.6,0.6-1.1,1.1-1.5,1.7
		c-1.3,2.3-2.7,4.5-4.2,6.9C460.1,348.9,461.3,349,462.6,349z"/>
	<path class="st27" d="M479.4,349.3c1.3-0.4,1.6-1,1.3-2.4c-0.6-2.5-0.6-4.9-0.6-7.4c0-3.8,0.3-7.9,0.6-11.7c0-1.1-0.2-4-0.2-5.2
		c-0.2-0.3-1-0.6-1-1c-0.2-0.6-0.2-1.5,0.3-1.9c1.2-1.9,1.1-4,1.1-6.1c0-0.6-0.2-1.1-0.2-1.7c0-0.8,0.2-1.1,1-1.1c1,0.2,2,0.2,3,0.5
		c0.4,0.1,0.8,0.2,1.1,0c2.7-1.3,5.4-1.7,8.3-1.6c2.3,0.2,4.5,0.6,6.8,1.1c1.6,0.1,2.7,1.2,3.5,2.5c0.3,0.3,0.3,0.6,0.3,0.9
		c0.4,2.5-0.4,5-1.7,7.1c-1.5,2.1-2.7,6.1-4.3,8v0.2c1.6,0.4,3,0.7,4.6,1.1c1.5,0.4,2.9,1,3.9,2.5c1,1.1,1.1,2.4,1.1,4
		c-0.2,2.3-1.3,4.1-2.3,6.1c-1.1,2-2.8,3.6-4.5,5c-2.1,2-4.4,3.6-7.1,4.6c-2.9,1.1-5.9,1.6-8.9,1.5c-0.8,0-1.6-0.2-2.4-0.3
		c-0.9-0.1-1.9-0.2-2.9-0.4c-1.3-0.2-1.6-0.4-1.9-1.7c0-0.6-0.2-1.1-0.2-1.6c0-0.3,0-0.5,0.2-0.7
		C478.9,349.4,479.2,349.4,479.4,349.3z M487.6,328.6c1.6-1.4,3-4.7,4.3-6.4c1.1-1.6,2.5-2.9,3.4-4.6c0.7-1.1,1.2-2.5,1.6-3.8
		c-3-1-8.4,0.2-10.6,2.3c-0.2,0.3-0.4,0.7-0.4,1.1c0.2,2.7,0.4,7.2,0.6,9.9c0,0.6,0,1.1,0.2,2C487.1,329,487.5,328.8,487.6,328.6z
		 M489.4,347.9c1-0.4,2.3-0.9,3-1.7c0.8-1,1.7-1.5,2.7-2c1-0.4,1-0.2,1.3-1c0-0.2,0.2-0.4,0.2-0.6c1-1.3,2-2.5,2.9-4
		c0.8-1,1.7-2.1,1.8-3.6c-1.6-0.7-3.3-1.1-5-1.1c-1.7,0-3.1,0.5-4.8,1.1c-1.7,0.6-3.4,1.2-5.2,2c0.1,4-0.5,7.9,0,11.9
		C487.4,348.5,488.4,348.3,489.4,347.9z"/>
	<path class="st27" d="M522,332.2c0.2,0.6,0.3,0.7,0.3,1c4.3-1.1,8.8-1.2,13.4-0.1c0,0.1,0,0.2,0,0.4c-1.5,1.3-2.3,2.9-4.2,3.6
		c-0.4,0.2-0.6,0.4-0.9,0.6c-2.3,0.4-4.6,1-6.7,1.4c-0.2,0-0.4,0-0.8,0.2c-0.9,0.2-1.6,0.6-1.5,1.6c-0.2-0.2-0.6-0.7-0.8-1.3
		c0.1,0.7,0.1,1.3,0.1,1.7c0.3,0.7,0.3,1.6,0.5,2.2c0.2,1.4,0,2.5,0,3.8c0,0,0.1,0.2,0.4,0.2c0.8-0.1,2.1-0.2,3.1-0.4
		c3.4-0.7,6.9-0.7,10.5-0.4c1.6,0.2,3.3-0.2,5-0.2c0.5,0,0.7,0,1.3,0c0.3,0.6,0,0.9-0.6,1.1c-0.6,0.3-1.3,0.6-1.9,0.9
		c-1.7,0.7-3.4,1.4-5.2,2.1c-2.5,1.1-5.2,1.3-7.6,2c-1.6,0.2-3.3,0-4.8,0.7c-0.2,0.2-0.7-0.2-1.1-0.2c-0.2,0-1.6-0.1-1.8-0.1
		c-0.5-0.2-0.9-0.2-1.1-0.3c-1.1-0.7-2.3-1.7-3.4-2.5c-1-0.7-1.2-1.8-0.6-2.5c0.6-1.1,0.2-2.5,0.2-3.8c0-1.2-0.2-2.7-0.2-4
		c0-0.7-0.3-1.1-0.9-1.7c-0.2-0.1-0.4-0.6-0.7-0.8c0.2-0.3,0.2-0.3,0.2-0.4c1.1-0.7,1.1-2,1.1-3.4c-0.2-4.6-0.4-9.3-0.2-13.8
		c0.1-0.5,0-0.7,0-1.1c-1.6-1.4-2.9-2.7-4.3-4c0.9-0.4,1.5-0.7,2.3-1.2c0.7,0.6,1.6,0,2.6-0.5c0.2-0.1,0.2-0.6,0.2-0.8
		c0-0.9,0-1.9,0.2-2.7c0.7-0.2,1.4-0.3,2.1-0.3c0.6,0,1.3,0.3,1.6,0.7c0.7,1,2.5,1.4,3.6,1.1c2-0.4,4-0.6,5.9-0.9
		c3.5-0.4,7.1,0.6,10.3,2.3c1.1,0.6,1,0.9,0.2,1.6c-1.9,1.4-4.2,1.8-6.7,2.3c-2.6,0.4-5.5,0.8-8.2,1.4c-1.3,0.4-1.3,0.4-1.1,1.6
		c0.3,1.1,0.2,1.9,0.4,2.8c0,0.6-0.4,1-0.6,1.2c-0.4,2.6-0.2,5.1-0.4,7.6c0,0.6,0.3,1.5,0.6,2.3C521.8,333,522,332.8,522,332.2z"/>
</g>
<linearGradient id="XMLID_34_" gradientUnits="userSpaceOnUse" x1="273.2253" y1="153.1647" x2="551.5062" y2="679.7322">
	<stop  offset="0" style="stop-color:#F3C715"/>
	<stop  offset="0.1129" style="stop-color:#D98427"/>
	<stop  offset="0.2366" style="stop-color:#D8522A"/>
	<stop  offset="0.3656" style="stop-color:#EC1E24"/>
	<stop  offset="0.4946" style="stop-color:#E82185"/>
	<stop  offset="0.6183" style="stop-color:#A24598"/>
	<stop  offset="0.7634" style="stop-color:#5B3794"/>
	<stop  offset="0.8925" style="stop-color:#4A51A1"/>
	<stop  offset="1" style="stop-color:#378CCB"/>
</linearGradient>
<path id="XMLID_426_" class="st28" d="M666.2,265c-4.6-1.6-8.7-2.8-10.6-2.5c-0.8-0.9-2.2-1.9-3.9-2.8c-0.4-0.2-0.9-0.5-1.4-0.7
	c-0.2-0.1-0.5-0.2-0.7-0.4c-0.2-0.1-0.6-0.3-0.7-0.3c-0.6-0.3-1.2-0.6-1.8-0.9c-2.6-1.2-5.7-2.1-9-3c-6.6-1.7-13.8-3.1-18-4.8
	l-1.1,2.3c-6-2-12.1-3-19.9-4.3l-0.2,2.3c-7.1-0.2-16.2-6.6-26.6-9.4c1-0.6,3.5,0.4,5.2,1.4c-10.8-8.5-27-4.3-37.1-11.2
	c-3-0.1-4.9-0.9-6.7-2.1c0.3,0.1,0.5,0.1,0.7,0.1c-0.3-0.1-0.7-0.2-1.1-0.4c-1.1-0.7-2.2-1.5-3.5-2.3c1,0.9,2,1.6,2.9,2.1
	c-2.2-0.6-5.5-1.3-8.8-1.7l-0.6-2.7c-0.3,0-0.5-0.1-0.8-0.2c-2.9-1.8-2.9,0.3-1.7,2.6c-1.7-0.1-3.3-0.1-4.6,0.1
	c-1.4-4.5-8.7-1.3-11-6.3c-2.5,1.2-14.5-2.7-18.6-0.5c-3.4-1.5-6.8-3-10.3-2.8l-0.6-3.4l-9,1.6c-4.1-3.2-5.8-4.8-0.4-5.7
	c-12.4,0.1-9.6-1.5-20.2-0.9l1.1-1.8c-3.5-1-9.7-0.1-11.3-2.3c-6.5-5.9-37.8-11.9-56.5-21.2c2.1,6.7-8.4-5.3-10.5-1.2
	c-0.7-1.7-3.2-3.2,0.3-3.4c-10.5-1.7-14.5-6.6-22.5-5.1c-0.7-1.7,2.8-1.3,2-2.4c-0.9,0-3.6,0.2-4.4-0.9c-0.8-1.1,1.8-0.7,3.6-0.8
	c-10.3-2.9-12.7,0.9-14.6,4.5c-4.6-3.4-7.3-3.9-11.9-2.5c-1.4-1.8-4-4,2.5-2.5c-3.5-1.3-21.4-8.4-22.7-5.5c-0.4-0.6-1.7-1-2.9-1.3
	c-0.6-0.1-1.3-0.3-1.8-0.3c-0.3,0-0.5-0.1-0.7-0.1c-0.2,0-0.5,0-0.7,0c-10.7-3.4-11.9-4.1-22.4-6.9l3.2,1.5c-0.8,1.2-1.9,1.4-3.4,1
	c-0.4,1.6-1,2.9-1.8,4.5c-0.8,1.7-1.6,3.7-2.3,6.4l-0.2-0.5c-8.4,17.5-1.4,8.9-9.1,22.7l2.5-0.1c4.5,2.8-6.9,11.9-7.7,20.8l2.3-2.6
	c0.3,5.1-10.7,10.7-12.8,15.1c-0.7,0.9-0.2-1.8-0.1-3.3c-6.7,11.1,2.5,2.5,0.4,11.6c-2.1,1.2-3.5-3.4-5.7,2.6
	c-2.3,2.6-0.2,19.1-5.9,26.3c1.8-1.4,3.6-2.9,3.3,1.6c-1.6,6.5-10.1,15.8-8,22.7c-0.6,0.7-1,0.9-1.3,0.9c-0.5,5.2-3.3,16.3-2.1,19.9
	c-9.3,2.1-5.7,31.4-12.9,29.1l-4.3,15.1l-0.6-0.6c-3.5,9.4-2.8,13.3-2.1,17.2c-1.2,2.1-1.4,0.2-1.7-0.1c-5.9,13.6-6,15-6,27.9
	l-2.8,0.5c0.4,3.6-10.1,19.1-11.6,33.7c-0.2-0.2-0.6-0.6-0.6-1.8c-2.1,16.3-18.2,35-11.3,43.3l-1.1,10.8c4.8-13,3.1,3.1,6.3-1.9
	c-1.1,5.3-6.8,12.6-5.3,6.1l0.7-0.9c-3.8-3.7-6.7,15.9-9.7,14.6c-2.5,8.2-5.3,16.3-8.1,24.3c-0.7,2.1-1.5,4.1-2.2,6.2
	c-1,2.9-2,5.9-3.1,8.8c-2.1,6-4.2,12-6.3,18c6.8,2.3,13.6,4.5,20.3,6.8c3.1,1,6.2,2,9.3,3c2.2,0.7,4.5,1.4,6.7,2.1l-1.7-4.3l8.4,2.8
	c2,1.5,2.1,3.6-3.9,1.7c2.6,2.9,10.7,1.4,11.1,0.7c11.4,5-5.9,2.7-2.3,3.9l5,1.2l-1-0.7c4.4-0.2,5.3-1.6,12.5,0.7
	c4.4,2.1,1.7,2.9,3.5,3.6c-0.1,0.2,0.5,0.5,2.7,0.9l10.6,3.5l-3.4-4.1c5.2,0.1,10,3.2,6.1-1.4c5.7,7,39.3,13.8,43.3,16.6
	c7.3,0,13.8,2,21.8,4.7c-1.8-1.2-2.1-4.7,4.8-2.2c-4.5,5.5,11.2,6.6,15.8,12.5c-2-3.4,20.2,5.4,13.9-1c5.7,2.3-0.4,2.5,3.6,5.3
	c14.7,1.7,30.1,10.8,47.6,15.2c0.5-0.8-1.9-2.9,2.1-3.1l7.3,6.6c2.2,3.6,1.7,0.1,5.6,4.9c-2.9-5.3,16.5,4.8,13-0.2
	c3.8,4.7,8.2,3.9,13.6,9.1c0.1-1-1.8-2.6,4-0.3c0.4-0.2,1.1-0.4,1.6-0.5c0.2,0.1,0.2,0.1,0.4,0.2c-0.1-0.1-0.2-0.1-0.3-0.2
	c0.3-0.1,0.3-0.1-0.1-0.1c-1.3-0.9-2.3-1.7-2.6-2.4c2.6-0.9,8.1,0.3,12.4,1c1.7,0.5,3.5,1,5.2,1.4c-0.6,0.2-2.1,0.3-1.1,1.3l4.9-0.3
	c0.1,0,0.3,0.1,0.4,0.1c0.1,2.3,8.1,6.2-0.5,5l7.5,2.4c4,2.5,10,4.8,14,5.1c3.4,1.5,9.7,0.3,6.1,1.1l12.2,2.2l-0.1,0.6
	c4.8,1.6,10,2.5,15.2,3.6c0.4,0.2,0.8,0.4,1.2,0.6c-0.3-0.2-0.5-0.4-0.7-0.5c7.2,1.5,14.5,3.4,21.4,7.9c1.6,0.3,3.2,0.7,4.9,1
	c1.7,0.4,3.5,0.8,5.3,1.3c3.8,1,7.9,2.2,13.4,4.2c1,1,2,2,3.1,3c1.4,0.3,3.1,0.8,5,1.4c1.5-4.4,3.5-9.3,5.1-13.9
	c1.6-4.6,2.9-8.7,2.6-10.6c0.9-0.8,1.9-2.2,2.9-3.9c0.2-0.4,0.5-0.9,0.7-1.4c0.1-0.2,0.2-0.5,0.4-0.7c0.1-0.2,0.3-0.6,0.3-0.7
	c0.3-0.6,0.6-1.2,0.9-1.8c1.2-2.6,2.2-5.7,3.1-9c1.8-6.6,3.2-13.7,5.1-18l-2.3-1.1c2-6,3.2-12.1,4.6-19.9l-2.3-0.2
	c0.3-7,6.8-16.2,9.8-26.6c0.6,0.9-0.4,3.5-1.5,5.2c6.4-8,5.9-18.8,8-28l-1.9-5.7c0.7,3.2-4.1,12.1-4.5,15.3l-2.2,1.6l-0.8,8.8
	c-1.6-4-4.2-18.2-5.8-26l-4.5,6c2.9,2.3,1.8,13.4-1.9,23.4c-2.2,2.5-5.1-3.9-6.2-4c0.6,1.8-1.3,11.4-2.4,12.2l-0.2-5.3
	c-3.2,5.9,1,11.6-4.4,18.2c-1,2.5-6.6,6.5-4.8,7.6c5-3.1,16.6-0.6,18.5,3.1c-0.5,0.8-7.8,12.6-10.6,15.1c-4.2,3.4-4.8-8.5-8.5-5.6
	c0.8,0.4,1.2,3.1,1.2,4.2c-1.6,2.5-2.4-2-3.8,4.1c3,2-4.1,12,1.9,3.6c-0.9,6.1-2.6,6-4.6,12.9c1.4-0.8,2.7,1.3,3.6,4.3
	c0.4,1.5,0.8,3.2,0.8,5.2c0.1,1.9,0,4-0.3,5.9c-0.6-1-2-0.4-2.6-0.2c-1,3-2,5.6-2.9,7.8c-3.6-1.4-6.8-2.7-9.8-3.9
	c-1.5-0.6-3.1-1.2-4.7-1.8c-0.3-0.1-0.7-0.2-1-0.4c-1.1-1.8-1.8-3.4-1.1-4.7c-2.1,0.5-4.3,0-6.5-1.1c0,0,0.1,0,0.1,0
	c0,0-0.1,0-0.1,0c-0.9-0.4-1.8-0.9-2.7-1.4c0.4-0.2,0.4-0.7-0.5-1.8c-0.2,0.3-0.7,0.6-1.4,0.7c-5-3.1-10.6-6.6-17.7-5.2
	c-2.2-1.7,2.5-0.8,1.6-2.3c-3.4,1.1-6.9,0.5-12.9-2.3l0.9-0.3c-17.8-4.8-24.8-9.1-44.2-16.3l0.8,2.7c-4.2-1.6-4.8-2.6-6.7-3.7
	c-6,2,11.9,3.8,6.3,6.2c-4.2-6.3-30-9.1-32.2-15.5c-6.5-2,1.1,3.2-5.4,1.2l-1.3-1.9l-2.2,1.3c-4.2-1.6-5.8-4-5.6-5.3
	c1,0.5,3.1,0.6,4.2,0.8c-4.7-3.1-14.4-4-17.1-5.1l5.5,2.5c-18.3-4.1-39.6-12.5-57.7-14.8l1,1.5c-13.8-2-10.2-4.4-25-7.8l0.6-0.1
	c-3.2,0.2-7.3-0.4-11.2-1.8c4.1-0.1-6.1-4.5-0.9-4.4c-15-2.2-7.6-0.5-18.3,0.7l-1.6-2.4c-3.7,0.6-4.3,1.4-11.6-0.3
	c6.4,0.3-3.8-4.1,3.5-4.1c-14-8.5-23.8-2.9-29-10.7c-8.5,2.8,12.3,6.7,8,6.6c2.8,2.6-6.9,1.9-11.5,0c-4.8-1.6-6.3-8.8-18.5-12.3
	c1.2,0.4,1.4,0,2.6,0.4c-4.2-2.6-9.5-1-14.4-4.7c-4.1,2-7.2-2.4-9.3,1.1l11.5,2.5c-6.7-0.9-14,1.7-23.8-3.6c1.1-0.5,4.5-0.6,6.8-0.5
	c-2.7-2-6.1-1-8.9-3.1c2.1-3.5,13.9,3.3,21.6,2.4c-2.8-2.6-13.7-1.1-9-4.2c-3.3,1.9-6.2,0.8-9.6-0.6c-1.7-0.7-3.4-1.4-5.4-1.9
	c-0.5-0.1-1-0.2-1.5-0.3c-0.4-0.1-0.6,0-0.9,0c-0.6,0.1-1.2,0.3-2.1,0.6c0.5-0.7,1-1.4,1.5-2c-0.7,0.2-2.7,0.8-3.9,0.3
	c1.6-0.6,2.9-1.3,4-2c-1.3,0.5-2.2,0.3-2.7-0.1c-0.5-0.4-0.6-1.1-0.7-1.5c0.8-1,1.3-1.6,0.9-2.1c-0.4,1.2-0.9,1.9-1.5,2.4
	c-0.3,0.4-1.3,0.8-2.3,1.3c-1,0.4-1.9,0.9-1.6,1.6c-0.5,0-1-0.1-1.5-0.1c0-1.6,0.6-3.1,1.4-4.1c0.9-1.1,2-1.8,3.1-2.4
	c2.3-1.8,3.5,0.6,6-8.8c-1,2.9-4.1,7.7-3.9,3.9c1.6-3.4,3.9-7.8,5.8-9.6c3.4-12.4-2.9,1.2-2.7-4.5c4.1-3.3,0.8-6.4,1.6-12l2.3,0.7
	c5.9-13.5-3.6-5.2,2.1-17.2l1.5,6.3l1.2-6.8l2.2,2.1c0.3-7.7,1.5-9.8,4.4-16.6c-2.1,1.1-3.9-2.2-2-8.4c2.7-3.8,1.5,3,3.9-5.9
	c0.8,2.4,2,5.1-1.4,8.3c0.6,0.6,0.8,2.4,1.5,3c3-4.1,4-11.3,4.9-14.5c-0.5,1.2-1.1,2.6-1.6,3.3l0.8-13.7c1.5-1.7,1.7,0.1,1.9,1.8
	c0.6-2.7,0.1-4.8,1.1-8.6c1.6,1.5,3.6,1.9,2.8,7.5l1.7-12.8c1.1-0.6,4.2-5.6,4.4-3.8c3.2-6.4,1.5-17.6,5.8-26.1
	c-0.2-0.6-0.3-1.6,0.1-3.6c3.1-8.3,7.7-15,8.2-25.7l5.1-4.6c1.7-8-6.6,6.4-3.8-7c1.8-9.5,3.9-2.6,5.9-5.5c-0.3-5.1-1.2-14,4.2-21.6
	c-0.2,3-1.4,5-2,7.7l3.9-5.9c0.6,8.7-2.2,14,2.3,8.7c-6.2-2.9,7.2-25.2,1-28l2.7-3.8c-0.4,1.2-0.1,1.5-0.6,2.7
	c5.7-7.3-2.8-7.5,1.5-17.9c1.7-3.5,3.4-5.8,3.4-3.1l1-8.7c0.7-2,1.5-1.6,1.2-0.1l3.1-11.7l0.2,0.2c-0.5-2.1-0.8-6.6-0.8-8.8
	c1.9-2.9,0.2,1.8,1.3,1.2l0.6-7.4c2.6-2.3,2.4,3.9,0.6,8.7c8.5-4.5,0.2-6.3,8.4-19.1l-1.2,6.8c5-3.1,5.3-8.7,9.9-15.4
	c-1.8,1.4-10.5,13.1-9.7,5.1c1.2-2,2.3-4.7,2.2-9.2c2.3,0.7,3-3.5,4.4-8.5l3,1.3c0.8-5.6-0.9-5.7-1.3-9.3c2.2-5.9,4.9-6.4,7.4-7.2
	c3.5-9.5-5.9,5.5-2.9-6.1c3.7-7.6,4.2-13.6,5.4-23.7c0.7-1.3,1.2-2,1.4-1.9c0.3,0,0.5,0.1,0.6,0.4c0.2,0.8,0.3,2.1,1,1.2l-0.1-0.7
	l-0.1-0.4c0-0.1-0.1-0.1-0.1-0.2c-0.2-0.2-0.3-0.5-0.4-0.7c-0.3-0.5-0.6-1.1-0.8-1.7c0.2-0.6,0.9,0.1,1.2,0.4
	c-0.2-1.2-0.8-1.7-1.4-2.5c-0.6-0.7-1.1-1.6-0.8-4.1c-1-1.8,0.2-3.2,1.6-4c1.8,1.3,3.6,2.6,5,3.4c1.4,0.8,2.6,1,4,0.2
	c0.5,0.6,0.3,1.1,0,1.5c-0.3,0.5-0.6,1-0.5,1.7c0.6-0.2,1.2-0.3,1.7-0.4c0.1-0.1,0.8,0,1.3,0c0.5,0,0.9,0.1,1.3,0.1
	c1.7,0.1,2.9,0.2,4,0.3c2.3,0.1,4.4,0,9.5-0.3l7.2,4.4c-5-4,3.2-4.5,10.3-4.8c-1.7-1.7-3.1-3.2-4.1-4l10.8,1.4
	c1.1,0.9-0.3,1.6-2.4,2.4c0.8,0,1.5-0.1,2.1-0.2c3.3,2.2,0.9,3.4-2.3,4.3c-1.1-1-2.1-2-3.1-3c-3.1,1.1-6.1,2.4-6.2,4.4
	c0.8-0.2,2.2-0.1,3.6,0.2c-0.8,0.3-1.4,0.6-1.2,1c0.2,0.4,1.5,0.1,3.4-0.2l1.3,4.1l1-1.2l12.7,6.2c10.7-0.5,20.6-3.1,36.2,0.1
	c-4.6,1.4-2.1,3.8-3.2,6.7c-3.2-4.4-12.2-2.2-19.9-5.2c4,1.6,2.7,2.7,1.5,2.9l15,1.4c-1.1,2.3,2.4,2.7,5.8,4.8
	c-1.3-5.6,11.5,0,17.7,0.2c-0.2,1.7-2,2.9-8.9,0.5c6.6,5.9,11.7-2.6,18.3,2.7c-1.7-0.5-2.6-1-3.5-0.4c4.4-0.2,13.8,3.8,11.1,4.5
	l-1.7-0.5c11.1,4,34.4,10.4,37.4,6.9c-0.1,0.6-3,4.5-4,5.1l24.5-7.6c-2.9,3,1.3,13.3-8.7,12.5c2.5,1.3,5.7,2.9,11.8,3.4
	c-1.7-1.1-3-6.4-0.4-6c5.7,6,4.1,3.5,11.6,9.4c-2.5-1.6,2.3-6.1,6.6-4.6c-0.9,0.6-1.3,5.5-3.1,5.6l12-2c-2.3,0.7-1.2,4.5,0.6,6.6
	c-0.8-1.4,9.3,2.9,12.4,3.3l-4.2-2.6c12,4.5,14.5-3.9,26.5,0c-1.8,0.7-5.8,5.7,0.2,8.3c3.7-1.9,16.7-9.5,28.1-8.4l1.6,2.2l8.8,0.7
	c-6.4,2.6-23.6,7-32.5,8c4.2,2.6,0.7,2.2,7.6,4.2c2,2.2-4.4,1.1-6.5,0.6l15.7,5.8c0.3-3.4,13.2,0.5,13.5-2.4l-18.4-1.9
	c0.3-3.4,12.9-6.1,24-2.1c2.5,2.1-3.9,5.1-4.1,6.2c1.8-0.7,11.4,1.1,12.2,2.2l-5.3,0.3c5.9,3.1,11.6-1.2,18.2,4.2
	c2.5,1,6.5,6.5,7.5,4.7c-3.1-5-0.4-16.6,3.3-18.4c0.8,0.5,12.6,7.6,15,10.4c3.4,4.2-8.6,4.9-5.7,8.5c0.4-0.8,3.1-1.2,4.2-1.2
	c2.5,1.6-2,2.4,4.1,3.8c2-3,12,3.9,3.7-1.9c5.8,0.8,6,2.4,12,4.2l-1.1,3.6c0.9,0.1,1.8,0.2,2.7,0.3c1.3,0.7,2,1.2,1.9,1.4
	c0,0.3-0.1,0.5-0.5,0.6c-0.8,0.2-2.1,0.3-1.2,1.1l0.7-0.1l0.4-0.1c0.1,0,0.1-0.1,0.2-0.1c0.2-0.2,0.5-0.3,0.7-0.4
	c0.5-0.3,1.1-0.6,1.7-0.8c0.6,0.2-0.1,0.9-0.4,1.2c1.2-0.2,1.8-0.8,2.5-1.4c0.7-0.6,1.6-1.1,4.1-0.8c1.9-1.1,3.2,0.2,4,1.5
	c-1.3,1.8-2.6,3.6-3.4,5c-0.8,1.4-1,2.6-0.3,4c-0.6,0.5-1.1,0.3-1.6,0c-0.5-0.3-1-0.6-1.7-0.5c0.2,0.6,0.3,1.2,0.3,1.7
	c0.1,0.1,0,0.8-0.1,1.3c0,0.1-11.1,41.9-12.6,57.6l5.5-17.5l1.6,18.5c7.6,4.3,6.2,17.8,6.2,17.8l22.7-76c0.4-1.5,0.7-3.1,1.2-4.7
	c1-3.7,2.3-7.9,4.3-13.4c1-1,2-2,3-3.1c0.3-1.4,0.8-3.1,1.5-5C675.7,268.6,670.7,266.6,666.2,265z M468.7,653.1
	c-3.1,0.3-6.3-0.1-11.9-3.1c-0.4-0.3-0.7-0.7-1-1C460.1,650.3,464.4,651.6,468.7,653.1z M455.7,652.9c3.9,2.2,2.5,1.4-0.2,0.1
	C455.5,652.9,455.6,652.9,455.7,652.9z M395.5,632.3c-0.7-1-1.6-2.4,0.7-2c2.3,1,4.7,2,7.1,2.9c-5.3,0-11.4,0.3-16.9-1.7
	C389.3,631.3,390.7,628,395.5,632.3z M210.1,576.9l-1.5-1.1C212.6,576.3,211.4,576.6,210.1,576.9z M257.8,255.5
	c-2-2.9-0.2-4.2,1.6-7.1C259.3,250.4,259.6,254.6,257.8,255.5z M330.6,184c1.8,0.3,3.8,1,5.8,2.3C334.8,186.6,332.8,185.6,330.6,184
	z M485.5,220.2c0.1-0.5-0.7-1.1,0.8-0.6C486,219.8,485.7,220,485.5,220.2z"/>
</svg>
