<?xml version="1.0" encoding="iso-8859-1"?>
<!-- Generator: Adobe Illustrator 19.0.0, SVG Export Plug-In . SVG Version: 6.00 Build 0)  -->
<svg version="1.1" id="Layer_1" xmlns="http://www.w3.org/2000/svg" xmlns:xlink="http://www.w3.org/1999/xlink" x="0px" y="0px"
	 viewBox="0 0 86.926 90.232" style="enable-background:new 0 0 86.926 90.232;" xml:space="preserve">
<g id="XMLID_9_">
	<polygon id="XMLID_5_" points="40.947,90.232 37.947,90.232 37.947,5.196 3,25.373 3,68.324 0,68.324 0,23.641 40.947,0 	"/>
	<polygon id="XMLID_7_" points="48.98,90.232 45.98,90.232 45.98,0 86.926,23.641 86.926,68.324 83.926,68.324 83.926,25.373 
		48.98,5.196 	"/>
	<path id="XMLID_1_" style="fill:none;stroke:#000000;stroke-width:3;stroke-miterlimit:10;" d="M1.5,55.675"/>
	<path id="XMLID_6_" style="fill:none;stroke:#000000;stroke-width:3;stroke-miterlimit:10;" d="M1.5,55.675"/>
	<path id="XMLID_4_" style="fill:none;stroke:#000000;stroke-width:3;stroke-miterlimit:10;" d="M39.447,55.675"/>
	
		<rect id="XMLID_8_" x="18.974" y="22.958" transform="matrix(0.5001 0.866 -0.866 0.5001 49.0893 4.7004)" width="3" height="43.817"/>
	
		<rect id="XMLID_10_" x="64.953" y="48.718" transform="matrix(0.5001 0.866 -0.866 0.5001 94.3839 -22.2391)" width="3" height="43.817"/>
</g>
<g id="XMLID_35_">
</g>
<g id="XMLID_36_">
</g>
<g id="XMLID_37_">
</g>
<g id="XMLID_38_">
</g>
<g id="XMLID_39_">
</g>
<g id="XMLID_40_">
</g>
</svg>
