<?xml version="1.0" encoding="utf-8"?>
<!-- Generator: Adobe Illustrator 19.0.0, SVG Export Plug-In . SVG Version: 6.00 Build 0)  -->
<svg version="1.1" id="Layer_1" xmlns="http://www.w3.org/2000/svg" xmlns:xlink="http://www.w3.org/1999/xlink" x="0px" y="0px"
	 viewBox="100 -3 811.4 799" style="enable-background:new 100 -3 811.4 799;" xml:space="preserve"
	>
<g>
	<path style="fill:#111111;" d="M823.6,633.1H234.3c-26.6,0-48.1-21.5-48.1-48.1V202.7c0-26.6,21.5-48.1,48.1-48.1h589.3
		c26.6,0,48.1,21.5,48.1,48.1V585C871.7,611.6,850.1,633.1,823.6,633.1z"/>
	<path style="fill:#686868;" d="M871.7,215H186.2v-12.3c0-26.6,21.5-48.1,48.1-48.1h589.3c26.6,0,48.1,21.5,48.1,48.1V215z"/>
	<circle style="fill:#111111;" cx="232.6" cy="184.8" r="7.9"/>
	<circle style="fill:#111111;" cx="262.6" cy="184.8" r="7.9"/>
	<circle style="fill:#111111;" cx="292.6" cy="184.8" r="7.9"/>
</g>
<g>
	<rect x="305.4" y="485.5" style="fill:#333333;" width="105" height="85"/>
	<rect x="419.4" y="485.5" style="fill:#333333;" width="105" height="85"/>
	<rect x="533.4" y="485.5" style="fill:#333333;" width="105" height="85"/>
	<rect x="647.4" y="485.5" style="fill:#333333;" width="105" height="85"/>
</g>
<g>
	<rect x="305.4" y="275.5" style="fill:#333333;" width="143" height="85"/>
	<rect x="457.4" y="275.5" style="fill:#333333;" width="143" height="85"/>
	<rect x="609.4" y="275.5" style="fill:#333333;" width="143" height="85"/>
</g>
<g>
	<rect x="305.4" y="380.5" style="fill:#333333;" width="219" height="85"/>
	<rect x="533.4" y="380.5" style="fill:#333333;" width="219" height="85"/>
</g>
<g style="opacity:0.1;">
	<rect x="305.4" y="215" style="fill:#00FF2A;" width="29" height="418.1"/>
	<rect x="343.4" y="215" style="fill:#00FF2A;" width="29" height="418.1"/>
	<rect x="381.4" y="215" style="fill:#00FF2A;" width="29" height="418.1"/>
	<rect x="419.4" y="215" style="fill:#00FF2A;" width="29" height="418.1"/>
	<rect x="457.4" y="215" style="fill:#00FF2A;" width="29" height="418.1"/>
	<rect x="495.4" y="215" style="fill:#00FF2A;" width="29" height="418.1"/>
	<rect x="533.4" y="215" style="fill:#00FF2A;" width="29" height="418.1"/>
	<rect x="571.4" y="215" style="fill:#00FF2A;" width="29" height="418.1"/>
	<rect x="609.4" y="215" style="fill:#00FF2A;" width="29" height="418.1"/>
	<rect x="647.4" y="215" style="fill:#00FF2A;" width="29" height="418.1"/>
	<rect x="685.4" y="215" style="fill:#00FF2A;" width="29" height="418.1"/>
	<rect x="723.4" y="215" style="fill:#00FF2A;" width="29" height="418.1"/>
</g>
</svg>
