<?xml version="1.0" encoding="utf-8"?>
<!-- Generator: Adobe Illustrator 19.0.0, SVG Export Plug-In . SVG Version: 6.00 Build 0)  -->
<svg version="1.1" id="Layer_1" xmlns="http://www.w3.org/2000/svg" xmlns:xlink="http://www.w3.org/1999/xlink" x="0px" y="0px"
	 width="612px" height="792px" viewBox="0 0 612 792" style="enable-background:new 0 0 612 792;" xml:space="preserve">
<polygon style="fill:#D0B182;" points="185.4,87.7 259.2,52 225.3,98 "/>
<polygon style="fill:#865F38;" points="152.8,155.7 185.4,87.7 225.3,98 "/>
<polygon style="fill:#453D37;" points="204.4,155.7 225.3,98 321.9,142.6 "/>
<polygon style="fill:#735030;" points="152.8,155.7 204.4,155.7 178.4,219.9 "/>
<polygon style="fill:#E8D4BD;" points="143.4,224.5 152.8,155.7 178.4,219.9 "/>
<polygon style="fill:#9C7A55;" points="152.8,155.7 225.3,98 204.4,155.7 "/>
<polygon style="fill:#A8896C;" points="372.3,53.7 259.2,52 225.3,98 "/>
<polygon style="fill:#A29376;" points="321.9,142.6 225.3,98 372.3,53.7 "/>
<polygon style="fill:#EFE0E5;" points="434.7,88.2 372.3,53.7 321.9,142.6 "/>
<polygon style="fill:#E2C5A5;" points="434.7,88.2 424.2,176.4 455.8,155 "/>
<polygon style="fill:#E4D2B0;" points="321.9,142.6 424.2,176.4 434.7,88.2 "/>
<polygon style="fill:#62493C;" points="321.9,142.6 428.6,192.1 424.2,176.4 "/>
<polygon style="fill:#645C58;" points="424.2,176.4 472.9,223.4 455.8,155 "/>
<polygon style="fill:#463530;" points="428.6,192.1 445.8,244.2 472.9,223.4 "/>
<polygon style="fill:#423636;" points="424.2,176.4 428.6,192.1 472.9,223.4 "/>
<polygon style="fill:#997259;" points="305,182 321.9,142.6 428.6,192.1 "/>
<polygon style="fill:#4F3D34;" points="305,182 204.4,155.7 321.9,142.6 "/>
<polygon style="fill:#D9C4A9;" points="226.4,216.8 204.4,155.7 305,182 "/>
<polygon style="fill:#C4AC7E;" points="178.4,219.9 204.4,155.7 226.4,216.8 "/>
<polygon style="fill:#87693D;" points="171.7,286.2 143.4,224.5 178.4,219.9 "/>
<polygon style="fill:#4A3824;" points="148.4,286 143.4,224.5 171.7,286.2 "/>
<polygon style="fill:#3B3127;" points="148.4,286 171.7,286.2 155.3,335.6 "/>
<polygon style="fill:#F0D1A3;" points="171.7,286.2 212.2,265.8 178.4,219.9 "/>
<polygon style="fill:#F1DEC0;" points="204.4,305.7 171.7,286.2 176.1,316.6 "/>
<polygon style="fill:#F3E2D0;" points="212.2,265.8 171.7,286.2 204.4,305.7 "/>
<polygon style="fill:#DBBE9C;" points="265.3,244.8 226.4,216.8 212.2,265.8 "/>
<polygon style="fill:#CFB688;" points="178.4,219.9 226.4,216.8 212.2,265.8 "/>
<polygon style="fill:#E3C09C;" points="305,182 265.3,244.8 226.4,216.8 "/>
<polygon style="fill:#D0A67B;" points="345.2,224.6 305,182 428.6,192.1 "/>
<polygon style="fill:#EBC4A0;" points="265.3,244.8 305,182 345.2,224.6 "/>
<polygon style="fill:#D0B17F;" points="204.4,305.7 255.8,281.4 238.1,312.3 "/>
<polygon style="fill:#ECCAB7;" points="212.2,265.8 255.8,281.4 265.3,244.8 "/>
<polygon style="fill:#DEBD94;" points="204.4,305.7 212.2,265.8 255.8,281.4 "/>
<polygon style="fill:#EEC2A1;" points="287.4,340.6 255.8,281.4 314.4,292.5 "/>
<polygon style="fill:#D2B082;" points="263.8,327.3 255.8,281.4 238.1,312.3 "/>
<polygon style="fill:#E4B98E;" points="287.4,340.6 255.8,281.4 263.8,327.3 "/>
<polygon style="fill:#623F31;" points="279.1,366.5 287.4,340.6 263.8,327.3 "/>
<polygon style="fill:#675747;" points="276.6,373.7 267.2,368.2 279.1,366.5 "/>
<polygon style="fill:#A5938A;" points="254.4,337.5 263.8,326.7 279.1,366.5 "/>
<polygon style="fill:#5E5952;" points="267.2,368.2 254.4,337.5 279.1,366.5 "/>
<polygon style="fill:#5B5656;" points="234,319.2 263.8,327.3 254.4,337.5 "/>
<polygon style="fill:#E7E3D7;" points="238.1,312.3 234,319.2 263.8,327.3 "/>
<polygon style="fill:#F0C3A2;" points="351.8,257.4 345.2,224.6 265.3,244.8 "/>
<polygon style="fill:#ECC7B4;" points="314.4,292.5 265.3,244.8 255.8,281.4 "/>
<polygon style="fill:#F1C9B1;" points="351.8,257.4 265.3,244.8 314.4,292.5 "/>
<polygon style="fill:#EABF9A;" points="360,317.4 314.4,292.5 306.2,346.1 "/>
<polygon style="fill:#EDC0A4;" points="351.8,257.4 314.4,292.5 360,317.4 "/>
<polygon style="fill:#F0C5A4;" points="395.4,269.1 345.2,224.6 351.8,257.4 "/>
<polygon style="fill:#EFC8AE;" points="428.6,192.1 345.2,224.6 395.4,269.1 "/>
<polygon style="fill:#D7B494;" points="428.6,192.1 395.4,269.1 445.8,244.2 "/>
<polygon style="fill:#45342D;" points="472.9,223.4 445.8,244.2 459.6,301.9 "/>
<polygon style="fill:#563B32;" points="441.3,297.8 445.8,244.2 459.6,301.9 "/>
<polygon style="fill:#ECB99D;" points="396.4,310.1 395.4,269.1 441.3,297.8 "/>
<polygon style="fill:#E1B191;" points="445.8,244.2 395.4,269.1 441.3,297.8 "/>
<polygon style="fill:#EFCAB3;" points="351.8,257.4 395.4,269.1 360,317.4 "/>
<polygon style="fill:#E2B493;" points="396.4,310.1 395.4,269.1 360,317.4 "/>
<polygon style="fill:#EFC49D;" points="314.4,292.5 306.2,346.1 287.4,340.6 "/>
<polygon style="fill:#968456;" points="176.1,316.6 171.7,286.2 155.3,335.6 "/>
<polygon style="fill:#706C5A;" points="176.1,316.6 173.9,327.8 155.3,335.6 "/>
<polygon style="fill:#41372E;" points="204.5,314.3 176.1,316.6 173.9,327.8 "/>
<polygon style="fill:#918A73;" points="204.5,314.3 204.4,305.7 176.1,316.6 "/>
<polygon style="fill:#373632;" points="234,319.2 204.5,314.3 238.1,312.3 "/>
<polygon style="fill:#8D8A81;" points="204.4,305.7 204.5,314.3 238.1,312.3 "/>
<polygon style="fill:#F6EDE4;" points="155.3,335.6 140.8,355.2 157.9,355.1 "/>
<polygon style="fill:#EEDFD9;" points="136.7,334.3 132.6,359.5 140.8,355.2 "/>
<polygon style="fill:#949768;" points="142.7,370.5 140.8,355.2 132.6,359.5 "/>
<polygon style="fill:#9A9F98;" points="154.6,371.3 140.8,355.2 157.9,355.1 "/>
<polygon style="fill:#F4E9E7;" points="142.7,370.5 140.8,355.2 154.6,371.3 "/>
<polygon style="fill:#A6A47E;" points="149.8,396.2 142.7,370.5 154.6,371.3 "/>
<polygon style="fill:#E4DEC4;" points="166.5,406.8 154.6,371.3 149.8,396.2 "/>
<polygon style="fill:#FFEFDC;" points="164.2,421.9 149.8,396.2 166.5,406.8 "/>
<polygon style="fill:#AFA28F;" points="190.7,426.7 166.5,406.8 164.2,421.9 "/>
<polygon style="fill:#C7B072;" points="182.3,457.2 164.2,421.9 190.7,426.7 "/>
<polygon style="fill:#EACB9C;" points="182.3,457.2 190.7,426.7 224.4,454.4 "/>
<polygon style="fill:#F4C59C;" points="219.5,434.2 190.7,426.7 224.4,454.4 "/>
<polygon style="fill:#555448;" points="201.1,403.2 166.5,406.8 185.5,371.5 "/>
<polygon style="fill:#6B4D53;" points="190.7,426.7 166.5,406.8 201.1,403.2 "/>
<polygon style="fill:#ECA88E;" points="219.5,434.2 201.1,403.2 190.7,426.7 "/>
<polygon style="fill:#EAC59A;" points="249.6,448.7 245.6,425.6 219.5,434.2 "/>
<polygon style="fill:#EFCCA7;" points="219.5,434.2 249.6,448.7 224.4,454.4 "/>
<polygon style="fill:#C9E0D3;" points="238.1,399.2 219.5,434.2 201.1,403.2 "/>
<polygon style="fill:#269D48;" points="228.2,369.6 201.1,403.2 238.1,399.2 "/>
<polygon style="fill:#4DC1B7;" points="238.1,399.2 245.6,425.6 219.5,434.2 "/>
<polygon style="fill:#515C32;" points="157.9,355.1 185.5,371.5 154.6,371.3 "/>
<polygon style="fill:#986B4F;" points="154.6,371.3 185.5,371.5 166.5,406.8 "/>
<polygon style="fill:#53BA5B;" points="185.5,371.5 228.2,369.6 201.1,403.2 "/>
<polygon style="fill:#3DA676;" points="195.6,345.6 228.2,369.6 185.5,371.5 "/>
<polygon style="fill:#46B761;" points="157.9,355.1 195.6,345.6 185.5,371.5 "/>
<polygon style="fill:#353331;" points="157.9,355.1 173.9,327.8 155.3,335.6 "/>
<polygon style="fill:#10723A;" points="157.9,355.1 173.9,327.8 195.6,345.6 "/>
<polygon style="fill:#3F863F;" points="173.9,327.8 204.5,314.3 195.6,345.6 "/>
<polygon style="fill:#45B649;" points="195.6,345.6 204.5,314.3 234,319.2 "/>
<polygon style="fill:#43784F;" points="195.6,345.6 234,319.2 229.2,337.6 "/>
<polygon style="fill:#4BBB82;" points="195.6,345.6 229.2,337.6 228.2,369.6 "/>
<polygon style="fill:#51C0A6;" points="228.2,369.6 229.2,337.6 254.4,337.5 "/>
<polygon style="fill:#4FC0AC;" points="234,319.2 254.4,337.5 229.2,337.6 "/>
<polygon style="fill:#00A464;" points="254.4,337.5 228.2,369.6 267.2,368.2 "/>
<polygon style="fill:#C9E2DF;" points="228.2,369.6 267.2,368.2 238.1,399.2 "/>
<polygon style="fill:#317A5D;" points="267.2,368.2 266.9,391.5 238.1,399.2 "/>
<polygon style="fill:#EADBD3;" points="276.8,393.3 267.2,368.2 266.9,391.5 "/>
<polygon style="fill:#202E31;" points="266.9,391.5 258.2,413.2 238.1,399.2 "/>
<polygon style="fill:#8A786C;" points="276.8,393.3 258.2,413.2 266.9,391.5 "/>
<polygon style="fill:#304D50;" points="258.2,413.2 245.6,425.6 238.1,399.2 "/>
<polygon style="fill:#764939;" points="245.6,425.6 258.2,413.2 268.7,417.5 "/>
<polygon style="fill:#8F5C3C;" points="256.6,430.2 245.6,425.6 249.6,448.7 "/>
<polygon style="fill:#B0826A;" points="268.7,417.5 245.6,425.6 256.6,430.2 "/>
<polygon style="fill:#CEAE89;" points="268.7,417.5 270.3,432.9 256.6,430.2 "/>
<polygon style="fill:#C7A170;" points="249.6,448.7 256.6,430.2 270.3,432.9 "/>
<polygon style="fill:#DFB581;" points="249.6,448.7 270.3,432.9 267.6,448 "/>
<polygon style="fill:#D0A674;" points="270.3,432.9 267.6,448 280.9,448.2 "/>
<polygon style="fill:#825C48;" points="276.8,393.3 258.2,413.2 268.7,417.5 "/>
<polygon style="fill:#DABBA6;" points="292.3,419 276.8,393.3 268.7,417.5 "/>
<polygon style="fill:#D1B69D;" points="292.3,419 268.7,417.5 270.3,432.9 "/>
<polygon style="fill:#EBC6AA;" points="292.3,419 270.3,432.9 293.6,435.8 "/>
<polygon style="fill:#E4B681;" points="280.9,448.2 270.3,432.9 293.6,435.8 "/>
<polygon style="fill:#E8D8C9;" points="267.2,368.2 276.8,393.3 276.6,373.7 "/>
<polygon style="fill:#877A50;" points="279.1,366.5 276.6,373.7 301.4,374.9 "/>
<polygon style="fill:#CDA67B;" points="279.1,366.5 287.4,340.6 306.2,346.1 "/>
<polygon style="fill:#E1B8A2;" points="279.1,366.5 306.2,346.1 320.4,366.8 "/>
<polygon style="fill:#F3E3D4;" points="279.1,366.5 320.4,366.8 301.4,374.9 "/>
<polygon style="fill:#B9986A;" points="276.8,393.3 301.4,374.9 276.6,373.7 "/>
<polygon style="fill:#F3C7BB;" points="276.8,393.3 301.4,374.9 303.6,390.9 "/>
<polygon style="fill:#EBC9C0;" points="292.3,419 276.8,393.3 303.6,390.9 "/>
<polygon style="fill:#F4CAC1;" points="292.3,419 303.6,390.9 320.8,410.1 "/>
<polygon style="fill:#F0BCB2;" points="292.3,419 316.6,433.7 320.8,410.1 "/>
<polygon style="fill:#EFC9B7;" points="316.6,433.7 293.6,435.8 292.3,419 "/>
<polygon style="fill:#EBB99D;" points="301.4,374.9 303.6,390.9 319.8,388.8 "/>
<polygon style="fill:#B38D70;" points="301.4,374.9 320.4,366.8 319.9,376.8 "/>
<polygon style="fill:#E2AA85;" points="301.4,374.9 319.9,376.8 319.8,388.8 "/>
<polygon style="fill:#EFB79C;" points="303.6,390.9 319.8,388.8 320.8,410.1 "/>
<polygon style="fill:#DDA87E;" points="319.8,388.8 320.8,410.1 329.6,409.3 "/>
<polygon style="fill:#ECAF80;" points="320.8,410.1 329.6,409.3 330.1,430 "/>
<polygon style="fill:#ECB9A5;" points="320.8,410.1 316.6,433.7 330.1,430 "/>
<polygon style="fill:#503C24;" points="306.2,346.1 333.2,342.4 360,317.4 "/>
<polygon style="fill:#7F4B36;" points="306.2,346.1 333.2,342.4 320.4,366.8 "/>
<polygon style="fill:#7E7570;" points="333.2,342.4 340.3,354.3 320.4,366.8 "/>
<polygon style="fill:#443A38;" points="333.2,342.4 359.4,328.2 360,317.4 "/>
<polygon style="fill:#2E4D37;" points="333.2,342.4 359.4,328.2 340.3,354.3 "/>
<polygon style="fill:#46504F;" points="340.3,354.3 328.9,371.7 320.4,366.8 "/>
<polygon style="fill:#FFF8EC;" points="319.9,376.8 328.9,371.7 320.4,366.8 "/>
<polygon style="fill:#86949D;" points="319.9,376.8 331,395.6 328.9,371.7 "/>
<polygon style="fill:#FFF6EF;" points="319.9,376.8 319.8,388.8 331,395.6 "/>
<polygon style="fill:#FBE8D8;" points="319.8,388.8 329.6,409.3 331,395.6 "/>
<polygon style="fill:#584845;" points="453,341.4 441.3,297.8 459.6,301.9 "/>
<polygon style="fill:#CAB4A9;" points="441.3,297.8 431.9,321.3 453,341.4 "/>
<polygon style="fill:#EDDAD3;" points="431.9,321.3 425.9,331.1 453,341.4 "/>
<polygon style="fill:#DBB7A1;" points="396.4,310.1 441.3,297.8 431.9,321.3 "/>
<polygon style="fill:#E4E3DB;" points="396.4,310.1 425.9,331.1 431.9,321.3 "/>
<polygon style="fill:#453F3F;" points="396.4,310.1 396.4,317.5 425.9,331.1 "/>
<polygon style="fill:#453F33;" points="396.4,317.5 359.4,328.2 360,317.4 "/>
<polygon style="fill:#3EB65B;" points="425.9,331.1 396.4,317.5 399.5,349.7 "/>
<polygon style="fill:#46B974;" points="396.4,317.5 359.4,328.2 399.5,349.7 "/>
<polygon style="fill:#25A249;" points="359.4,328.2 340.3,354.3 399.5,349.7 "/>
<polygon style="fill:#5EBD73;" points="340.3,354.3 371,375.6 399.5,349.7 "/>
<polygon style="fill:#0AA74B;" points="340.3,354.3 328.9,371.7 371,375.6 "/>
<polygon style="fill:#356057;" points="328.9,371.7 362,400.5 331,395.6 "/>
<polygon style="fill:#70C7AF;" points="328.9,371.7 371,375.6 362,400.5 "/>
<polygon style="fill:#79C256;" points="371,375.6 399.5,349.7 423.8,368.7 "/>
<polygon style="fill:#BFE4DC;" points="371,375.6 391.3,409 423.8,368.7 "/>
<polygon style="fill:#224539;" points="371,375.6 362,400.5 391.3,409 "/>
<polygon style="fill:#5B5652;" points="348.6,418.7 331,395.6 329.6,409.3 "/>
<polygon style="fill:#F1AB78;" points="343.7,422.9 329.6,409.3 330.1,430 "/>
<polygon style="fill:#D6CBB3;" points="329.6,409.3 348.6,418.7 343.7,422.9 "/>
<polygon style="fill:#E6A177;" points="330.1,430 339.1,444.6 343.7,422.9 "/>
<polygon style="fill:#EBB68A;" points="343.7,422.9 353.6,429.2 339.1,444.6 "/>
<polygon style="fill:#FFE6C8;" points="348.6,418.7 343.7,422.9 353.6,429.2 "/>
<polygon style="fill:#313133;" points="348.6,418.7 362,400.5 331,395.6 "/>
<polygon style="fill:#2D2B2E;" points="348.6,418.7 362,400.5 376.9,431.4 "/>
<polygon style="fill:#39322A;" points="348.6,418.7 353.6,429.2 376.9,431.4 "/>
<polygon style="fill:#E5B181;" points="353.6,429.2 376.9,431.4 376,443.4 "/>
<polygon style="fill:#0D5251;" points="362,400.5 376.9,431.4 391.3,409 "/>
<polygon style="fill:#5DBF89;" points="391.3,409 424.7,398.7 423.8,368.7 "/>
<polygon style="fill:#49293E;" points="391.3,409 403.3,429.3 376.9,431.4 "/>
<polygon style="fill:#50313B;" points="424.7,398.7 403.3,429.3 391.3,409 "/>
<polygon style="fill:#CDA277;" points="376.9,431.4 376,443.4 403.3,429.3 "/>
<polygon style="fill:#EDB88B;" points="376,443.4 404.6,440.7 403.3,429.3 "/>
<polygon style="fill:#BDB09D;" points="403.3,429.3 436.5,412 404.6,440.7 "/>
<polygon style="fill:#472E34;" points="424.7,398.7 436.5,412 403.3,429.3 "/>
<polygon style="fill:#54BD83;" points="399.5,349.7 425.9,331.1 423.8,368.7 "/>
<polygon style="fill:#5BC098;" points="425.9,331.1 446.5,355 423.8,368.7 "/>
<polygon style="fill:#0D8850;" points="423.8,368.7 446.5,355 452,365.8 "/>
<polygon style="fill:#41A27C;" points="423.8,368.7 447.8,385.5 452,365.8 "/>
<polygon style="fill:#44A77C;" points="423.8,368.7 424.7,398.7 447.8,385.5 "/>
<polygon style="fill:#1F3F34;" points="424.7,398.7 447.8,385.5 436.5,412 "/>
<polygon style="fill:#F4E2D9;" points="446.5,355 453,341.4 425.9,331.1 "/>
<polygon style="fill:#ECD8D6;" points="446.5,355 453,341.4 456.6,363.1 "/>
<polygon style="fill:#E0CCC6;" points="446.5,355 456.6,363.1 452,365.8 "/>
<polygon style="fill:#CCBCAC;" points="452,365.8 447.8,385.5 458.5,377.3 "/>
<polygon style="fill:#D7D2C7;" points="456.6,363.1 466.1,340.6 469.9,364.9 "/>
<polygon style="fill:#EEDCD5;" points="452,365.8 458.5,377.3 469.9,364.9 "/>
<polygon style="fill:#D8C6A4;" points="469.9,364.9 458.5,377.3 468.3,375.7 "/>
<polygon style="fill:#FADFD8;" points="458.5,377.3 447.8,385.5 447.2,409.6 "/>
<polygon style="fill:#B9967F;" points="447.8,385.5 436.5,412 436.5,412 447.2,409.6 "/>
<polygon style="fill:#B89281;" points="447.2,409.6 441.3,422.2 436.5,412 "/>
<polygon style="fill:#DAB193;" points="404.6,440.7 436.5,412 441.3,422.2 "/>
<polygon style="fill:#EDB993;" points="404.6,440.7 421.2,472.8 441.3,422.2 "/>
<polygon style="fill:#9C7961;" points="441.3,422.2 426.6,492.3 421.2,472.8 "/>
<polygon style="fill:#EFC29B;" points="373.7,474.6 404.6,440.7 421.2,472.8 "/>
<polygon style="fill:#EBBC8D;" points="373.7,474.6 421.2,472.8 401.4,500.9 "/>
<polygon style="fill:#D5A37D;" points="401.4,500.9 426.6,492.3 421.2,472.8 "/>
<polygon style="fill:#C59A77;" points="426.6,492.3 407.1,520.7 401.4,500.9 "/>
<polygon style="fill:#2C2C2A;" points="426.6,492.3 427.2,569 407.1,520.7 "/>
<polygon style="fill:#897460;" points="426.6,492.3 454.7,540.6 427.2,569 "/>
<polygon style="fill:#25201C;" points="407.1,520.7 392.2,545.1 427.2,569 "/>
<polygon style="fill:#AE704B;" points="401.4,500.9 379.3,530.5 407.1,520.7 "/>
<polygon style="fill:#794934;" points="379.3,530.5 407.1,520.7 392.2,545.1 "/>
<polygon style="fill:#EEBF93;" points="372.5,511.6 373.7,474.6 401.4,500.9 "/>
<polygon style="fill:#F4C28A;" points="363.3,533.2 372.5,511.6 379.3,530.5 "/>
<polygon style="fill:#F1BD88;" points="372.5,511.6 379.3,530.5 401.4,500.9 "/>
<polygon style="fill:#EDBE92;" points="293.6,435.8 280.9,448.2 306.1,455.6 "/>
<polygon style="fill:#F3C9A0;" points="293.6,435.8 316.5,447.7 306.1,455.6 "/>
<polygon style="fill:#EECBA6;" points="293.6,435.8 316.6,433.7 316.5,447.7 "/>
<polygon style="fill:#EAC5A0;" points="316.6,433.7 339.1,444.6 316.5,447.7 "/>
<polygon style="fill:#EEB49F;" points="316.6,433.7 330.1,430 339.1,444.6 "/>
<polygon style="fill:#F1BE8D;" points="339.1,444.6 353.6,429.2 376,443.4 "/>
<polygon style="fill:#EDBC93;" points="373.7,474.6 376,443.4 404.6,440.7 "/>
<polygon style="fill:#EDC09C;" points="376,443.4 339.2,462.3 339.1,444.6 "/>
<polygon style="fill:#EEC39E;" points="339.2,462.3 376,443.4 373.7,474.6 "/>
<polygon style="fill:#E2996C;" points="316.7,462.3 327.6,455.1 339.2,462.3 "/>
<polygon style="fill:#F4AA83;" points="316.5,447.7 316.7,462.3 327.6,455.1 "/>
<polygon style="fill:#FCC199;" points="339.1,444.6 327.6,455.1 316.5,447.7 "/>
<polygon style="fill:#F4C093;" points="339.1,444.6 327.6,455.1 339.2,462.3 "/>
<polygon style="fill:#EEC3A0;" points="339.2,462.3 332.2,486.1 373.7,474.6 "/>
<polygon style="fill:#F4C99E;" points="332.2,486.1 352.6,496.6 373.7,474.6 "/>
<polygon style="fill:#ECBE90;" points="373.7,474.6 352.6,496.6 372.5,511.6 "/>
<polygon style="fill:#CC9171;" points="352.6,496.6 344.6,514.8 372.5,511.6 "/>
<polygon style="fill:#975C26;" points="344.6,514.8 372.5,511.6 363.3,533.2 "/>
<polygon style="fill:#AF806E;" points="332.2,486.1 344.6,514.8 352.6,496.6 "/>
<polygon style="fill:#D59D7C;" points="332.2,486.1 322.1,506.3 344.6,514.8 "/>
<polygon style="fill:#967566;" points="316.7,469.3 316.2,487.1 332.2,486.1 "/>
<polygon style="fill:#F3C29F;" points="316.7,469.3 332.2,486.1 339.2,462.3 "/>
<polygon style="fill:#D98F6A;" points="306.1,455.6 316.5,447.7 316.7,462.3 "/>
<polygon style="fill:#ECB888;" points="306.1,455.6 297.6,477.8 316.7,469.3 "/>
<polygon style="fill:#EBAE7F;" points="306.1,455.6 316.7,469.3 316.7,462.3 "/>
<polygon style="fill:#DFBA8B;" points="316.7,469.3 297.6,477.8 316.2,487.1 "/>
<polygon style="fill:#583425;" points="297.6,477.8 297.2,497.8 316.2,487.1 "/>
<polygon style="fill:#6F4D43;" points="316.2,487.1 322.1,506.3 332.2,486.1 "/>
<polygon style="fill:#6C5946;" points="316.2,487.1 297.2,497.8 322.1,506.3 "/>
<polygon style="fill:#9C8A58;" points="160,445.2 164.2,421.9 182.3,457.2 "/>
<polygon style="fill:#625331;" points="166.6,487.2 160,445.2 182.3,457.2 "/>
<polygon style="fill:#ECCC9A;" points="182.3,457.2 218.9,480.1 224.4,454.4 "/>
<polygon style="fill:#705B40;" points="208.3,492.8 182.3,457.2 166.6,487.2 "/>
<polygon style="fill:#DBC57C;" points="218.9,480.1 182.3,457.2 208.3,492.8 "/>
<polygon style="fill:#DFC79C;" points="240.9,469.8 224.4,454.4 218.9,480.1 "/>
<polygon style="fill:#DEC79A;" points="249.6,448.7 224.4,454.4 240.9,469.8 "/>
<polygon style="fill:#CEA975;" points="249.6,448.7 260.5,455.5 240.9,469.8 "/>
<polygon style="fill:#E6B486;" points="249.6,448.7 260.5,455.5 267.6,448 "/>
<polygon style="fill:#C28763;" points="267.6,448 274.3,460.8 260.5,455.5 "/>
<polygon style="fill:#925235;" points="267.6,448 280.9,448.2 274.3,460.8 "/>
<polygon style="fill:#DFBA8B;" points="260.5,455.5 254.2,476.8 274.3,460.8 "/>
<polygon style="fill:#BDA77E;" points="240.9,469.8 260.5,455.5 254.2,476.8 "/>
<polygon style="fill:#F2BE8C;" points="280.9,448.2 288.5,457.4 306.1,455.6 "/>
<polygon style="fill:#CA9567;" points="274.3,460.8 280.9,448.2 288.5,457.4 "/>
<polygon style="fill:#D7A86F;" points="274.3,460.8 286.8,477 288.5,457.4 "/>
<polygon style="fill:#DFBA8B;" points="288.5,457.4 286.8,477 297.6,477.8 "/>
<polygon style="fill:#EBBF92;" points="288.5,457.4 306.1,455.6 297.6,477.8 "/>
<polygon style="fill:#AD8A6A;" points="286.8,477 297.2,497.8 297.6,477.8 "/>
<polygon style="fill:#ECB888;" points="254.2,476.8 274.3,460.8 286.8,477 "/>
<polygon style="fill:#796554;" points="254.2,476.8 268.2,504.5 286.8,477 "/>
<polygon style="fill:#8A745D;" points="286.8,477 268.2,504.5 297.2,497.8 "/>
<polygon style="fill:#E5AC7F;" points="268.2,504.5 270,514.1 282.4,506.7 "/>
<polygon style="fill:#EDBE95;" points="268.2,504.5 297.2,497.8 282.4,506.7 "/>
<polygon style="fill:#EFB891;" points="282.4,506.7 310.3,510.5 297.2,497.8 "/>
<polygon style="fill:#C15747;" points="270,514.1 282.4,506.7 287.1,521.6 "/>
<polygon style="fill:#CC6A59;" points="287.1,521.6 310.3,510.5 282.4,506.7 "/>
<polygon style="fill:#E08775;" points="276.3,527.1 270,514.1 287.1,521.6 "/>
<polygon style="fill:#EA9D86;" points="276.3,527.1 287.1,521.6 296.3,532.4 "/>
<polygon style="fill:#D47060;" points="287.1,521.6 310.3,510.5 296.3,532.4 "/>
<polygon style="fill:#E8AE86;" points="310.3,510.5 322.1,506.3 297.2,497.8 "/>
<polygon style="fill:#F69488;" points="296.3,532.4 310.3,510.5 332.8,520.1 "/>
<polygon style="fill:#F2A684;" points="310.3,510.5 322.1,506.3 332.8,520.1 "/>
<polygon style="fill:#E5AC7D;" points="322.1,506.3 332.8,520.1 344.6,514.8 "/>
<polygon style="fill:#EFAC7B;" points="332.8,520.1 363.3,533.2 344.6,514.8 "/>
<polygon style="fill:#E19E76;" points="296.3,532.4 332.8,520.1 342.4,539.7 "/>
<polygon style="fill:#E2B68B;" points="296.3,532.4 280.7,547.9 305.6,553.6 "/>
<polygon style="fill:#F0CEAE;" points="296.3,532.4 342.4,539.7 305.6,553.6 "/>
<polygon style="fill:#F2C69E;" points="305.6,553.6 333.2,570.9 342.4,539.7 "/>
<polygon style="fill:#EEC08F;" points="342.4,539.7 363.3,533.2 332.8,520.2 "/>
<polygon style="fill:#EFC18C;" points="342.4,539.7 363.5,558.2 363.3,533.2 "/>
<polygon style="fill:#F0BF8D;" points="333.2,570.9 363.5,558.2 342.4,539.7 "/>
<polygon style="fill:#E7B37A;" points="379.3,530.5 363.3,533.2 363.5,558.2 363.5,558.2 "/>
<polygon style="fill:#A76C44;" points="379.3,530.5 392.2,545.1 363.5,558.2 "/>
<polygon style="fill:#B27A47;" points="363.5,558.2 359.3,572.7 392.2,545.1 "/>
<polygon style="fill:#E0A973;" points="359.3,572.7 365.2,590.2 392.2,545.1 "/>
<polygon style="fill:#E2B17E;" points="333.2,570.9 363.5,558.2 359.3,572.7 "/>
<polygon style="fill:#EEBE94;" points="333.2,570.9 359.3,572.7 319.8,604.2 "/>
<polygon style="fill:#E3B88B;" points="319.8,604.2 365.2,590.2 359.3,572.7 "/>
<polygon style="fill:#DCB982;" points="320.5,627.2 365.2,590.2 319.8,604.2 "/>
<polygon style="fill:#241C18;" points="365.2,590.2 320.5,627.2 371.2,644.3 "/>
<polygon style="fill:#29211D;" points="365.2,590.2 392.2,545.1 427.2,569 "/>
<polygon style="fill:#292420;" points="365.2,590.2 427.2,569 371.2,644.3 "/>
<polygon style="fill:#222325;" points="427.2,569 479.9,617.6 371.2,644.3 "/>
<polygon style="fill:#423E37;" points="454.7,540.6 427.2,569 479.9,617.6 "/>
<polygon style="fill:#C3B0A1;" points="454.7,540.6 531.5,582 479.9,617.6 "/>
<polygon style="fill:#6B5E56;" points="479.9,617.6 570.7,631.5 531.5,582 "/>
<polygon style="fill:#1D1D1E;" points="479.9,617.6 451.1,692.5 529.8,672.7 "/>
<polygon style="fill:#201B19;" points="371.2,644.3 479.9,617.6 451.1,692.5 "/>
<polygon style="fill:#9E875D;" points="218.9,480.1 233.2,487.5 240.9,469.8 "/>
<polygon style="fill:#6C5946;" points="218.9,480.1 208.3,492.8 233.2,487.5 "/>
<polygon style="fill:#A38666;" points="240.9,469.8 233.2,487.5 254.2,476.8 "/>
<polygon style="fill:#6F5A4A;" points="254.2,476.8 243.9,493.2 268.2,504.5 "/>
<polygon style="fill:#8A745D;" points="233.2,487.5 254.2,476.8 243.9,493.2 "/>
<polygon style="fill:#845A34;" points="233.2,487.5 228.3,503.3 243.9,493.2 "/>
<polygon style="fill:#D2AA76;" points="228.3,503.3 243.9,493.2 268.2,504.5 "/>
<polygon style="fill:#C6926A;" points="228.3,503.3 268.2,504.5 250.1,514.7 "/>
<polygon style="fill:#AA674A;" points="228.3,503.3 239.5,523.1 250.1,514.7 "/>
<polygon style="fill:#DD8C6F;" points="250.1,514.7 268.2,504.5 270,514.1 "/>
<polygon style="fill:#C57260;" points="250.1,514.7 260.1,525.6 270,514.1 "/>
<polygon style="fill:#C27A5A;" points="250.1,514.7 239.5,523.1 260.1,525.6 "/>
<polygon style="fill:#E79C86;" points="260.1,525.6 270,514.1 276.3,527.1 "/>
<polygon style="fill:#E8C9A1;" points="239.5,523.1 253.2,548.2 260.1,525.6 "/>
<polygon style="fill:#EECBA7;" points="260.1,525.6 280.7,547.9 253.2,548.2 "/>
<polygon style="fill:#F7C0A2;" points="260.1,525.6 280.7,547.9 276.3,527.1 "/>
<polygon style="fill:#F6BFA0;" points="276.3,527.1 280.7,547.9 296.3,532.4 "/>
<polygon style="fill:#8F5C49;" points="253.2,548.2 279,568 280.7,547.9 "/>
<polygon style="fill:#613327;" points="280.7,547.9 279,568 305.6,553.6 "/>
<polygon style="fill:#E0B389;" points="279,568 333.2,570.9 305.6,553.6 "/>
<polygon style="fill:#D8AD7D;" points="279,568 319.8,604.2 333.2,570.9 "/>
<polygon style="fill:#CAA88D;" points="279,568 278,613.1 319.8,604.2 "/>
<polygon style="fill:#C99F72;" points="238.5,597.5 279,568 278,613.1 "/>
<polygon style="fill:#72543A;" points="208.3,492.8 233.2,487.5 228.3,503.3 "/>
<polygon style="fill:#705F47;" points="166.6,487.2 185.2,518.1 208.3,492.8 "/>
<polygon style="fill:#BF9D5F;" points="208.3,492.8 185.2,518.1 208.6,509.5 "/>
<polygon style="fill:#A27440;" points="208.3,492.8 208.6,509.5 228.3,503.3 "/>
<polygon style="fill:#CDBE7B;" points="208.6,509.5 212.3,539.5 239.5,523.1 "/>
<polygon style="fill:#D1B673;" points="208.6,509.5 239.5,523.1 228.3,503.3 "/>
<polygon style="fill:#A87F49;" points="208.6,509.5 185.2,518.1 212.3,539.5 "/>
<polygon style="fill:#9D814F;" points="185.2,518.1 216.7,568.7 212.3,539.5 "/>
<polygon style="fill:#D6C389;" points="212.3,539.5 253.2,548.2 239.5,523.1 "/>
<polygon style="fill:#C0B063;" points="212.3,539.5 216.7,568.7 253.2,548.2 "/>
<polygon style="fill:#DBC385;" points="216.7,568.7 253.2,548.2 279,568 "/>
<polygon style="fill:#987F55;" points="216.7,568.7 279,568 238.5,597.5 "/>
<polygon style="fill:#171717;" points="479.9,617.6 570.7,631.5 529.8,672.7 "/>
<polygon style="fill:#1D1D1E;" points="531.5,582 601.4,627.5 570.7,631.5 "/>
<polygon style="fill:#382A1F;" points="570.7,631.5 529.8,672.7 605.9,706.5 "/>
<polygon style="fill:#BDABA0;" points="570.7,631.5 601.4,627.5 605.9,706.5 "/>
<polygon style="fill:#A99B88;" points="529.8,672.7 521.7,731.8 605.9,706.5 "/>
<polygon style="fill:#1D1D1E;" points="451.1,692.5 529.8,672.7 521.7,731.8 "/>
<polygon style="fill:#181715;" points="451.1,692.5 417,741.2 521.7,731.8 "/>
<polygon style="fill:#1E1A17;" points="371.2,644.3 330,716.8 451.1,692.5 "/>
<polygon style="fill:#27221F;" points="330,716.8 451.1,692.5 417,741.2 "/>
<polygon style="fill:#DEBA80;" points="278,613.1 319.8,604.2 320.5,627.2 "/>
<polygon style="fill:#CBA96C;" points="278,613.1 280.2,676.4 320.5,627.2 "/>
<polygon style="fill:#272019;" points="320.5,627.2 280.2,676.4 371.2,644.3 "/>
<polygon style="fill:#302825;" points="280.2,676.4 371.2,644.3 330,716.8 "/>
<polygon style="fill:#2B2622;" points="280.2,676.4 237.2,723.8 330,716.8 "/>
<polygon style="fill:#C99D60;" points="208.9,651.6 278,613.1 280.2,676.4 "/>
<polygon style="fill:#A9724B;" points="208.9,651.6 237.2,723.8 280.2,676.4 "/>
<polygon style="fill:#C39C64;" points="208.9,651.6 179.8,689 237.2,723.8 "/>
<polygon style="fill:#D0B46A;" points="208.9,651.6 238.5,597.5 278,613.1 "/>
<polygon style="fill:#E6C896;" points="238.5,597.5 167.8,624.9 208.9,651.6 "/>
<polygon style="fill:#AA7F4C;" points="167.8,624.9 216.7,568.7 238.5,597.5 "/>
<polygon style="fill:#C0B2A7;" points="160,445.2 77.3,499 166.6,487.2 "/>
<polygon style="fill:#F2E4DC;" points="160,445.2 65.6,447.5 77.3,499 "/>
<polygon style="fill:#8B7E6E;" points="65.6,447.5 21.1,477.7 77.3,499 "/>
<polygon style="fill:#968A7C;" points="21.1,477.7 8,542.8 77.3,499 "/>
<polygon style="fill:#322D29;" points="8,542.8 77.3,499 74.1,561.9 "/>
<polygon style="fill:#2A2521;" points="74.1,561.9 8,542.8 21.8,590.6 "/>
<polygon style="fill:#36332C;" points="77.3,499 74.1,561.9 119.8,531.7 "/>
<polygon style="fill:#E1D3C8;" points="77.3,499 166.6,487.2 119.8,531.7 "/>
<polygon style="fill:#C0B6AC;" points="185.2,518.1 166.6,487.2 119.8,531.7 "/>
<polygon style="fill:#9C714D;" points="185.2,518.1 161.9,574.4 216.7,568.7 "/>
<polygon style="fill:#2A231D;" points="119.8,531.7 185.2,518.1 161.9,574.4 "/>
<polygon style="fill:#413A34;" points="119.8,531.7 74.1,561.9 161.9,574.4 "/>
<polygon style="fill:#2E2721;" points="74.1,561.9 21.8,590.6 91.9,626.4 "/>
<polygon style="fill:#38302D;" points="91.9,626.4 161.9,574.4 74.1,561.9 "/>
<polygon style="fill:#362E2B;" points="91.9,626.4 161.9,574.4 167.8,624.9 "/>
<polygon style="fill:#D5C184;" points="161.9,574.4 167.8,624.9 216.7,568.7 "/>
<polygon style="fill:#2F2724;" points="91.9,626.4 167.8,624.9 167.8,624.9 179.8,689 "/>
<polygon style="fill:#C69D61;" points="179.8,689 208.9,651.6 167.8,624.9 "/>
<polygon style="fill:#6B605E;" points="396.4,310.1 360,317.4 396.4,317.5 "/>
<polygon style="fill:#E49F74;" points="316.7,462.3 316.7,469.3 339.2,462.3 "/>
<polygon style="fill:#E0D1CE;" points="452,365.8 456.6,363.1 469.9,364.9 "/>
</svg>
