<?xml version="1.0" encoding="utf-8"?>
<!-- Generator: Adobe Illustrator 19.0.0, SVG Export Plug-In . SVG Version: 6.00 Build 0)  -->
<svg version="1.1" id="Layer_1" xmlns="http://www.w3.org/2000/svg" xmlns:xlink="http://www.w3.org/1999/xlink" x="0px" y="0px"
	 viewBox="0 0 500 500" style="enable-background:new 0 0 500 500;" xml:space="preserve">
<g id="XMLID_1_">
	<path id="XMLID_28_" style="fill:#F37C66;" d="M0,0v500h500V0H0z M442.5,351.9h-39.4v-13.2c-11.2,10.9-25.8,17.5-41.9,17.5
		c-34.7,0-62.9-31-63.7-69.5l-36.9,65.2h-46.9l30.9-54.6c-23.2-1.8-43.3-15-54.5-34L140,351.9H93.1l30.9-54.5
		c-36.1-2.4-64.6-32.5-64.6-69.2c0-38.3,31.1-69.4,69.4-69.4c26.1,0,48.8,14.4,60.6,35.6c11.8-21.3,34.6-35.6,60.6-35.6
		c38.3,0,69.4,31.1,69.4,69.4c0,1.1,0,2.1-0.1,3.2c11.2-11,25.9-17.6,42-17.6c16,0,30.7,6.6,41.9,17.5v-70.6h39.4V351.9z"/>
	<path id="XMLID_14_" style="fill:#F37C66;" d="M161.3,228.1c0,7.5-2.6,14.5-6.9,20c-1.7,2.1-3.6,4-5.7,5.7v0
		c-5.5,4.3-12.4,6.8-19.9,6.8c-17.9,0-32.5-14.6-32.5-32.5s14.6-32.5,32.5-32.5S161.3,210.2,161.3,228.1z"/>
	<path id="XMLID_10_" style="fill:#F37C66;" d="M404.4,284.4c0,3.2-0.4,6.4-1.3,9.3c-3.9,14.5-16.9,25.1-32.2,25.1
		c-18.5,0-33.4-15.4-33.4-34.4s15-34.4,33.4-34.4c15.3,0,28.2,10.6,32.2,25C403.9,278,404.4,281.1,404.4,284.4z"/>
	<path id="XMLID_12_" style="fill:#F37C66;" d="M282.5,228.1c0,7.5-2.6,14.5-6.9,20c-1.9,2.5-4.2,4.7-6.8,6.5v0
		c-5.3,3.8-11.8,6-18.8,6c-17.9,0-32.5-14.6-32.5-32.5s14.6-32.5,32.5-32.5S282.5,210.2,282.5,228.1z"/>
</g>
</svg>
