<?xml version="1.0" encoding="utf-8"?>
<!-- Generator: Adobe Illustrator 19.0.0, SVG Export Plug-In . SVG Version: 6.00 Build 0)  -->
<svg version="1.1" id="Capa_1" xmlns="http://www.w3.org/2000/svg" xmlns:xlink="http://www.w3.org/1999/xlink" x="0px" y="0px"
	 viewBox="-86.9 146.9 500 500" style="enable-background:new -86.9 146.9 500 500;"
	 xml:space="preserve">
<path style="fill:#E1E6E9;" d="M46,146.9l-69.5,69.5v417.2c0,7.4,6,13.3,13.3,13.3h346.7c7.4,0,13.3-6,13.3-13.3V160.2
	c0-7.4-6-13.3-13.3-13.3H46L46,146.9z"/>
<polygon style="fill:#EBF0F3;" points="46,216.4 46,146.9 -23.5,216.4 "/>
<path style="fill:#27A2DB;" d="M163.1,237.9c-37,0-68.3,24.6-78.4,58.3c-3.5,11.8,5.5,23.6,17.8,23.6h121.3
	c12.3,0,21.3-11.8,17.8-23.6C231.5,262.5,200.2,237.9,163.1,237.9z"/>
<circle style="fill:#2D93BA;" cx="163.1" cy="206.9" r="32.3"/>
<g>
	<path style="fill:#D5D6DB;" d="M299.8,370.6H26.5c-3.7,0-6.7-3-6.7-6.7l0,0c0-3.7,3-6.7,6.7-6.7h273.3c3.7,0,6.7,3,6.7,6.7l0,0
		C306.5,367.6,303.5,370.6,299.8,370.6z"/>
	<path style="fill:#D5D6DB;" d="M166.5,410.4h-140c-3.7,0-6.7-3-6.7-6.7l0,0c0-3.7,3-6.7,6.7-6.7h140c3.7,0,6.7,3,6.7,6.7l0,0
		C173.1,407.4,170.2,410.4,166.5,410.4z"/>
	<path style="fill:#D5D6DB;" d="M299.8,450.2H26.5c-3.7,0-6.7-3-6.7-6.7l0,0c0-3.7,3-6.7,6.7-6.7h273.3c3.7,0,6.7,3,6.7,6.7l0,0
		C306.5,447.2,303.5,450.2,299.8,450.2z"/>
	<path style="fill:#D5D6DB;" d="M166.5,490h-140c-3.7,0-6.7-3-6.7-6.7l0,0c0-3.7,3-6.7,6.7-6.7h140c3.7,0,6.7,3,6.7,6.7l0,0
		C173.1,487,170.2,490,166.5,490z"/>
	<path style="fill:#D5D6DB;" d="M299.8,529.8H26.5c-3.7,0-6.7-3-6.7-6.7l0,0c0-3.7,3-6.7,6.7-6.7h273.3c3.7,0,6.7,3,6.7,6.7l0,0
		C306.5,526.8,303.5,529.8,299.8,529.8z"/>
	<path style="fill:#D5D6DB;" d="M166.5,569.6h-140c-3.7,0-6.7-3-6.7-6.7l0,0c0-3.7,3-6.7,6.7-6.7h140c3.7,0,6.7,3,6.7,6.7l0,0
		C173.1,566.6,170.2,569.6,166.5,569.6z"/>
	<path style="fill:#D5D6DB;" d="M299.8,609.4H26.5c-3.7,0-6.7-3-6.7-6.7l0,0c0-3.7,3-6.7,6.7-6.7h273.3c3.7,0,6.7,3,6.7,6.7l0,0
		C306.5,606.4,303.5,609.4,299.8,609.4z"/>
</g>
</svg>
