<?xml version="1.0" encoding="utf-8"?>
<!-- Generator: Adobe Illustrator 19.0.0, SVG Export Plug-In . SVG Version: 6.00 Build 0)  -->
<svg version="1.1" id="Capa_1" xmlns="http://www.w3.org/2000/svg" xmlns:xlink="http://www.w3.org/1999/xlink" x="0px" y="0px"
	 viewBox="-442.9 146.9 500 500" style="enable-background:new -442.9 146.9 500 500;"
	 xml:space="preserve">
<g>
	<circle style="fill:#F26798;" cx="-192.9" cy="396.9" r="250"/>
	<g>
		<path style="fill:#F1F2F2;" d="M-192.9,238.1c-87.7,0-159,71.2-159,158.8s71.3,158.8,159,158.8c87.7,0,159-71.2,159-158.8
			C-33.9,309.4-105.2,238.1-192.9,238.1L-192.9,238.1z M-88.3,313.1c18.1,22.5,29.2,50.9,29.7,81.8c-6-1.2-31.6-6-62.1-6
			c-9.9,0-20.2,0.5-30.6,1.8c-0.9-2.1-1.8-4.3-2.7-6.4c-2.7-6.3-5.6-12.6-8.6-18.8C-115.7,346-93,319.2-88.3,313.1L-88.3,313.1z
			 M-192.9,263c33.9,0,64.8,12.6,88.5,33.3c-3.7,5.1-24,30.5-69.4,47.6c-21-38.3-43.9-70.1-49.4-77.5
			C-213.4,264.2-203.3,263-192.9,263L-192.9,263z M-250.6,276c4.6,6.4,27.6,38.5,49.1,76.5c-57.7,15.2-109,16.2-121.4,16.2h-1.3
			C-315.3,327.7-287.6,293.7-250.6,276L-250.6,276z M-327.2,397.1c0-1.1,0-2.2,0.1-3.3c0.8,0,2,0,3.5,0c16.7,0,74.5-1.4,134.1-19.1
			c3.6,7.1,7.1,14.3,10.3,21.4c-1.5,0.4-3,0.9-4.5,1.3c-67.1,21.7-104,79.1-109.7,88.5C-314.4,462.3-327.2,431.2-327.2,397.1
			L-327.2,397.1z M-192.9,531.2c-30.8,0-59.2-10.4-81.9-27.9c3.8-7.5,31.7-57.7,105.2-83.3c0,0,0.1,0,0.1,0
			c18.4,48,26.3,88.3,28.4,100.8C-157,527.5-174.5,531.2-192.9,531.2L-192.9,531.2z M-116.8,507.6c-1.8-10.3-9-48.1-25.7-94.2
			c9.4-1.5,18.5-2,27-2c28.1,0,50,6.1,55.1,7.7C-66.5,455.7-87.4,487.3-116.8,507.6L-116.8,507.6z"/>
	</g>
</g>
</svg>
