<?xml version="1.0" encoding="utf-8"?>
<!-- Generator: Adobe Illustrator 19.0.0, SVG Export Plug-In . SVG Version: 6.00 Build 0)  -->
<svg version="1.1" id="Layer_1" xmlns="http://www.w3.org/2000/svg" xmlns:xlink="http://www.w3.org/1999/xlink" x="0px" y="0px"
	 viewBox="-90.6 0.6 500 500" style="enable-background:new -90.6 0.6 500 500;" xml:space="preserve"
	>
<path style="fill:#475993;" d="M342,0.6H-23.2c-37.2,0-67.4,30.2-67.4,67.4v365.2c0,37.2,30.2,67.4,67.4,67.4h180.1l0.3-178.7h-46.4
	c-6,0-10.9-4.9-11-10.9l-0.2-57.6c0-6.1,4.9-11,11-11h46.3v-55.6c0-64.6,39.4-99.7,97.1-99.7h47.3c6,0,11,4.9,11,11v48.6
	c0,6-4.9,10.9-10.9,11l-29,0c-31.3,0-37.4,14.9-37.4,36.7v48.2h68.8c6.6,0,11.6,5.7,10.9,12.2l-6.8,57.6c-0.7,5.5-5.3,9.7-10.9,9.7
	h-61.7l-0.3,178.7H342c37.2,0,67.4-30.2,67.4-67.4V68C409.4,30.8,379.2,0.6,342,0.6z"/>
</svg>
