<?xml version="1.0" encoding="utf-8"?>
<!-- Generator: Adobe Illustrator 19.0.0, SVG Export Plug-In . SVG Version: 6.00 Build 0)  -->
<svg version="1.1" id="Layer_2" xmlns="http://www.w3.org/2000/svg" xmlns:xlink="http://www.w3.org/1999/xlink" x="0px" y="0px"
	 viewBox="0 0 500 500" style="enable-background:new 0 0 500 500;" xml:space="preserve">
<path id="XMLID_16_" style="fill:#FFFFFF;" d="M499.7,250c0,138.1-111.9,250-250,250C135.5,500,39.2,423.5,9.3,319l94.4,38.5
	c6,33.3,35.2,58.6,70.2,58.6c39.4,0,71.4-31.9,71.4-71.4c0-1.8-0.1-3.7-0.2-5.5l0,0l84.6-58c1.2,0.1,2.4,0.1,3.5,0.1
	c52,0,94.1-42.1,94.1-94.1s-42.1-94.1-94.1-94.1S239,135.2,239,187.2l-59.7,86.4c-1.8-0.1-3.6-0.2-5.4-0.2c-15.3,0-29.4,4.8-41.1,13
	L0.3,231.3C9.9,102,117.9,0,249.7,0C387.7,0,499.7,111.9,499.7,250z"/>
<path id="XMLID_9_" style="fill:#FFFFFF;" d="M226.9,344.8c0,29.3-23.7,53-53,53c-21.5,0-40.1-12.9-48.4-31.3l32.9,13.4l0.1,0
	c4.7,2.1,9.9,3.2,15.4,3.2c21.2,0,38.3-17.2,38.3-38.3c0-17.3-11.5-31.9-27.2-36.7l0,0l-30.4-12.6c6-2.3,12.5-3.6,19.3-3.6
	C203.2,291.8,226.9,315.5,226.9,344.8z"/>
<path id="XMLID_25_" style="fill:#FFFFFF;" d="M333.2,125.5c-34.1,0-61.7,27.6-61.7,61.7c0,34.1,27.6,61.7,61.7,61.7
	s61.7-27.6,61.7-61.7C394.9,153.2,367.2,125.5,333.2,125.5z M333.2,233.5c-25.6,0-46.3-20.7-46.3-46.3c0-25.6,20.7-46.3,46.3-46.3
	c25.6,0,46.3,20.7,46.3,46.3C379.4,212.8,358.7,233.5,333.2,233.5z"/>
</svg>
