<?xml version="1.0" standalone="no"?>
<!DOCTYPE svg PUBLIC "-//W3C//DTD SVG 20010904//EN"
 "http://www.w3.org/TR/2001/REC-SVG-20010904/DTD/svg10.dtd">
<svg version="1.0" xmlns="http://www.w3.org/2000/svg"
 width="720.000000pt" height="720.000000pt" viewBox="0 0 720.000000 720.000000"
 preserveAspectRatio="xMidYMid meet">
<metadata>
Created by potrace 1.11, written by Peter Selinger 2001-2013
</metadata>
<g transform="translate(0.000000,720.000000) scale(0.100000,-0.100000)"
fill="#000000" stroke="none">
<path d="M3355 7175 c-22 -13 -51 -30 -65 -38 -24 -13 -249 -143 -445 -257
-49 -29 -108 -62 -130 -75 -22 -12 -68 -39 -102 -59 -34 -20 -66 -36 -71 -36
-6 0 -12 -4 -14 -8 -1 -4 -55 -37 -118 -73 -63 -36 -306 -176 -540 -311 -234
-135 -441 -254 -460 -265 -36 -21 -205 -119 -585 -338 -250 -145 -267 -155
-350 -202 -33 -19 -81 -46 -106 -61 -25 -15 -89 -52 -142 -82 l-97 -55 0
-1782 0 -1782 110 -3 c61 -2 115 -1 120 0 6 2 10 173 10 466 l0 463 86 49 c47
27 106 62 132 77 26 15 61 35 77 43 17 8 44 23 60 34 17 11 37 23 45 27 8 4
65 37 127 74 62 37 114 64 117 61 4 -3 6 -1 6 5 0 6 8 13 18 16 9 4 40 20 67
36 28 17 84 50 125 73 41 23 77 45 78 50 2 4 7 8 12 8 4 0 52 25 106 56 55 32
110 63 124 71 14 8 48 28 75 44 28 16 61 35 75 42 14 6 30 15 35 20 8 7 259
152 400 232 22 13 81 47 130 75 50 29 180 104 290 167 229 132 259 149 300
174 31 19 42 25 140 79 33 19 80 46 104 62 25 15 48 28 53 28 4 0 8 -935 8
-2077 0 -1143 0 -2106 0 -2140 l0 -63 120 0 120 0 0 63 c0 85 -1 108 -4 140
-1 15 1 27 4 27 3 0 5 15 3 33 -6 56 -6 257 -1 263 3 3 2 21 -2 40 -4 19 -4
36 0 39 5 3 5 18 0 34 -4 15 -4 34 0 41 4 6 4 28 -1 49 -4 20 -4 37 1 39 4 2
5 16 0 31 -4 16 -4 34 0 41 4 6 4 27 0 46 -4 19 -4 36 0 39 5 3 5 18 0 34 -4
15 -4 34 0 41 4 6 4 28 -1 49 -5 22 -4 37 2 39 5 2 7 8 4 13 -3 5 -6 75 -5
156 0 159 0 183 -4 226 -1 15 1 27 4 27 3 0 5 15 3 33 -6 56 -6 257 -1 263 3
3 2 21 -2 40 -4 19 -4 36 0 39 5 3 5 18 0 34 -4 15 -4 34 0 41 4 6 4 28 -1 49
-5 22 -4 37 2 39 5 2 7 7 4 12 -2 4 -5 38 -5 76 0 94 -1 115 -4 147 -1 15 1
27 4 27 3 0 5 15 3 33 -2 17 -3 66 -3 107 0 88 0 115 -4 153 -1 15 1 27 4 27
6 0 5 25 -3 87 -2 17 -1 37 3 43 4 7 4 27 0 46 -4 19 -4 36 0 39 5 3 5 18 0
34 -4 15 -4 34 0 41 4 6 4 28 -1 49 -5 22 -4 37 2 39 5 2 7 8 4 13 -3 5 -6 75
-5 156 0 159 0 183 -4 226 -1 15 1 27 4 27 3 0 5 15 3 33 -6 56 -6 257 -1 263
3 3 2 21 -2 40 -4 19 -4 36 0 39 5 3 5 18 0 34 -4 15 -4 34 0 41 4 6 4 28 -1
49 -5 22 -4 37 2 39 5 2 7 7 4 12 -2 4 -5 38 -5 76 0 94 -1 115 -4 147 -1 15
1 27 4 27 3 0 5 15 3 33 -2 17 -3 66 -3 107 0 88 0 115 -4 153 -1 15 1 27 4
27 3 0 5 15 3 33 -2 17 -3 66 -3 107 0 88 0 115 -4 153 -1 15 1 27 4 27 3 0 5
15 3 33 -2 17 -3 66 -3 107 0 88 0 115 -4 153 -1 15 1 27 4 27 6 0 5 25 -3 87
-2 17 -1 37 3 43 4 7 4 27 0 46 -4 19 -4 36 0 39 5 3 5 18 0 34 -4 15 -4 34 0
41 4 6 4 28 -1 49 -5 22 -4 37 2 39 5 2 7 8 4 13 -3 5 -6 75 -5 156 0 159 0
183 -4 226 -1 15 1 27 4 27 3 0 5 15 3 33 -6 56 -6 257 -1 263 3 3 2 21 -2 40
-4 19 -4 36 0 39 5 3 5 18 0 34 -4 15 -4 34 0 41 4 6 4 28 -1 49 -5 22 -4 37
2 39 5 2 7 7 4 12 -2 4 -5 38 -5 76 0 94 -1 115 -4 147 -1 15 1 27 4 27 3 0 5
15 3 33 -3 27 -4 122 -2 202 0 11 -3 30 -6 43 -3 12 -1 22 3 22 5 0 7 12 5 28
-2 15 -5 39 -5 55 -1 15 -2 27 -2 27 -1 -1 -19 -12 -41 -25z m-195 -1505 l0
-1110 -48 -25 c-26 -14 -54 -30 -62 -35 -8 -6 -98 -58 -200 -116 -431 -248
-1042 -600 -1127 -650 -50 -30 -96 -54 -101 -54 -6 0 -12 -4 -14 -8 -3 -7 -44
-32 -168 -100 -25 -13 -52 -30 -60 -37 -8 -7 -30 -18 -47 -26 -18 -8 -33 -17
-33 -21 0 -5 -4 -8 -8 -8 -5 0 -64 -32 -133 -72 -250 -144 -312 -178 -320
-178 -5 0 -9 -4 -9 -8 0 -4 -24 -20 -52 -35 -29 -16 -75 -41 -103 -57 -27 -17
-69 -40 -92 -52 -24 -12 -43 -26 -43 -30 0 -4 -4 -8 -9 -8 -5 0 -41 -18 -80
-40 -39 -22 -73 -40 -76 -40 -3 0 -5 498 -5 1108 0 1044 1 1108 18 1118 9 6
37 22 62 36 25 14 61 35 80 47 19 11 41 24 49 28 8 4 75 42 149 85 74 43 137
78 140 78 3 0 13 6 21 14 9 7 41 26 71 42 30 16 57 31 60 34 3 3 122 72 265
154 143 82 274 157 290 166 17 10 82 47 145 83 63 37 120 71 127 77 7 5 15 10
18 10 5 0 110 60 225 129 19 11 42 24 50 28 8 4 58 32 110 63 52 31 115 67
140 81 25 13 47 26 50 29 3 3 14 10 25 16 72 39 127 70 175 99 174 103 256
149 267 151 6 1 22 11 34 23 13 12 26 21 30 21 5 0 32 14 61 31 55 32 121 69
125 69 1 0 2 -499 3 -1110z"/>
<path d="M3799 7178 c-1 -7 -1 -17 0 -22 1 -5 2 -36 1 -70 0 -34 0 -72 1 -86
1 -27 1 -45 0 -75 -1 -11 0 -68 1 -128 2 -59 -1 -107 -5 -107 -5 0 -5 -4 -2
-10 3 -5 6 -38 5 -72 0 -35 0 -74 1 -88 1 -27 1 -45 0 -75 -1 -11 0 -68 1
-128 2 -59 -1 -107 -5 -107 -5 0 -5 -4 -2 -10 3 -5 6 -38 5 -72 0 -35 0 -74 1
-88 1 -27 1 -45 0 -75 -1 -11 0 -68 1 -128 2 -59 -1 -107 -5 -107 -5 0 -5 -4
-2 -10 3 -5 6 -38 5 -72 0 -35 0 -74 1 -88 1 -27 1 -45 0 -75 -1 -11 0 -68 1
-128 2 -59 -1 -107 -5 -107 -5 0 -5 -4 -2 -10 3 -5 6 -38 5 -72 0 -35 0 -74 1
-88 1 -27 1 -43 0 -75 -1 -23 -1 -115 0 -160 1 -47 1 -59 -1 -80 -1 -11 1 -37
3 -58 3 -20 1 -39 -4 -42 -4 -3 -4 -17 1 -30 6 -17 6 -25 -1 -25 -6 0 -7 -4
-4 -10 3 -5 6 -38 5 -72 0 -35 0 -74 1 -88 1 -27 1 -45 0 -75 -1 -11 0 -68 1
-128 2 -59 -1 -107 -5 -107 -5 0 -5 -4 -2 -10 3 -5 6 -38 5 -72 0 -35 0 -74 1
-88 1 -27 1 -45 0 -75 -1 -11 0 -68 1 -128 2 -59 -1 -107 -5 -107 -5 0 -5 -4
-2 -10 3 -5 6 -38 5 -72 0 -35 0 -74 1 -88 1 -27 1 -45 0 -75 -1 -11 0 -68 1
-128 2 -59 -1 -107 -5 -107 -5 0 -5 -4 -2 -10 3 -5 6 -38 5 -72 0 -35 0 -74 1
-88 1 -27 1 -45 0 -75 -1 -11 0 -68 1 -128 2 -59 -1 -107 -5 -107 -5 0 -5 -4
-2 -10 3 -5 6 -38 5 -72 0 -35 0 -74 1 -88 1 -27 1 -43 0 -75 -1 -23 -1 -115
0 -160 1 -47 1 -59 -1 -80 -1 -11 1 -37 3 -58 3 -20 2 -39 -2 -42 -4 -2 -5
-23 -3 -47 4 -43 5 -55 3 -93 -1 -11 0 -68 1 -128 2 -59 -1 -107 -5 -107 -5 0
-5 -4 -2 -10 3 -5 6 -38 5 -72 0 -35 0 -74 1 -88 1 -27 1 -45 0 -75 -1 -11 0
-68 1 -128 2 -59 -1 -107 -5 -107 -5 0 -5 -4 -2 -10 3 -5 6 -38 5 -72 0 -35 0
-74 1 -88 1 -27 1 -43 0 -75 -1 -11 -1 -60 -1 -110 0 -80 0 -109 1 -172 1 -10
0 -27 0 -38 -1 -11 0 -68 1 -128 2 -59 -1 -107 -5 -107 -5 0 -5 -4 -2 -10 3
-5 6 -38 5 -72 0 -35 0 -74 1 -88 1 -27 1 -43 0 -75 -1 -11 -1 -45 -1 -75 0
-30 0 -67 -1 -82 0 -15 2 -32 6 -38 4 -6 54 -10 121 -10 l114 0 1 93 c0 50 0
189 -1 308 l-1 217 38 23 c64 38 117 69 143 82 14 6 27 14 30 17 3 3 79 48
170 99 91 52 173 101 183 109 9 8 17 12 17 8 0 -4 12 1 28 12 29 21 89 56 462
270 129 74 315 181 413 238 98 57 183 104 188 104 5 0 9 5 9 10 0 6 5 10 11
10 6 0 44 20 85 45 40 25 76 45 78 45 2 0 34 19 72 41 59 36 111 66 179 103
11 6 22 13 25 16 3 3 16 11 30 17 14 7 46 25 72 40 48 29 209 123 263 153 17
9 89 51 160 92 l130 76 3 -239 2 -239 60 -1 c33 0 74 -1 90 -1 17 0 44 1 60 1
l30 1 0 1783 0 1783 -32 18 c-18 9 -42 22 -53 29 -28 17 -172 100 -217 126
-21 11 -55 31 -75 42 -68 38 -297 171 -333 193 -19 12 -48 28 -65 36 -16 8
-32 17 -35 20 -3 3 -43 28 -90 54 -47 27 -105 60 -130 74 -25 14 -73 43 -108
64 -34 21 -65 38 -67 38 -3 0 -22 11 -43 23 -20 13 -57 35 -82 49 -97 54 -129
73 -242 139 -64 38 -121 69 -127 69 -6 0 -11 3 -11 8 0 4 -10 12 -23 18 -36
17 -120 65 -147 84 -14 10 -35 21 -47 24 -13 4 -23 12 -23 17 0 5 -4 9 -10 9
-10 0 -346 192 -367 210 -7 5 -16 10 -21 10 -5 0 -22 10 -38 23 -16 12 -29 20
-29 18 0 -3 -11 2 -25 11 -62 39 -152 88 -161 88 -5 0 -9 5 -9 10 0 6 -5 10
-10 10 -6 0 -39 17 -74 39 -35 21 -77 44 -95 52 -17 8 -31 17 -31 21 0 5 -7 8
-15 8 -8 0 -15 5 -15 10 0 6 -5 10 -11 10 -6 0 -96 50 -200 110 -104 61 -193
110 -199 110 -5 0 -11 -6 -11 -12z m288 -420 c37 -21 68 -39 238 -136 28 -16
105 -61 172 -101 68 -39 127 -71 133 -71 5 0 10 -4 10 -10 0 -5 5 -10 10 -10
6 0 46 -22 89 -49 44 -27 81 -47 84 -45 2 3 10 -2 17 -11 7 -8 19 -15 26 -15
8 0 14 -4 14 -10 0 -5 5 -10 10 -10 13 0 174 -92 178 -102 2 -5 8 -8 13 -8 5
0 69 -34 142 -77 72 -42 141 -81 152 -87 11 -6 22 -13 25 -16 3 -3 21 -13 40
-24 33 -18 60 -33 133 -75 17 -10 70 -40 117 -67 47 -26 87 -51 90 -54 3 -3
23 -14 45 -26 22 -12 112 -63 200 -114 88 -51 176 -102 195 -113 19 -11 60
-33 90 -50 30 -16 62 -36 71 -43 8 -8 21 -14 27 -14 6 0 17 -6 24 -12 8 -7 29
-21 48 -32 19 -10 106 -60 193 -110 l157 -90 0 -1330 c0 -1223 -1 -1331 -17
-1348 -9 -10 -20 -18 -24 -18 -5 0 -41 -19 -81 -43 -40 -24 -80 -46 -88 -50
-8 -4 -30 -16 -48 -27 -18 -11 -106 -62 -195 -114 -89 -51 -185 -107 -213
-123 -27 -17 -70 -41 -95 -55 -24 -14 -86 -49 -137 -79 -52 -30 -112 -65 -135
-78 -23 -13 -53 -30 -67 -39 -14 -9 -27 -17 -30 -17 -3 0 -16 -8 -30 -17 -14
-8 -115 -67 -225 -131 -110 -63 -272 -156 -360 -207 -88 -51 -180 -104 -204
-118 -25 -14 -67 -38 -93 -53 -27 -16 -53 -29 -58 -29 -4 0 -10 -4 -12 -8 -1
-5 -28 -22 -58 -38 -61 -34 -74 -41 -248 -143 -68 -39 -127 -71 -132 -71 -6 0
-10 -3 -10 -7 0 -5 -10 -13 -23 -19 -35 -16 -111 -58 -117 -64 -15 -16 -80
-48 -84 -41 -6 8 -7 5871 -2 5871 2 0 21 -10 43 -22z"/>
</g>
</svg>
