                
<!-- Generator: Adobe Illustrator 19.0.0, SVG Export Plug-In . SVG Version: 6.00 Build 0)  -->
<svg version="1.1" id="Layer_3" xmlns="http://www.w3.org/2000/svg" xmlns:xlink="http://www.w3.org/1999/xlink" x="0px" y="0px"
	  viewBox="100 -3 811.4 799" style="enable-background:new 100 -3 811.4 799;" xml:space="preserve"
	>
<polygon id="triangle0" style="fill:#493B37;" points="408.8,151.2 467.2,123 440.4,159.4 "/>
<polygon id="triangle1" style="fill:#5A4E47;" points="383,205 408.8,151.2 440.4,159.4 "/>
<polygon id="triangle2" style="fill:#453D37;" points="423.8,205 440.4,159.4 516.8,194.7 "/>
<polygon id="triangle3" style="fill:#463938;" points="383,205 423.8,205 403.3,255.8 "/>
<polygon id="triangle4" style="fill:#E8D4BD;" points="375.6,259.5 383,205 403.3,255.8 "/>
<polygon id="triangle5" style="fill:#453C38;" points="383,205 440.4,159.4 423.8,205 "/>
<polygon id="triangle6" style="fill:#584845;" points="556.6,124.3 467.2,123 440.4,159.4 "/>
<polygon id="triangle7" style="fill:#38322D;" points="516.8,194.7 440.4,159.4 556.6,124.3 "/>
<polygon id="triangle8" style="fill:#352D29;" points="606,151.6 556.6,124.3 516.8,194.7 "/>
<polygon id="triangle9" style="fill:#534039;" points="606,151.6 597.7,221.4 622.7,204.5 "/>
<polygon id="triangle10" style="fill:#3F352F;" points="516.8,194.7 597.7,221.4 606,151.6 "/>
<polygon id="triangle11" style="fill:#4D4138;" points="516.8,194.7 601.2,233.8 597.7,221.4 "/>
<polygon id="triangle12" style="fill:#645C58;" points="597.7,221.4 636.2,258.6 622.7,204.5 "/>
<polygon id="triangle13" style="fill:#463530;" points="601.2,233.8 614.8,275 636.2,258.6 "/>
<polygon id="triangle14" style="fill:#423636;" points="597.7,221.4 601.2,233.8 636.2,258.6 "/>
<polygon id="triangle15" style="fill:#664A3D;" points="503.4,225.8 516.8,194.7 601.2,233.8 "/>
<polygon id="triangle16" style="fill:#4F3D34;" points="503.4,225.8 423.8,205 516.8,194.7 "/>
<polygon id="triangle17" style="fill:#D9C4A9;" points="441.2,253.4 423.8,205 503.4,225.8 "/>
<polygon id="triangle18" style="fill:#C4AC7E;" points="403.3,255.8 423.8,205 441.2,253.4 "/>
<polygon id="triangle19" style="fill:#87693D;" points="398,308.3 375.6,259.5 403.3,255.8 "/>
<polygon id="triangle20" style="fill:#4A3824;" points="379.5,308.1 375.6,259.5 398,308.3 "/>
<polygon id="triangle21" style="fill:#3B3127;" points="379.5,308.1 398,308.3 385,347.3 "/>
<polygon id="triangle22" style="fill:#F0D1A3;" points="398,308.3 430,292.1 403.3,255.8 "/>
<polygon id="triangle23" style="fill:#F1DEC0;" points="423.8,323.7 398,308.3 401.4,332.3 "/>
<polygon id="triangle24" style="fill:#F3E2D0;" points="430,292.1 398,308.3 423.8,323.7 "/>
<polygon id="triangle25" style="fill:#DBBE9C;" points="472,275.5 441.2,253.4 430,292.1 "/>
<polygon id="triangle26" style="fill:#CFB688;" points="403.3,255.8 441.2,253.4 430,292.1 "/>
<polygon id="triangle27" style="fill:#D5BC99;" points="503.4,225.8 472,275.5 441.2,253.4 "/>
<polygon id="triangle28" style="fill:#D0A67B;" points="535.2,259.5 503.4,225.8 601.2,233.8 "/>
<polygon id="triangle29" style="fill:#EBC4A0;" points="472,275.5 503.4,225.8 535.2,259.5 "/>
<polygon id="triangle30" style="fill:#D0B17F;" points="423.8,323.7 464.5,304.5 450.5,328.9 "/>
<polygon id="triangle31" style="fill:#ECCAB7;" points="430,292.1 464.5,304.5 472,275.5 "/>
<polygon id="triangle32" style="fill:#DEBD94;" points="423.8,323.7 430,292.1 464.5,304.5 "/>
<polygon id="triangle33" style="fill:#EEC2A1;" points="489.5,351.3 464.5,304.5 510.8,313.3 "/>
<polygon id="triangle34" style="fill:#D2B082;" points="470.8,340.8 464.5,304.5 450.5,328.9 "/>
<polygon id="triangle35" style="fill:#E4B98E;" points="489.5,351.3 464.5,304.5 470.8,340.8 "/>
<polygon id="triangle36" style="fill:#623F31;" points="482.9,371.8 489.5,351.3 470.8,340.8 "/>
<polygon id="triangle37" style="fill:#675747;" points="480.9,377.5 473.5,373.1 482.9,371.8 "/>
<polygon id="triangle38" style="fill:#A5938A;" points="463.4,348.8 470.8,340.3 482.9,371.8 "/>
<polygon id="triangle39" style="fill:#5E5952;" points="473.5,373.1 463.4,348.8 482.9,371.8 "/>
<polygon id="triangle40" style="fill:#5B5656;" points="447.2,334.4 470.8,340.8 463.4,348.8 "/>
<polygon id="triangle41" style="fill:#E7E3D7;" points="450.5,328.9 447.2,334.4 470.8,340.8 "/>
<polygon id="triangle42" style="fill:#F0C3A2;" points="540.4,285.5 535.2,259.5 472,275.5 "/>
<polygon id="triangle43" style="fill:#ECC7B4;" points="510.8,313.3 472,275.5 464.5,304.5 "/>
<polygon id="triangle44" style="fill:#DEC2A7;" points="540.4,285.5 472,275.5 510.8,313.3 "/>
<polygon id="triangle45" style="fill:#EABF9A;" points="546.9,332.9 510.8,313.3 504.4,355.7 "/>
<polygon id="triangle46" style="fill:#EDC0A4;" points="540.4,285.5 510.8,313.3 546.9,332.9 "/>
<polygon id="triangle47" style="fill:#F0C5A4;" points="574.9,294.7 535.2,259.5 540.4,285.5 "/>
<polygon id="triangle48" style="fill:#EFC8AE;" points="601.2,233.8 535.2,259.5 574.9,294.7 "/>
<polygon id="triangle49" style="fill:#D7B494;" points="601.2,233.8 574.9,294.7 614.8,275 "/>
<polygon id="triangle50" style="fill:#443E35;" points="636.2,258.6 614.8,275 625.7,320.7 "/>
<polygon id="triangle51" style="fill:#563B32;" points="611.2,317.4 614.8,275 625.7,320.7 "/>
<polygon id="triangle52" style="fill:#ECB99D;" points="575.7,327.2 574.9,294.7 611.2,317.4 "/>
<polygon id="triangle53" style="fill:#E1B191;" points="614.8,275 574.9,294.7 611.2,317.4 "/>
<polygon id="triangle54" style="fill:#EFCAB3;" points="540.4,285.5 574.9,294.7 546.9,332.9 "/>
<polygon id="triangle55" style="fill:#E2B493;" points="575.7,327.2 574.9,294.7 546.9,332.9 "/>
<polygon id="triangle56" style="fill:#EFC49D;" points="510.8,313.3 504.4,355.7 489.5,351.3 "/>
<polygon id="triangle57" style="fill:#968456;" points="401.4,332.3 398,308.3 385,347.3 "/>
<polygon id="triangle58" style="fill:#706C5A;" points="401.4,332.3 399.7,341.2 385,347.3 "/>
<polygon id="triangle59" style="fill:#41372E;" points="423.9,330.5 401.4,332.3 399.7,341.2 "/>
<polygon id="triangle60" style="fill:#918A73;" points="423.9,330.5 423.8,323.7 401.4,332.3 "/>
<polygon id="triangle61" style="fill:#373632;" points="447.2,334.4 423.9,330.5 450.5,328.9 "/>
<polygon id="triangle62" style="fill:#8D8A81;" points="423.8,323.7 423.9,330.5 450.5,328.9 "/>
<polygon id="triangle63" style="fill:#F6EDE4;" points="385,347.3 373.5,362.9 387,362.8 "/>
<polygon id="triangle64" style="fill:#EEDFD9;" points="370.3,346.3 367,366.3 373.5,362.9 "/>
<polygon id="triangle65" style="fill:#949768;" points="375,375 373.5,362.9 367,366.3 "/>
<polygon id="triangle66" style="fill:#9A9F98;" points="384.4,375.6 373.5,362.9 387,362.8 "/>
<polygon id="triangle67" style="fill:#F4E9E7;" points="375,375 373.5,362.9 384.4,375.6 "/>
<polygon id="triangle68" style="fill:#A6A47E;" points="380.6,395.3 375,375 384.4,375.6 "/>
<polygon id="triangle69" style="fill:#E4DEC4;" points="393.8,403.7 384.4,375.6 380.6,395.3 "/>
<polygon id="triangle70" style="fill:#FFEFDC;" points="392,415.6 380.6,395.3 393.8,403.7 "/>
<polygon id="triangle71" style="fill:#AFA28F;" points="413,419.4 393.8,403.7 392,415.6 "/>
<polygon id="triangle72" style="fill:#C7B072;" points="406.3,443.5 392,415.6 413,419.4 "/>
<polygon id="triangle73" style="fill:#EACB9C;" points="406.3,443.5 413,419.4 439.6,441.3 "/>
<polygon id="triangle74" style="fill:#F4C59C;" points="435.8,425.3 413,419.4 439.6,441.3 "/>
<polygon id="triangle75" style="fill:#555448;" points="421.2,400.8 393.8,403.7 408.9,375.7 "/>
<polygon id="triangle76" style="fill:#6B4D53;" points="413,419.4 393.8,403.7 421.2,400.8 "/>
<polygon id="triangle77" style="fill:#ECA88E;" points="435.8,425.3 421.2,400.8 413,419.4 "/>
<polygon id="triangle78" style="fill:#EAC59A;" points="459.6,436.8 456.4,418.5 435.8,425.3 "/>
<polygon id="triangle79" style="fill:#EFCCA7;" points="435.8,425.3 459.6,436.8 439.6,441.3 "/>
<polygon id="triangle80" style="fill:#C9E0D3;" points="450.5,397.7 435.8,425.3 421.2,400.8 "/>
<polygon id="triangle81" style="fill:#269D48;" points="442.7,374.2 421.2,400.8 450.5,397.7 "/>
<polygon id="triangle82" style="fill:#4DC1B7;" points="450.5,397.7 456.4,418.5 435.8,425.3 "/>
<polygon id="triangle83" style="fill:#515C32;" points="387,362.8 408.9,375.7 384.4,375.6 "/>
<polygon id="triangle84" style="fill:#986B4F;" points="384.4,375.6 408.9,375.7 393.8,403.7 "/>
<polygon id="triangle85" style="fill:#53BA5B;" points="408.9,375.7 442.7,374.2 421.2,400.8 "/>
<polygon id="triangle86" style="fill:#3DA676;" points="416.9,355.3 442.7,374.2 408.9,375.7 "/>
<polygon id="triangle87" style="fill:#46B761;" points="387,362.8 416.9,355.3 408.9,375.7 "/>
<polygon id="triangle88" style="fill:#353331;" points="387,362.8 399.7,341.2 385,347.3 "/>
<polygon id="triangle89" style="fill:#10723A;" points="387,362.8 399.7,341.2 416.9,355.3 "/>
<polygon id="triangle90" style="fill:#3F863F;" points="399.7,341.2 423.9,330.5 416.9,355.3 "/>
<polygon id="triangle91" style="fill:#45B649;" points="416.9,355.3 423.9,330.5 447.2,334.4 "/>
<polygon id="triangle92" style="fill:#43784F;" points="416.9,355.3 447.2,334.4 443.4,348.9 "/>
<polygon id="triangle93" style="fill:#4BBB82;" points="416.9,355.3 443.4,348.9 442.7,374.2 "/>
<polygon id="triangle94" style="fill:#51C0A6;" points="442.7,374.2 443.4,348.9 463.4,348.8 "/>
<polygon id="triangle95" style="fill:#4FC0AC;" points="447.2,334.4 463.4,348.8 443.4,348.9 "/>
<polygon id="triangle96" style="fill:#00A464;" points="463.4,348.8 442.7,374.2 473.5,373.1 "/>
<polygon id="triangle97" style="fill:#C9E2DF;" points="442.7,374.2 473.5,373.1 450.5,397.7 "/>
<polygon id="triangle98" style="fill:#317A5D;" points="473.5,373.1 473.3,391.6 450.5,397.7 "/>
<polygon id="triangle99" style="fill:#EADBD3;" points="481.1,393 473.5,373.1 473.3,391.6 "/>
<polygon id="triangle100" style="fill:#202E31;" points="473.3,391.6 466.4,408.7 450.5,397.7 "/>
<polygon id="triangle101" style="fill:#8A786C;" points="481.1,393 466.4,408.7 473.3,391.6 "/>
<polygon id="triangle102" style="fill:#304D50;" points="466.4,408.7 456.4,418.5 450.5,397.7 "/>
<polygon id="triangle103" style="fill:#764939;" points="456.4,418.5 466.4,408.7 474.7,412.1 "/>
<polygon id="triangle104" style="fill:#8F5C3C;" points="465.1,422.2 456.4,418.5 459.6,436.8 "/>
<polygon id="triangle105" style="fill:#B0826A;" points="474.7,412.1 456.4,418.5 465.1,422.2 "/>
<polygon id="triangle106" style="fill:#CEAE89;" points="474.7,412.1 476,424.3 465.1,422.2 "/>
<polygon id="triangle107" style="fill:#C7A170;" points="459.6,436.8 465.1,422.2 476,424.3 "/>
<polygon id="triangle108" style="fill:#DFB581;" points="459.6,436.8 476,424.3 473.8,436.3 "/>
<polygon id="triangle109" style="fill:#D0A674;" points="476,424.3 473.8,436.3 484.3,436.4 "/>
<polygon id="triangle110" style="fill:#825C48;" points="481.1,393 466.4,408.7 474.7,412.1 "/>
<polygon id="triangle111" style="fill:#DABBA6;" points="493.4,413.3 481.1,393 474.7,412.1 "/>
<polygon id="triangle112" style="fill:#D1B69D;" points="493.4,413.3 474.7,412.1 476,424.3 "/>
<polygon id="triangle113" style="fill:#EBC6AA;" points="493.4,413.3 476,424.3 494.4,426.6 "/>
<polygon id="triangle114" style="fill:#E4B681;" points="484.3,436.4 476,424.3 494.4,426.6 "/>
<polygon id="triangle115" style="fill:#E8D8C9;" points="473.5,373.1 481.1,393 480.9,377.5 "/>
<polygon id="triangle116" style="fill:#877A50;" points="482.9,371.8 480.9,377.5 500.6,378.4 "/>
<polygon id="triangle117" style="fill:#CDA67B;" points="482.9,371.8 489.5,351.3 504.4,355.7 "/>
<polygon id="triangle118" style="fill:#E1B8A2;" points="482.9,371.8 504.4,355.7 515.6,372 "/>
<polygon id="triangle119" style="fill:#F3E3D4;" points="482.9,371.8 515.6,372 500.6,378.4 "/>
<polygon id="triangle120" style="fill:#B9986A;" points="481.1,393 500.6,378.4 480.9,377.5 "/>
<polygon id="triangle121" style="fill:#F3C7BB;" points="481.1,393 500.6,378.4 502.3,391.1 "/>
<polygon id="triangle122" style="fill:#EBC9C0;" points="493.4,413.3 481.1,393 502.3,391.1 "/>
<polygon id="triangle123" style="fill:#F4CAC1;" points="493.4,413.3 502.3,391.1 515.9,406.3 "/>
<polygon id="triangle124" style="fill:#F0BCB2;" points="493.4,413.3 512.6,424.9 515.9,406.3 "/>
<polygon id="triangle125" style="fill:#EFC9B7;" points="512.6,424.9 494.4,426.6 493.4,413.3 "/>
<polygon id="triangle126" style="fill:#EBB99D;" points="500.6,378.4 502.3,391.1 515.1,389.4 "/>
<polygon id="triangle127" style="fill:#B38D70;" points="500.6,378.4 515.6,372 515.2,379.9 "/>
<polygon id="triangle128" style="fill:#E2AA85;" points="500.6,378.4 515.2,379.9 515.1,389.4 "/>
<polygon id="triangle129" style="fill:#EFB79C;" points="502.3,391.1 515.1,389.4 515.9,406.3 "/>
<polygon id="triangle130" style="fill:#DDA87E;" points="515.1,389.4 515.9,406.3 522.9,405.6 "/>
<polygon id="triangle131" style="fill:#ECAF80;" points="515.9,406.3 522.9,405.6 523.3,422 "/>
<polygon id="triangle132" style="fill:#ECB9A5;" points="515.9,406.3 512.6,424.9 523.3,422 "/>
<polygon id="triangle133" style="fill:#503C24;" points="504.4,355.7 525.7,352.7 546.9,332.9 "/>
<polygon id="triangle134" style="fill:#7F4B36;" points="504.4,355.7 525.7,352.7 515.6,372 "/>
<polygon id="triangle135" style="fill:#7E7570;" points="525.7,352.7 531.3,362.1 515.6,372 "/>
<polygon id="triangle136" style="fill:#443A38;" points="525.7,352.7 546.4,341.5 546.9,332.9 "/>
<polygon id="triangle137" style="fill:#2E4D37;" points="525.7,352.7 546.4,341.5 531.3,362.1 "/>
<polygon id="triangle138" style="fill:#46504F;" points="531.3,362.1 522.3,375.9 515.6,372 "/>
<polygon id="triangle139" style="fill:#FFF8EC;" points="515.2,379.9 522.3,375.9 515.6,372 "/>
<polygon id="triangle140" style="fill:#86949D;" points="515.2,379.9 524,394.8 522.3,375.9 "/>
<polygon id="triangle141" style="fill:#FFF6EF;" points="515.2,379.9 515.1,389.4 524,394.8 "/>
<polygon id="triangle142" style="fill:#FBE8D8;" points="515.1,389.4 522.9,405.6 524,394.8 "/>
<polygon id="triangle143" style="fill:#584845;" points="620.5,351.9 611.2,317.4 625.7,320.7 "/>
<polygon id="triangle144" style="fill:#CAB4A9;" points="611.2,317.4 603.8,336 620.5,351.9 "/>
<polygon id="triangle145" style="fill:#EDDAD3;" points="603.8,336 599,343.8 620.5,351.9 "/>
<polygon id="triangle146" style="fill:#DBB7A1;" points="575.7,327.2 611.2,317.4 603.8,336 "/>
<polygon id="triangle147" style="fill:#E4E3DB;" points="575.7,327.2 599,343.8 603.8,336 "/>
<polygon id="triangle148" style="fill:#453F3F;" points="575.7,327.2 575.7,333 599,343.8 "/>
<polygon id="triangle149" style="fill:#453F33;" points="575.7,333 546.4,341.5 546.9,332.9 "/>
<polygon id="triangle150" style="fill:#3EB65B;" points="599,343.8 575.7,333 578.2,358.5 "/>
<polygon id="triangle151" style="fill:#46B974;" points="575.7,333 546.4,341.5 578.2,358.5 "/>
<polygon id="triangle152" style="fill:#25A249;" points="546.4,341.5 531.3,362.1 578.2,358.5 "/>
<polygon id="triangle153" style="fill:#5EBD73;" points="531.3,362.1 555.6,379 578.2,358.5 "/>
<polygon id="triangle154" style="fill:#0AA74B;" points="531.3,362.1 522.3,375.9 555.6,379 "/>
<polygon id="triangle155" style="fill:#356057;" points="522.3,375.9 548.5,398.7 524,394.8 "/>
<polygon id="triangle156" style="fill:#70C7AF;" points="522.3,375.9 555.6,379 548.5,398.7 "/>
<polygon id="triangle157" style="fill:#79C256;" points="555.6,379 578.2,358.5 597.4,373.5 "/>
<polygon id="triangle158" style="fill:#BFE4DC;" points="555.6,379 571.7,405.4 597.4,373.5 "/>
<polygon id="triangle159" style="fill:#224539;" points="555.6,379 548.5,398.7 571.7,405.4 "/>
<polygon id="triangle160" style="fill:#5B5652;" points="537.9,413.1 524,394.8 522.9,405.6 "/>
<polygon id="triangle161" style="fill:#F1AB78;" points="534,416.4 522.9,405.6 523.3,422 "/>
<polygon id="triangle162" style="fill:#D6CBB3;" points="522.9,405.6 537.9,413.1 534,416.4 "/>
<polygon id="triangle163" style="fill:#E6A177;" points="523.3,422 530.4,433.6 534,416.4 "/>
<polygon id="triangle164" style="fill:#EBB68A;" points="534,416.4 541.9,421.4 530.4,433.6 "/>
<polygon id="triangle165" style="fill:#FFE6C8;" points="537.9,413.1 534,416.4 541.9,421.4 "/>
<polygon id="triangle166" style="fill:#313133;" points="537.9,413.1 548.5,398.7 524,394.8 "/>
<polygon id="triangle167" style="fill:#2D2B2E;" points="537.9,413.1 548.5,398.7 560.3,423.1 "/>
<polygon id="triangle168" style="fill:#39322A;" points="537.9,413.1 541.9,421.4 560.3,423.1 "/>
<polygon id="triangle169" style="fill:#E5B181;" points="541.9,421.4 560.3,423.1 559.6,432.6 "/>
<polygon id="triangle170" style="fill:#0D5251;" points="548.5,398.7 560.3,423.1 571.7,405.4 "/>
<polygon id="triangle171" style="fill:#5DBF89;" points="571.7,405.4 598.1,397.3 597.4,373.5 "/>
<polygon id="triangle172" style="fill:#49293E;" points="571.7,405.4 581.2,421.5 560.3,423.1 "/>
<polygon id="triangle173" style="fill:#50313B;" points="598.1,397.3 581.2,421.5 571.7,405.4 "/>
<polygon id="triangle174" style="fill:#CDA277;" points="560.3,423.1 559.6,432.6 581.2,421.5 "/>
<polygon id="triangle175" style="fill:#EDB88B;" points="559.6,432.6 582.2,430.5 581.2,421.5 "/>
<polygon id="triangle176" style="fill:#BDB09D;" points="581.2,421.5 607.4,407.8 582.2,430.5 "/>
<polygon id="triangle177" style="fill:#472E34;" points="598.1,397.3 607.4,407.8 581.2,421.5 "/>
<polygon id="triangle178" style="fill:#54BD83;" points="578.2,358.5 599,343.8 597.4,373.5 "/>
<polygon id="triangle179" style="fill:#5BC098;" points="599,343.8 615.3,362.7 597.4,373.5 "/>
<polygon id="triangle180" style="fill:#0D8850;" points="597.4,373.5 615.3,362.7 619.7,371.2 "/>
<polygon id="triangle181" style="fill:#41A27C;" points="597.4,373.5 616.4,386.8 619.7,371.2 "/>
<polygon id="triangle182" style="fill:#44A77C;" points="597.4,373.5 598.1,397.3 616.4,386.8 "/>
<polygon id="triangle183" style="fill:#1F3F34;" points="598.1,397.3 616.4,386.8 607.4,407.8 "/>
<polygon id="triangle184" style="fill:#F4E2D9;" points="615.3,362.7 620.5,351.9 599,343.8 "/>
<polygon id="triangle185" style="fill:#ECD8D6;" points="615.3,362.7 620.5,351.9 623.3,369.1 "/>
<polygon id="triangle186" style="fill:#E0CCC6;" points="615.3,362.7 623.3,369.1 619.7,371.2 "/>
<polygon id="triangle187" style="fill:#CCBCAC;" points="619.7,371.2 616.4,386.8 624.8,380.3 "/>
<polygon id="triangle188" style="fill:#D7D2C7;" points="623.3,369.1 630.8,351.3 633.9,370.5 "/>
<polygon id="triangle189" style="fill:#EEDCD5;" points="619.7,371.2 624.8,380.3 633.9,370.5 "/>
<polygon id="triangle190" style="fill:#D8C6A4;" points="633.9,370.5 624.8,380.3 632.6,379.1 "/>
<polygon id="triangle191" style="fill:#FADFD8;" points="624.8,380.3 616.4,386.8 615.9,405.9 "/>
<polygon id="triangle192" style="fill:#B9967F;" points="616.4,386.8 607.4,407.8 607.4,407.8 615.9,405.9 "/>
<polygon id="triangle193" style="fill:#B89281;" points="615.9,405.9 611.2,415.9 607.4,407.8 "/>
<polygon id="triangle194" style="fill:#DAB193;" points="582.2,430.5 607.4,407.8 611.2,415.9 "/>
<polygon id="triangle195" style="fill:#EDB993;" points="582.2,430.5 595.3,455.9 611.2,415.9 "/>
<polygon id="triangle196" style="fill:#9C7961;" points="611.2,415.9 599.6,471.3 595.3,455.9 "/>
<polygon id="triangle197" style="fill:#EFC29B;" points="557.8,457.3 582.2,430.5 595.3,455.9 "/>
<polygon id="triangle198" style="fill:#EBBC8D;" points="557.8,457.3 595.3,455.9 579.7,478.1 "/>
<polygon id="triangle199" style="fill:#D5A37D;" points="579.7,478.1 599.6,471.3 595.3,455.9 "/>
<polygon id="triangle200" style="fill:#C59A77;" points="599.6,471.3 584.2,493.8 579.7,478.1 "/>
<polygon id="triangle201" style="fill:#2C2C2A;" points="599.6,471.3 600.1,532 584.2,493.8 "/>
<polygon id="triangle202" style="fill:#897460;" points="599.6,471.3 621.8,509.5 600.1,532 "/>
<polygon id="triangle203" style="fill:#25201C;" points="584.2,493.8 572.4,513.1 600.1,532 "/>
<polygon id="triangle204" style="fill:#8A745D;" points="579.7,478.1 562.2,501.5 584.2,493.8 "/>
<polygon id="triangle205" style="fill:#6C5946;" points="562.2,501.5 584.2,493.8 572.4,513.1 "/>
<polygon id="triangle206" style="fill:#EEBF93;" points="556.8,486.6 557.8,457.3 579.7,478.1 "/>
<polygon id="triangle207" style="fill:#F4C28A;" points="549.5,503.7 556.8,486.6 562.2,501.5 "/>
<polygon id="triangle208" style="fill:#F1BD88;" points="556.8,486.6 562.2,501.5 579.7,478.1 "/>
<polygon id="triangle209" style="fill:#EDBE92;" points="494.4,426.6 484.3,436.4 504.3,442.3 "/>
<polygon id="triangle210" style="fill:#F3C9A0;" points="494.4,426.6 512.5,436 504.3,442.3 "/>
<polygon id="triangle211" style="fill:#EECBA6;" points="494.4,426.6 512.6,424.9 512.5,436 "/>
<polygon id="triangle212" style="fill:#EAC5A0;" points="512.6,424.9 530.4,433.6 512.5,436 "/>
<polygon id="triangle213" style="fill:#EEB49F;" points="512.6,424.9 523.3,422 530.4,433.6 "/>
<polygon id="triangle214" style="fill:#F1BE8D;" points="530.4,433.6 541.9,421.4 559.6,432.6 "/>
<polygon id="triangle215" style="fill:#EDBC93;" points="557.8,457.3 559.6,432.6 582.2,430.5 "/>
<polygon id="triangle216" style="fill:#EDC09C;" points="559.6,432.6 530.5,447.6 530.4,433.6 "/>
<polygon id="triangle217" style="fill:#EEC39E;" points="530.5,447.6 559.6,432.6 557.8,457.3 "/>
<polygon id="triangle218" style="fill:#E2996C;" points="512.7,447.6 521.3,441.9 530.5,447.6 "/>
<polygon id="triangle219" style="fill:#F4AA83;" points="512.5,436 512.7,447.6 521.3,441.9 "/>
<polygon id="triangle220" style="fill:#FCC199;" points="530.4,433.6 521.3,441.9 512.5,436 "/>
<polygon id="triangle221" style="fill:#F4C093;" points="530.4,433.6 521.3,441.9 530.5,447.6 "/>
<polygon id="triangle222" style="fill:#EEC3A0;" points="530.5,447.6 524.9,466.4 557.8,457.3 "/>
<polygon id="triangle223" style="fill:#F4C99E;" points="524.9,466.4 541.1,474.7 557.8,457.3 "/>
<polygon id="triangle224" style="fill:#ECBE90;" points="557.8,457.3 541.1,474.7 556.8,486.6 "/>
<polygon id="triangle225" style="fill:#CC9171;" points="541.1,474.7 534.7,489.1 556.8,486.6 "/>
<polygon id="triangle226" style="fill:#975C26;" points="534.7,489.1 556.8,486.6 549.5,503.7 "/>
<polygon id="triangle227" style="fill:#AF806E;" points="524.9,466.4 534.7,489.1 541.1,474.7 "/>
<polygon id="triangle228" style="fill:#D59D7C;" points="524.9,466.4 516.9,482.4 534.7,489.1 "/>
<polygon id="triangle229" style="fill:#967566;" points="512.7,453.1 512.3,467.2 524.9,466.4 "/>
<polygon id="triangle230" style="fill:#F3C29F;" points="512.7,453.1 524.9,466.4 530.5,447.6 "/>
<polygon id="triangle231" style="fill:#D98F6A;" points="504.3,442.3 512.5,436 512.7,447.6 "/>
<polygon id="triangle232" style="fill:#ECB888;" points="504.3,442.3 497.6,459.8 512.7,453.1 "/>
<polygon id="triangle233" style="fill:#EBAE7F;" points="504.3,442.3 512.7,453.1 512.7,447.6 "/>
<polygon id="triangle234" style="fill:#DFBA8B;" points="512.7,453.1 497.6,459.8 512.3,467.2 "/>
<polygon id="triangle235" style="fill:#583425;" points="497.6,459.8 497.2,475.7 512.3,467.2 "/>
<polygon id="triangle236" style="fill:#6F4D43;" points="512.3,467.2 516.9,482.4 524.9,466.4 "/>
<polygon id="triangle237" style="fill:#6C5946;" points="512.3,467.2 497.2,475.7 516.9,482.4 "/>
<polygon id="triangle238" style="fill:#9C8A58;" points="388.7,434 392,415.6 406.3,443.5 "/>
<polygon id="triangle239" style="fill:#625331;" points="393.9,467.3 388.7,434 406.3,443.5 "/>
<polygon id="triangle240" style="fill:#ECCC9A;" points="406.3,443.5 435.3,461.7 439.6,441.3 "/>
<polygon id="triangle241" style="fill:#705B40;" points="426.9,471.7 406.3,443.5 393.9,467.3 "/>
<polygon id="triangle242" style="fill:#DBC57C;" points="435.3,461.7 406.3,443.5 426.9,471.7 "/>
<polygon id="triangle243" style="fill:#DFC79C;" points="452.7,453.5 439.6,441.3 435.3,461.7 "/>
<polygon id="triangle244" style="fill:#DEC79A;" points="459.6,436.8 439.6,441.3 452.7,453.5 "/>
<polygon id="triangle245" style="fill:#CEA975;" points="459.6,436.8 468.2,442.2 452.7,453.5 "/>
<polygon id="triangle246" style="fill:#E6B486;" points="459.6,436.8 468.2,442.2 473.8,436.3 "/>
<polygon id="triangle247" style="fill:#C28763;" points="473.8,436.3 479.1,446.4 468.2,442.2 "/>
<polygon id="triangle248" style="fill:#925235;" points="473.8,436.3 484.3,436.4 479.1,446.4 "/>
<polygon id="triangle249" style="fill:#DFBA8B;" points="468.2,442.2 463.2,459 479.1,446.4 "/>
<polygon id="triangle250" style="fill:#BDA77E;" points="452.7,453.5 468.2,442.2 463.2,459 "/>
<polygon id="triangle251" style="fill:#F2BE8C;" points="484.3,436.4 490.4,443.7 504.3,442.3 "/>
<polygon id="triangle252" style="fill:#CA9567;" points="479.1,446.4 484.3,436.4 490.4,443.7 "/>
<polygon id="triangle253" style="fill:#D7A86F;" points="479.1,446.4 489,459.2 490.4,443.7 "/>
<polygon id="triangle254" style="fill:#DFBA8B;" points="490.4,443.7 489,459.2 497.6,459.8 "/>
<polygon id="triangle255" style="fill:#EBBF92;" points="490.4,443.7 504.3,442.3 497.6,459.8 "/>
<polygon id="triangle256" style="fill:#AD8A6A;" points="489,459.2 497.2,475.7 497.6,459.8 "/>
<polygon id="triangle257" style="fill:#ECB888;" points="463.2,459 479.1,446.4 489,459.2 "/>
<polygon id="triangle258" style="fill:#796554;" points="463.2,459 474.3,481 489,459.2 "/>
<polygon id="triangle259" style="fill:#8A745D;" points="489,459.2 474.3,481 497.2,475.7 "/>
<polygon id="triangle260" style="fill:#E5AC7F;" points="474.3,481 475.7,488.5 485.5,482.7 "/>
<polygon id="triangle261" style="fill:#EDBE95;" points="474.3,481 497.2,475.7 485.5,482.7 "/>
<polygon id="triangle262" style="fill:#EFB891;" points="485.5,482.7 507.6,485.7 497.2,475.7 "/>
<polygon id="triangle263" style="fill:#C15747;" points="475.7,488.5 485.5,482.7 489.2,494.5 "/>
<polygon id="triangle264" style="fill:#CC6A59;" points="489.2,494.5 507.6,485.7 485.5,482.7 "/>
<polygon id="triangle265" style="fill:#E08775;" points="480.7,498.8 475.7,488.5 489.2,494.5 "/>
<polygon id="triangle266" style="fill:#EA9D86;" points="480.7,498.8 489.2,494.5 496.5,503 "/>
<polygon id="triangle267" style="fill:#D47060;" points="489.2,494.5 507.6,485.7 496.5,503 "/>
<polygon id="triangle268" style="fill:#E8AE86;" points="507.6,485.7 516.9,482.4 497.2,475.7 "/>
<polygon id="triangle269" style="fill:#F69488;" points="496.5,503 507.6,485.7 525.4,493.3 "/>
<polygon id="triangle270" style="fill:#F2A684;" points="507.6,485.7 516.9,482.4 525.4,493.3 "/>
<polygon id="triangle271" style="fill:#E5AC7D;" points="516.9,482.4 525.4,493.3 534.7,489.1 "/>
<polygon id="triangle272" style="fill:#EFAC7B;" points="525.4,493.3 549.5,503.7 534.7,489.1 "/>
<polygon id="triangle273" style="fill:#E19E76;" points="496.5,503 525.4,493.3 533,508.8 "/>
<polygon id="triangle274" style="fill:#E2B68B;" points="496.5,503 484.2,515.3 503.9,519.8 "/>
<polygon id="triangle275" style="fill:#F0CEAE;" points="496.5,503 533,508.8 503.9,519.8 "/>
<polygon id="triangle276" style="fill:#644938;" points="503.9,519.8 525.7,533.5 533,508.8 "/>
<polygon id="triangle277" style="fill:#EEC08F;" points="533,508.8 549.5,503.7 525.4,493.4 "/>
<polygon id="triangle278" style="fill:#705F47;" points="533,508.8 549.7,523.4 549.5,503.7 "/>
<polygon id="triangle279" style="fill:#593B2D;" points="525.7,533.5 549.7,523.4 533,508.8 "/>
<polygon id="triangle280" style="fill:#413A34;" points="562.2,501.5 549.5,503.7 549.7,523.4 549.7,523.4 "/>
<polygon id="triangle281" style="fill:#4E3B2A;" points="562.2,501.5 572.4,513.1 549.7,523.4 "/>
<polygon id="triangle282" style="fill:#5E4433;" points="549.7,523.4 546.4,534.9 572.4,513.1 "/>
<polygon id="triangle283" style="fill:#E0A973;" points="546.4,534.9 551,548.7 572.4,513.1 "/>
<polygon id="triangle284" style="fill:#6A4F32;" points="525.7,533.5 549.7,523.4 546.4,534.9 "/>
<polygon id="triangle285" style="fill:#8A6252;" points="525.7,533.5 546.4,534.9 515.1,559.8 "/>
<polygon id="triangle286" style="fill:#E3B88B;" points="515.1,559.8 551,548.7 546.4,534.9 "/>
<polygon id="triangle287" style="fill:#DCB982;" points="515.7,578 551,548.7 515.1,559.8 "/>
<polygon id="triangle288" style="fill:#241C18;" points="551,548.7 515.7,578 555.8,591.5 "/>
<polygon id="triangle289" style="fill:#29211D;" points="551,548.7 572.4,513.1 600.1,532 "/>
<polygon id="triangle290" style="fill:#292420;" points="551,548.7 600.1,532 555.8,591.5 "/>
<polygon id="triangle291" style="fill:#222325;" points="600.1,532 641.8,570.4 555.8,591.5 "/>
<polygon id="triangle292" style="fill:#423E37;" points="621.8,509.5 600.1,532 641.8,570.4 "/>
<polygon id="triangle293" style="fill:#C3B0A1;" points="621.8,509.5 682.6,542.3 641.8,570.4 "/>
<polygon id="triangle294" style="fill:#6B5E56;" points="641.8,570.4 713.6,581.4 682.6,542.3 "/>
<polygon id="triangle295" style="fill:#1D1D1E;" points="641.8,570.4 619,629.7 681.2,614 "/>
<polygon id="triangle296" style="fill:#201B19;" points="555.8,591.5 641.8,570.4 619,629.7 "/>
<polygon id="triangle297" style="fill:#9E875D;" points="435.3,461.7 446.6,467.5 452.7,453.5 "/>
<polygon id="triangle298" style="fill:#6C5946;" points="435.3,461.7 426.9,471.7 446.6,467.5 "/>
<polygon id="triangle299" style="fill:#A38666;" points="452.7,453.5 446.6,467.5 463.2,459 "/>
<polygon id="triangle300" style="fill:#6F5A4A;" points="463.2,459 455.1,472 474.3,481 "/>
<polygon id="triangle301" style="fill:#8A745D;" points="446.6,467.5 463.2,459 455.1,472 "/>
<polygon id="triangle302" style="fill:#845A34;" points="446.6,467.5 442.7,480 455.1,472 "/>
<polygon id="triangle303" style="fill:#D2AA76;" points="442.7,480 455.1,472 474.3,481 "/>
<polygon id="triangle304" style="fill:#C6926A;" points="442.7,480 474.3,481 460,489 "/>
<polygon id="triangle305" style="fill:#AA674A;" points="442.7,480 451.6,495.7 460,489 "/>
<polygon id="triangle306" style="fill:#DD8C6F;" points="460,489 474.3,481 475.7,488.5 "/>
<polygon id="triangle307" style="fill:#C57260;" points="460,489 467.9,497.6 475.7,488.5 "/>
<polygon id="triangle308" style="fill:#C27A5A;" points="460,489 451.6,495.7 467.9,497.6 "/>
<polygon id="triangle309" style="fill:#E79C86;" points="467.9,497.6 475.7,488.5 480.7,498.8 "/>
<polygon id="triangle310" style="fill:#E8C9A1;" points="451.6,495.7 462.4,515.5 467.9,497.6 "/>
<polygon id="triangle311" style="fill:#EECBA7;" points="467.9,497.6 484.2,515.3 462.4,515.5 "/>
<polygon id="triangle312" style="fill:#F7C0A2;" points="467.9,497.6 484.2,515.3 480.7,498.8 "/>
<polygon id="triangle313" style="fill:#F6BFA0;" points="480.7,498.8 484.2,515.3 496.5,503 "/>
<polygon id="triangle314" style="fill:#8F5C49;" points="462.4,515.5 482.8,531.2 484.2,515.3 "/>
<polygon id="triangle315" style="fill:#613327;" points="484.2,515.3 482.8,531.2 503.9,519.8 "/>
<polygon id="triangle316" style="fill:#584D31;" points="482.8,531.2 525.7,533.5 503.9,519.8 "/>
<polygon id="triangle317" style="fill:#635436;" points="482.8,531.2 515.1,559.8 525.7,533.5 "/>
<polygon id="triangle318" style="fill:#4F3F2A;" points="482.8,531.2 482,566.9 515.1,559.8 "/>
<polygon id="triangle319" style="fill:#5D3D2B;" points="450.8,554.5 482.8,531.2 482,566.9 "/>
<polygon id="triangle320" style="fill:#72543A;" points="426.9,471.7 446.6,467.5 442.7,480 "/>
<polygon id="triangle321" style="fill:#705F47;" points="393.9,467.3 408.6,491.7 426.9,471.7 "/>
<polygon id="triangle322" style="fill:#8A745D;" points="426.9,471.7 408.6,491.7 427.1,484.9 "/>
<polygon id="triangle323" style="fill:#A27440;" points="426.9,471.7 427.1,484.9 442.7,480 "/>
<polygon id="triangle324" style="fill:#CDBE7B;" points="427.1,484.9 430.1,508.6 451.6,495.7 "/>
<polygon id="triangle325" style="fill:#D1B673;" points="427.1,484.9 451.6,495.7 442.7,480 "/>
<polygon id="triangle326" style="fill:#654735;" points="427.1,484.9 408.6,491.7 430.1,508.6 "/>
<polygon id="triangle327" style="fill:#4E3B2A;" points="408.6,491.7 433.6,531.7 430.1,508.6 "/>
<polygon id="triangle328" style="fill:#D6C389;" points="430.1,508.6 462.4,515.5 451.6,495.7 "/>
<polygon id="triangle329" style="fill:#5E4B35;" points="430.1,508.6 433.6,531.7 462.4,515.5 "/>
<polygon id="triangle330" style="fill:#765C4E;" points="433.6,531.7 462.4,515.5 482.8,531.2 "/>
<polygon id="triangle331" style="fill:#573D37;" points="433.6,531.7 482.8,531.2 450.8,554.5 "/>
<polygon id="triangle332" style="fill:#171717;" points="641.8,570.4 713.6,581.4 681.2,614 "/>
<polygon id="triangle333" style="fill:#1D1D1E;" points="682.6,542.3 737.9,578.3 713.6,581.4 "/>
<polygon id="triangle334" style="fill:#382A1F;" points="713.6,581.4 681.2,614 741.4,640.8 "/>
<polygon id="triangle335" style="fill:#BDABA0;" points="713.6,581.4 737.9,578.3 741.4,640.8 "/>
<polygon id="triangle336" style="fill:#A99B88;" points="681.2,614 674.8,660.8 741.4,640.8 "/>
<polygon id="triangle337" style="fill:#1D1D1E;" points="619,629.7 681.2,614 674.8,660.8 "/>
<polygon id="triangle338" style="fill:#181715;" points="619,629.7 592,668.2 674.8,660.8 "/>
<polygon id="triangle339" style="fill:#1E1A17;" points="555.8,591.5 523.2,648.9 619,629.7 "/>
<polygon id="triangle340" style="fill:#27221F;" points="523.2,648.9 619,629.7 592,668.2 "/>
<polygon id="triangle341" style="fill:#DEBA80;" points="482,566.9 515.1,559.8 515.7,578 "/>
<polygon id="triangle342" style="fill:#CBA96C;" points="482,566.9 483.8,616.9 515.7,578 "/>
<polygon id="triangle343" style="fill:#272019;" points="515.7,578 483.8,616.9 555.8,591.5 "/>
<polygon id="triangle344" style="fill:#302825;" points="483.8,616.9 555.8,591.5 523.2,648.9 "/>
<polygon id="triangle345" style="fill:#2B2622;" points="483.8,616.9 449.8,654.4 523.2,648.9 "/>
<polygon id="triangle346" style="fill:#C99D60;" points="427.4,597.3 482,566.9 483.8,616.9 "/>
<polygon id="triangle347" style="fill:#A9724B;" points="427.4,597.3 449.8,654.4 483.8,616.9 "/>
<polygon id="triangle348" style="fill:#C39C64;" points="427.4,597.3 404.4,626.9 449.8,654.4 "/>
<polygon id="triangle349" style="fill:#D0B46A;" points="427.4,597.3 450.8,554.5 482,566.9 "/>
<polygon id="triangle350" style="fill:#E6C896;" points="450.8,554.5 394.9,576.2 427.4,597.3 "/>
<polygon id="triangle351" style="fill:#AA7F4C;" points="394.9,576.2 433.6,531.7 450.8,554.5 "/>
<polygon id="triangle352" style="fill:#C0B2A7;" points="388.7,434 323.3,476.6 393.9,467.3 "/>
<polygon id="triangle353" style="fill:#F2E4DC;" points="388.7,434 314,435.9 323.3,476.6 "/>
<polygon id="triangle354" style="fill:#8B7E6E;" points="314,435.9 278.8,459.8 323.3,476.6 "/>
<polygon id="triangle355" style="fill:#968A7C;" points="278.8,459.8 268.5,511.3 323.3,476.6 "/>
<polygon id="triangle356" style="fill:#322D29;" points="268.5,511.3 323.3,476.6 320.8,526.4 "/>
<polygon id="triangle357" style="fill:#2A2521;" points="320.8,526.4 268.5,511.3 279.4,549.1 "/>
<polygon id="triangle358" style="fill:#36332C;" points="323.3,476.6 320.8,526.4 356.9,502.5 "/>
<polygon id="triangle359" style="fill:#E1D3C8;" points="323.3,476.6 393.9,467.3 356.9,502.5 "/>
<polygon id="triangle360" style="fill:#C0B6AC;" points="408.6,491.7 393.9,467.3 356.9,502.5 "/>
<polygon id="triangle361" style="fill:#9C714D;" points="408.6,491.7 390.2,536.3 433.6,531.7 "/>
<polygon id="triangle362" style="fill:#2A231D;" points="356.9,502.5 408.6,491.7 390.2,536.3 "/>
<polygon id="triangle363" style="fill:#413A34;" points="356.9,502.5 320.8,526.4 390.2,536.3 "/>
<polygon id="triangle364" style="fill:#2E2721;" points="320.8,526.4 279.4,549.1 334.8,577.4 "/>
<polygon id="triangle365" style="fill:#38302D;" points="334.8,577.4 390.2,536.3 320.8,526.4 "/>
<polygon id="triangle366" style="fill:#362E2B;" points="334.8,577.4 390.2,536.3 394.9,576.2 "/>
<polygon id="triangle367" style="fill:#D5C184;" points="390.2,536.3 394.9,576.2 433.6,531.7 "/>
<polygon id="triangle368" style="fill:#2F2724;" points="334.8,577.4 394.9,576.2 394.9,576.2 404.4,626.9 "/>
<polygon id="triangle369" style="fill:#C69D61;" points="404.4,626.9 427.4,597.3 394.9,576.2 "/>
<polygon id="triangle370" style="fill:#6B605E;" points="575.7,327.2 546.9,332.9 575.7,333 "/>
<polygon id="triangle371" style="fill:#E49F74;" points="512.7,447.6 512.7,453.1 530.5,447.6 "/>
<polygon id="triangle372" style="fill:#E0D1CE;" points="619.7,371.2 623.3,369.1 633.9,370.5 "/>
</svg>